<svg id="an_Layer_1" xmlns="http://www.w3.org/2000/svg" viewBox="0 0 640 480">
  <style>
    .st0{fill:#fff}.st1{fill:#dc171d}.st2{fill:#012a87}
  </style>
  <path class="st0" d="M0 0h640v480H0z"/>
  <path id="an_rect6" class="st1" d="M240 0h160v480H240z"/>
  <path id="an_rect8" class="st2" d="M0 160h640v160H0z"/>
  <path class="st0" d="M324.5 180.5l-4.5-13.8-4.5 13.8H301l11.7 8.5-4.5 13.8 11.8-8.5 11.8 8.5-4.5-13.8 11.7-8.5zm109.4 52.7l11.8-8.5h-14.5l-4.5-13.9-4.5 13.9h-14.6l11.8 8.5-4.5 13.8 11.8-8.5 11.7 8.5zm-65.2 54l-4.5-13.9-4.5 13.9h-14.5l11.7 8.5-4.5 13.8 11.8-8.5 11.7 8.5-4.5-13.8 11.8-8.5zm-150.9-62.5l-4.5-13.9-4.5 13.9h-14.5l11.8 8.5-4.5 13.8 11.7-8.5 11.8 8.5-4.5-13.8 11.8-8.5zm62.5 62.5l-4.5-13.9-4.5 13.9h-14.5l11.8 8.5-4.5 13.8 11.7-8.5 11.8 8.5-4.5-13.8 11.7-8.5z"/>
</svg>
