<svg id="ic_Layer_1" xmlns="http://www.w3.org/2000/svg" viewBox="0 0 640 480">
  <style>
    .st0{fill:#fff}.st1{fill:#fc0}.st2{fill:#0768a9}.st3{fill:#ecd21c}.st4{fill:#be0027}.st5{fill:#4c86c7}.st6{fill:#a5a7a9}.st7{fill:#c8c8c8}.st8{fill:#c09b5a}
  </style>
  <path class="st0" d="M0 0h212v480H0z"/>
  <path class="st1" d="M428 0h212v480H428z"/>
  <path class="st2" d="M213 0h214v480H213z"/>
  <g id="ic_coa">
    <g id="ic_crown">
      <path class="st3" d="M300.2 213.8c-1.7-.9-3.8-4-3.8-5.6 0-2.8 3.3-5.1 7.4-5.1l1.7-.7.8-2.5s-9.2-1.2-11.8 3.3c-2.5 4.4-1.2 7.3-.2 9.7 1.1 2.3 3.5 3.5 3.5 3.5l2.4-2.6z"/>
      <path d="M297.9 217.2l-.4-.2c-.1-.1-2.6-1.3-3.8-3.8l-.1-.2c-1-2.5-2.3-5.5.3-10.1 2.8-4.8 12-3.7 12.4-3.6l.7.1-1.1 3.5-2.2.9c-3.7 0-6.8 2-6.8 4.5 0 1.4 2 4.3 3.5 5l.7.4-3.2 3.5zm5.7-16.8c-2.8 0-7 .5-8.6 3.1-2.3 4-1.2 6.7-.2 9l.1.1c.7 1.5 2.1 2.5 2.8 2.9l1.6-1.7c-1.7-1.3-3.5-4.1-3.5-5.7 0-3.1 3.5-5.7 7.9-5.7l1.3-.5.5-1.5h-1.9z"/>
      <path class="st3" d="M309.8 206.5c-.5-.6-.9-1.3-.9-2 0-2 2.3-3.7 5.2-3.7 1.1 0 3.1.2 3.9.6l.3-4.2s-7.8-.9-10.8 2.6-2.2 6.8-2 7.6c.2.8.8 2 .8 2l4.3-1.3-.8-1.6z"/>
      <path d="M306 210.2l-.2-.5c0-.1-.6-1.3-.8-2.1-.7-2.9 0-5.7 2.1-8.2 3.2-3.7 11-2.9 11.3-2.8l.6.1-.4 5.7-.8-.4c-.6-.3-2.4-.5-3.6-.5-2.5 0-4.6 1.4-4.6 3.1 0 .5.3 1 .8 1.6l.1.1 1.1 2.3-5.6 1.6zm10.1-12.5c-2.4 0-6.3.4-8.1 2.5-1.8 2.1-2.5 4.6-1.9 7 .1.4.3 1 .5 1.4l3.1-.9-.4-.9c-.7-.8-1-1.6-1-2.3 0-2.4 2.6-4.3 5.8-4.3.7 0 2.2.1 3.3.4l.2-2.8c-.3-.1-.9-.1-1.5-.1z"/>
      <path class="st3" d="M340 213.8c1.7-.9 3.8-4 3.8-5.6 0-2.8-3.3-5.1-7.4-5.1l-1.7-.7-.8-2.5s9.2-1.2 11.7 3.3c2.5 4.4 1.2 7.3.2 9.7-1.1 2.3-3.5 3.5-3.5 3.5l-2.3-2.6z"/>
      <path d="M342.1 217.2l-3.1-3.6.7-.4c1.5-.8 3.5-3.7 3.5-5 0-2.5-3-4.5-6.8-4.5h-.2l-2-.8-1.1-3.5.7-.1c.4-.1 9.7-1.2 12.3 3.6 2.6 4.6 1.3 7.6.3 10.1l-.1.1c-1.2 2.5-3.7 3.8-3.8 3.8l-.4.3zm-1.2-3.3l1.5 1.7c.7-.4 2.1-1.4 2.8-3v-.1c1-2.3 2.1-5-.2-9-1.9-3.4-8.2-3.2-10.3-3.1l.5 1.5 1.3.5c4.4 0 7.9 2.6 7.9 5.7 0 1.7-1.7 4.5-3.5 5.8z"/>
      <path class="st3" d="M330.4 206.5c.5-.6.9-1.3.9-2 0-2-2.3-3.7-5.2-3.7-1.1 0-3.1.2-3.9.6l-.2-4.2s7.8-.9 10.8 2.6 2.2 6.8 2 7.6-.8 2-.8 2l-4.3-1.3.7-1.6z"/>
      <path d="M334.3 210.2l-5.5-1.7 1.1-2.4c.5-.6.8-1.1.8-1.6 0-1.7-2.1-3.1-4.6-3.1-1.2 0-3 .2-3.6.5l-.9.4-.3-5.7.6-.1c.3 0 8.2-.9 11.3 2.8 2.1 2.5 2.9 5.3 2.1 8.2-.2.9-.8 2.1-.8 2.1l-.2.6zm-3.7-2.5l3.1.9c.2-.4.4-1 .5-1.4.6-2.5 0-4.9-1.9-7-2.3-2.7-7.9-2.6-9.7-2.4l.1 2.8c1.1-.3 2.6-.4 3.3-.4 3.2 0 5.8 1.9 5.8 4.3 0 .7-.3 1.5-1 2.3l-.2.9z"/>
      <path class="st4" d="M299.4 213.8c4.8-5 12.4-8.2 20.8-8.2s16 3.2 20.8 8.2l-5.8 15.9h-30.3l-5.5-15.9z"/>
      <path d="M335.2 230.3h-30.3c-.3 0-.5-.2-.6-.4l-5.5-15.9c-.1-.2 0-.4.1-.6 5-5.2 13-8.4 21.2-8.4 8.3 0 16.2 3.1 21.2 8.4.2.2.2.4.1.6l-5.8 15.9c.1.2-.2.4-.4.4zm-29.9-1.2h29.5l5.5-15.2c-4.8-4.9-12.3-7.8-20.1-7.8-7.8 0-15.3 2.9-20.1 7.8l5.2 15.2z"/>
      <path class="st3" d="M324 211.4l-3.9-2.6-3.8 2.6 1.5-13.1h4.7l1.5 13.1z"/>
      <path d="M315.6 212.6l1.7-14.9h5.7l1.7 14.9-4.6-3.1-4.5 3.1zm4.5-4.5l3.2 2.1-1.3-11.3h-3.7l-1.3 11.3 3.1-2.1z"/>
      <ellipse class="st0" cx="320.2" cy="201.7" rx="1.4" ry="1.4"/>
      <path d="M320.2 203.4c-.9 0-1.7-.8-1.7-1.7s.8-1.7 1.7-1.7 1.7.8 1.7 1.7-.8 1.7-1.7 1.7zm0-2.8c-.6 0-1.1.5-1.1 1.1s.5 1.1 1.1 1.1 1.1-.5 1.1-1.1-.5-1.1-1.1-1.1z"/>
      <ellipse class="st0" cx="320.2" cy="204.7" rx="1.7" ry="1.8"/>
      <path d="M320.2 206.8c-1.1 0-2-.9-2-2.1s.9-2.1 2-2.1 2 .9 2 2.1-.9 2.1-2 2.1zm0-3.6c-.8 0-1.4.7-1.4 1.5s.6 1.5 1.4 1.5 1.4-.7 1.4-1.5-.6-1.5-1.4-1.5z"/>
      <ellipse class="st0" cx="320.2" cy="208.5" rx="2.2" ry="2.3"/>
      <path d="M320.2 211.1c-1.4 0-2.5-1.2-2.5-2.6 0-1.4 1.1-2.6 2.5-2.6s2.5 1.2 2.5 2.6-1.1 2.6-2.5 2.6zm0-4.6c-1.1 0-1.9.9-1.9 2s.9 2 1.9 2 1.9-.9 1.9-2-.8-2-1.9-2z"/>
      <g id="ic_g">
        <ellipse class="st0" cx="294.3" cy="212.8" rx="2.1" ry="2.2"/>
        <path d="M294.3 215.3c-1.3 0-2.4-1.1-2.4-2.5s1.1-2.5 2.4-2.5 2.4 1.1 2.4 2.5-1.1 2.5-2.4 2.5zm0-4.4c-1 0-1.8.9-1.8 1.9 0 1.1.8 1.9 1.8 1.9s1.8-.9 1.8-1.9c0-1.1-.8-1.9-1.8-1.9z"/>
        <ellipse class="st0" cx="292.8" cy="209.1" rx="2.1" ry="2.2"/>
        <path d="M292.8 211.6c-1.3 0-2.4-1.1-2.4-2.5s1.1-2.5 2.4-2.5 2.4 1.1 2.4 2.5-1.1 2.5-2.4 2.5zm0-4.4c-1 0-1.8.9-1.8 1.9s.8 1.9 1.8 1.9 1.8-.9 1.8-1.9-.8-1.9-1.8-1.9z"/>
        <ellipse class="st0" cx="293.4" cy="205" rx="2.1" ry="2.2"/>
        <path d="M293.4 207.5c-1.3 0-2.4-1.1-2.4-2.5s1.1-2.5 2.4-2.5 2.4 1.1 2.4 2.5-1.1 2.5-2.4 2.5zm0-4.4c-1 0-1.8.9-1.8 1.9 0 1.1.8 1.9 1.8 1.9s1.8-.9 1.8-1.9c0-1.1-.8-1.9-1.8-1.9z"/>
        <ellipse class="st0" cx="295.9" cy="201.8" rx="2.1" ry="2.2"/>
        <path d="M295.9 204.3c-1.3 0-2.4-1.1-2.4-2.5s1.1-2.5 2.4-2.5 2.4 1.1 2.4 2.5-1.1 2.5-2.4 2.5zm0-4.4c-1 0-1.8.9-1.8 1.9 0 1.1.8 1.9 1.8 1.9s1.8-.9 1.8-1.9c0-1.1-.8-1.9-1.8-1.9z"/>
        <ellipse class="st0" cx="299.5" cy="200" rx="2.1" ry="2.2"/>
        <path d="M299.5 202.5c-1.3 0-2.4-1.1-2.4-2.5s1.1-2.5 2.4-2.5 2.4 1.1 2.4 2.5-1.1 2.5-2.4 2.5zm0-4.4c-1 0-1.8.9-1.8 1.9 0 1.1.8 1.9 1.8 1.9s1.8-.9 1.8-1.9c0-1.1-.8-1.9-1.8-1.9z"/>
        <ellipse class="st0" cx="303.5" cy="199.2" rx="2.1" ry="2.2"/>
        <path d="M303.5 201.7c-1.3 0-2.4-1.1-2.4-2.5s1.1-2.5 2.4-2.5 2.4 1.1 2.4 2.5-1.1 2.5-2.4 2.5zm0-4.4c-1 0-1.8.9-1.8 1.9 0 1.1.8 1.9 1.8 1.9s1.8-.9 1.8-1.9c0-1.1-.8-1.9-1.8-1.9z"/>
        <ellipse class="st0" cx="305.4" cy="203.3" rx="2.1" ry="2.2"/>
        <path d="M305.4 205.8c-1.3 0-2.4-1.1-2.4-2.5s1.1-2.5 2.4-2.5 2.4 1.1 2.4 2.5-1.1 2.5-2.4 2.5zm0-4.4c-1 0-1.8.9-1.8 1.9 0 1.1.8 1.9 1.8 1.9s1.8-.9 1.8-1.9c0-1.1-.8-1.9-1.8-1.9z"/>
        <ellipse class="st0" cx="306" cy="207.5" rx="2.1" ry="2.2"/>
        <path d="M306 210c-1.3 0-2.4-1.1-2.4-2.5s1.1-2.5 2.4-2.5 2.4 1.1 2.4 2.5-1.1 2.5-2.4 2.5zm0-4.4c-1 0-1.8.9-1.8 1.9 0 1.1.8 1.9 1.8 1.9s1.8-.9 1.8-1.9c0-1.1-.8-1.9-1.8-1.9z"/>
        <ellipse class="st0" cx="307.6" cy="199.7" rx="2.1" ry="2.2"/>
        <path d="M307.6 202.2c-1.3 0-2.4-1.1-2.4-2.5s1.1-2.5 2.4-2.5 2.4 1.1 2.4 2.5-1.1 2.5-2.4 2.5zm0-4.4c-1 0-1.8.9-1.8 1.9 0 1.1.8 1.9 1.8 1.9s1.8-.9 1.8-1.9c0-1.1-.8-1.9-1.8-1.9z"/>
        <ellipse class="st0" cx="311.1" cy="197.5" rx="2.1" ry="2.2"/>
        <path d="M311.1 200c-1.3 0-2.4-1.1-2.4-2.5s1.1-2.5 2.4-2.5 2.4 1.1 2.4 2.5-1.1 2.5-2.4 2.5zm0-4.4c-1 0-1.8.9-1.8 1.9 0 1.1.8 1.9 1.8 1.9s1.8-.9 1.8-1.9c0-1.1-.8-1.9-1.8-1.9z"/>
        <ellipse class="st0" cx="315.2" cy="197.1" rx="2.1" ry="2.2"/>
        <path d="M315.2 199.6c-1.3 0-2.4-1.1-2.4-2.5s1.1-2.5 2.4-2.5 2.4 1.1 2.4 2.5-1.1 2.5-2.4 2.5zm0-4.4c-1 0-1.8.9-1.8 1.9s.8 1.9 1.8 1.9 1.8-.9 1.8-1.9-.8-1.9-1.8-1.9z"/>
      </g>
      <g transform="matrix(-1 0 0 1 750.3 0)">
        <g id="ic_g_1_">
          <path d="M404.5 215.3c1.3 0 2.4-1.1 2.4-2.5s-1.1-2.5-2.4-2.5-2.4 1.1-2.4 2.5 1.1 2.5 2.4 2.5zm0-4.4c1 0 1.8.9 1.8 1.9 0 1.1-.8 1.9-1.8 1.9s-1.8-.9-1.8-1.9c0-1.1.8-1.9 1.8-1.9z"/>
          <path d="M403 211.6c1.3 0 2.4-1.1 2.4-2.5s-1.1-2.5-2.4-2.5-2.4 1.1-2.4 2.5 1.1 2.5 2.4 2.5zm0-4.4c1 0 1.8.9 1.8 1.9s-.8 1.9-1.8 1.9-1.8-.9-1.8-1.9.8-1.9 1.8-1.9z"/>
          <path d="M403.6 207.5c1.3 0 2.4-1.1 2.4-2.5s-1.1-2.5-2.4-2.5-2.4 1.1-2.4 2.5 1.1 2.5 2.4 2.5zm0-4.4c1 0 1.8.9 1.8 1.9 0 1.1-.8 1.9-1.8 1.9s-1.8-.9-1.8-1.9c0-1.1.8-1.9 1.8-1.9z"/>
          <path d="M406 204.3c1.3 0 2.4-1.1 2.4-2.5s-1.1-2.5-2.4-2.5-2.4 1.1-2.4 2.5 1.1 2.5 2.4 2.5zm0-4.4c1 0 1.8.9 1.8 1.9 0 1.1-.8 1.9-1.8 1.9s-1.8-.9-1.8-1.9c0-1.1.8-1.9 1.8-1.9z"/>
          <path d="M409.7 202.5c1.3 0 2.4-1.1 2.4-2.5s-1.1-2.5-2.4-2.5-2.4 1.1-2.4 2.5 1.1 2.5 2.4 2.5zm0-4.4c1 0 1.8.9 1.8 1.9 0 1.1-.8 1.9-1.8 1.9s-1.8-.9-1.8-1.9c0-1.1.8-1.9 1.8-1.9z"/>
          <path d="M413.6 201.7c1.3 0 2.4-1.1 2.4-2.5s-1.1-2.5-2.4-2.5-2.4 1.1-2.4 2.5 1.1 2.5 2.4 2.5zm0-4.4c1 0 1.8.9 1.8 1.9 0 1.1-.8 1.9-1.8 1.9s-1.8-.9-1.8-1.9c0-1.1.8-1.9 1.8-1.9z"/>
          <path d="M415.6 205.8c1.3 0 2.4-1.1 2.4-2.5s-1.1-2.5-2.4-2.5-2.4 1.1-2.4 2.5 1.1 2.5 2.4 2.5zm0-4.4c1 0 1.8.9 1.8 1.9 0 1.1-.8 1.9-1.8 1.9s-1.8-.9-1.8-1.9c0-1.1.8-1.9 1.8-1.9z"/>
          <path d="M416.2 210c1.3 0 2.4-1.1 2.4-2.5s-1.1-2.5-2.4-2.5-2.4 1.1-2.4 2.5 1.1 2.5 2.4 2.5zm0-4.4c1 0 1.8.9 1.8 1.9 0 1.1-.8 1.9-1.8 1.9s-1.8-.9-1.8-1.9c0-1.1.8-1.9 1.8-1.9zm1.6-3.4c1.3 0 2.4-1.1 2.4-2.5s-1.1-2.5-2.4-2.5-2.4 1.1-2.4 2.5 1.1 2.5 2.4 2.5zm0-4.4c1 0 1.8.9 1.8 1.9 0 1.1-.8 1.9-1.8 1.9s-1.8-.9-1.8-1.9c0-1.1.8-1.9 1.8-1.9z"/>
          <path d="M421.2 200c1.3 0 2.4-1.1 2.4-2.5s-1.1-2.5-2.4-2.5-2.4 1.1-2.4 2.5 1.1 2.5 2.4 2.5zm0-4.4c1 0 1.8.9 1.8 1.9 0 1.1-.8 1.9-1.8 1.9s-1.8-.9-1.8-1.9c0-1.1.8-1.9 1.8-1.9z"/>
          <path d="M425.3 199.6c1.3 0 2.4-1.1 2.4-2.5s-1.1-2.5-2.4-2.5-2.4 1.1-2.4 2.5 1.1 2.5 2.4 2.5zm0-4.4c1 0 1.8.9 1.8 1.9s-.8 1.9-1.8 1.9-1.8-.9-1.8-1.9.8-1.9 1.8-1.9z"/>
        </g>
      </g>
      <ellipse class="st5" cx="320.2" cy="197.5" rx="3.1" ry="3.2"/>
      <path d="M320.2 201c-1.9 0-3.4-1.6-3.4-3.5s1.5-3.5 3.4-3.5 3.4 1.6 3.4 3.5-1.5 3.5-3.4 3.5zm0-6.4c-1.5 0-2.8 1.3-2.8 2.9 0 1.6 1.3 2.9 2.8 2.9s2.8-1.3 2.8-2.9-1.3-2.9-2.8-2.9z"/>
      <path class="st3" d="M321.2 196.8v-4h1.3v-2.2h-1.3v-1.4h-2.1v1.4h-1.3v2.2h1.3v4h-1.9v1.4h5.9v-1.4h-1.9z"/>
      <path d="M323.4 198.5h-6.5v-2h1.9v-3.4h-1.3v-2.8h1.3v-1.4h2.7v1.4h1.3v2.8h-1.3v3.4h1.9v2zm-5.9-.6h5.3v-.8h-1.9v-4.6h1.3v-1.6h-1.3v-1.4h-1.5v1.4h-1.3v1.6h1.3v4.6h-1.9v.8zm27.9 17.3c-.6-.9-1.5-1.5-2.4-1.6-.4 0-.7 0-1.1.1 0 0-.1 0-.1-.1l-.6-.3-.5.4-.3.3-.6-.3s-.5.3-.5.4c-.5-.3-1.1-.4-1.6-.4h-.7v.1c-.4-.4-.9-.7-1.5-.9l-.1-.6-.6-.2h-.1c0-.2 0-.3-.1-.5l-.2-.6-.6-.2c-.2-.6-.4-1.2-.8-1.6l-.5-.5-.7.3c-.5.2-1 .6-1.4 1.1l-.6-.1-.4.5c-.1.1-.2.3-.2.4l-.6-.1-.4.5c-.6-.1-1.2 0-1.7.2 0 0-.1.1-.3.1-.2-.1-.4-.3-.4-.3-.5-.4-1.1-.5-1.7-.6l-.3-.6-.6-.1h-.1c0-.2-.1-.3-.2-.5l-.3-.6h-.6c-.3-.6-.7-1.1-1.2-1.5l-.6-.4-.6.4c-.5.3-.9.9-1.2 1.5h-.6l-.3.6c-.1.2-.1.3-.2.5h-.1l-.6.1-.3.6c-.6.1-1.2.2-1.7.6 0 0-.2.2-.4.3-.2-.1-.3-.1-.3-.1-.5-.2-1.1-.3-1.7-.2l-.4-.5-.6.1h-.1c-.1-.1-.1-.3-.2-.4l-.4-.5-.6.1c-.4-.5-.8-.9-1.4-1.1l-.7-.3-.5.5c-.4.4-.7 1-.8 1.6l-.6.2-.2.6c0 .2 0 .3-.1.5h-.1l-.6.2-.1.6c-.6.2-1.1.5-1.5.9v-.1h-.7c-.5 0-1.1.1-1.6.4l-.5-.4-.6.3h-.1l-.3-.3-.5-.4-.6.3s-.1 0-.1.1c-.3-.1-.7-.2-1.1-.1-1 .1-1.8.6-2.4 1.6l-1.1 1.6 1.9.1s1 .1 1.8.8c.5.6 5.9 11.1 5.9 11.1l.9-.4c5.3-2.2 10.5-3.3 15.9-3.3s10.7 1.1 16 3.3l.9.4s5.3-10.5 5.8-11.1c.7-.8 1.7-.8 1.8-.8l1.9-.1-1.1-1.6z"/>
      <path class="st3" d="M320.1 220.3c-6.2 0-12.3 1.2-18.1 3.6l1.8 3.5c5.3-2.2 10.6-3.4 16.3-3.4 5.8 0 11.1 1.2 16.4 3.4l1.8-3.5c-5.8-2.4-11.9-3.6-18.2-3.6z"/>
      <path class="st3" d="M344.5 215.8c-.9-1.4-2.3-1.2-2.8-.7-.1-.2-.3-.3-.5-.4-.4.3-.6.7-.7 1.3-.1-.4-.4-.8-.7-1-.2.1-.3.3-.4.5-.5-.5-1.2-.7-1.7-.7-.2.6-.1 1.3.2 1.9-.2.1-.4.2-.5.3.1.7.9 1.2 1.6 1.6-.4.6-1 1.6-1.4 2.1-.6-.2-1.1-.8-1.1-1.5 0-.2 0-.4.1-.6 0-.1.1-.2.1-.3 0-.3-.2-.6-.5-.8-.4-.2-.9 0-1.1.5-.3.7-1 1.2-1.7 1.2-1 0-1.8-.8-1.9-1.9l.2-.9c.1 0 .3.1.5.1.9.3 2 .7 2.7.2 0-.2-.1-.4-.2-.6.7-.3 1.2-.7 1.4-1.3-.4-.4-1-.7-1.7-.8v-.7c-.4-.1-.8 0-1.2.2.3-.5.5-1 .4-1.5-.2-.1-.4-.1-.6 0 0-.7-.3-1.4-.7-1.8-.5.2-1 .7-1.3 1.4-.2-.1-.4-.2-.6-.2-.3.4-.3.9-.2 1.5-.3-.3-.6-.6-1-.7l-.3.6c-.7-.3-1.4-.2-1.9 0 0 .6.3 1.2.8 1.8-.2.1-.3.3-.4.5.5.8 1.6.8 2.6.9h.3l-.1.7c0 .1-.1.1-.1.2-.3.8-1 1.3-1.7 1.3-1 0-1.9-.9-1.9-1.9 0-.5-.4-.8-.8-.8h-.1c-.4 0-.7.2-.8.6-.2.8-1 1.4-1.8 1.4-1 0-1.9-.9-1.9-1.9v-.5h.5c1 .1 2.2.3 2.9-.4l-.3-.6c.6-.4 1.1-1 1.2-1.6-.5-.4-1.2-.5-2-.4 0-.2-.1-.5-.2-.7-.4 0-.8.2-1.2.5.2-.6.3-1.1.1-1.6-.2 0-.5 0-.7.1-.2-.7-.5-1.4-1.1-1.7-.5.4-.9 1-1.1 1.7-.2-.1-.4-.1-.7-.1-.2.5-.1 1 .1 1.6-.4-.3-.8-.5-1.2-.5-.1.2-.1.4-.2.7-.7-.1-1.4 0-2 .4.1.6.6 1.2 1.2 1.6-.2.2-.3.4-.3.6.6.7 1.9.5 2.9.4h.4v.4c0 1.1-.8 1.9-1.9 1.9-.8 0-1.6-.6-1.8-1.4-.1-.4-.4-.6-.8-.6h-.1c-.4 0-.8.4-.8.8 0 1.1-.8 1.9-1.9 1.9-.8 0-1.5-.5-1.7-1.3 0-.1-.1-.2-.1-.2l-.1-.7h.3c.9-.1 2.1-.2 2.6-.9-.1-.2-.2-.4-.4-.5.5-.5.8-1.2.8-1.8-.5-.2-1.2-.3-1.9 0 0-.2-.1-.4-.3-.6-.4 0-.7.3-1 .7.1-.6.1-1.1-.2-1.5-.2 0-.4.1-.6.2-.3-.7-.8-1.2-1.3-1.4-.4.4-.7 1.1-.7 1.8h-.6c-.1.5.1 1 .4 1.5-.4-.2-.8-.3-1.2-.2v.7c-.7 0-1.3.3-1.7.8.2.5.8 1 1.4 1.3-.1.2-.2.4-.2.6.7.5 1.8.1 2.7-.2.2-.1.3-.1.5-.1l.2.9c0 1.1-.8 1.9-1.9 1.9-.8 0-1.4-.5-1.7-1.2-.2-.4-.6-.6-1.1-.5-.3.1-.5.4-.5.8 0 .1 0 .2.1.3.1.2.1.4.1.6 0 .7-.5 1.3-1.1 1.5-.3-.5-1-1.5-1.4-2.1.7-.4 1.5-.8 1.6-1.6-.2-.1-.3-.3-.5-.3.3-.6.3-1.3.2-1.9-.6 0-1.2.2-1.7.7-.1-.2-.3-.3-.4-.5-.4.2-.6.6-.7 1-.1-.5-.3-1-.7-1.3-.2.1-.3.2-.5.4-.5-.5-1.9-.6-2.8.7 0 0 1.4.1 2.5 1.2.6.6 1.1 1.3 1.4 1.8 0 .1 0 .1.1.2l1.8 2.9c.1.3.4.5.7.5 1.4 0 2.5-.9 3-2.2.5.3 1.1.5 1.7.5 1.3 0 2.4-.7 3-1.8.6.6 1.4.9 2.2.9 1.2 0 2.3-.7 2.9-1.7.6.6 1.5 1 2.4 1 1.1 0 2-.5 2.7-1.3.6.8 1.6 1.3 2.7 1.3.9 0 1.7-.4 2.4-1 .6 1 1.7 1.7 2.9 1.7.9 0 1.6-.3 2.2-.9.6 1.1 1.7 1.8 3 1.8.6 0 1.2-.2 1.7-.5.4 1.3 1.6 2.2 3 2.2.3 0 .6-.2.7-.5l1.8-2.9c0-.1.1-.1.1-.2.3-.4.8-1.1 1.4-1.8.8-1 2.3-1.1 2.2-1.1z"/>
      <path class="st4" d="M302.3 224.7l.8 2 1.3-1.7-2.1-.3z"/>
      <path d="M303 227.3l-1.2-3 3.1.4-1.9 2.6zm-.2-2.2l.4 1 .7-.9-1.1-.1z"/>
      <ellipse class="st4" cx="306.2" cy="224.4" rx="1.1" ry="1.1"/>
      <path d="M306.2 225.8c-.8 0-1.4-.6-1.4-1.4s.6-1.4 1.4-1.4 1.4.6 1.4 1.4-.6 1.4-1.4 1.4zm0-2.2c-.4 0-.8.4-.8.8s.4.8.8.8.8-.4.8-.8-.4-.8-.8-.8z"/>
      <path class="st5" d="M312.6 222.8c.1.6-.3 1.2-.8 1.3l-2.1.4c-.6.1-1.2-.3-1.3-.8-.1-.6.3-1.2.8-1.3l2.1-.4c.6-.1 1.2.2 1.3.8z"/>
      <path d="M309.5 224.8c-.7 0-1.3-.4-1.4-1.1-.1-.7.4-1.5 1-1.6l2.1-.4c.4-.1.7 0 1 .2.3.2.5.5.6.9.1.7-.4 1.5-1 1.6l-2.1.4h-.2zm2-2.5h-.2l-2.1.4c-.3.1-.6.5-.6 1 .1.3.5.6 1 .6l2.1-.4c.3-.1.6-.5.6-1 0-.2-.2-.4-.3-.5-.1-.1-.3-.1-.5-.1z"/>
      <ellipse class="st4" cx="314.9" cy="222.5" rx="1.1" ry="1.1"/>
      <path d="M314.9 223.9c-.8 0-1.4-.6-1.4-1.4s.6-1.4 1.4-1.4 1.4.6 1.4 1.4-.6 1.4-1.4 1.4zm0-2.2c-.4 0-.8.4-.8.8s.4.8.8.8.8-.4.8-.8-.4-.8-.8-.8z"/>
      <path class="st4" d="M320.2 221.1l-3.1 1.1 3.1 1.1 3.1-1.1-3.1-1.1z"/>
      <path d="M320.2 223.6l-4-1.4 4-1.4 4 1.4-4 1.4zm-2.2-1.4l2.2.8 2.2-.8-2.2-.8-2.2.8z"/>
      <ellipse class="st4" cx="325.6" cy="222.5" rx="1.1" ry="1.1"/>
      <path d="M325.6 223.9c-.8 0-1.4-.6-1.4-1.4s.6-1.4 1.4-1.4 1.4.6 1.4 1.4-.6 1.4-1.4 1.4zm0-2.2c-.4 0-.8.4-.8.8s.4.8.8.8.8-.4.8-.8-.4-.8-.8-.8z"/>
      <path class="st5" d="M327.8 222.8c-.1.6.3 1.2.8 1.3l2.1.4c.6.1 1.1-.3 1.3-.8.1-.6-.2-1.2-.8-1.3l-2.1-.4c-.6-.1-1.2.2-1.3.8z"/>
      <path d="M330.9 224.8h-.2l-2.1-.4c-.7-.1-1.2-.9-1-1.6.1-.4.3-.7.6-.9.3-.2.7-.2 1-.2l2.1.4c.7.1 1.2.8 1 1.6-.3.7-.8 1.1-1.4 1.1zm-2-2.5c-.2 0-.3 0-.5.1-.1.1-.3.2-.3.5-.1.5.2.9.6 1l2.1.4c.5.1.8-.3 1-.6.1-.3-.1-.8-.6-.9l-2.1-.4c-.1-.1-.2-.1-.2-.1z"/>
      <ellipse class="st4" cx="334.3" cy="224.4" rx="1.1" ry="1.1"/>
      <path d="M334.3 225.8c-.8 0-1.4-.6-1.4-1.4s.6-1.4 1.4-1.4 1.4.6 1.4 1.4-.6 1.4-1.4 1.4zm0-2.2c-.4 0-.8.4-.8.8s.4.8.8.8.8-.4.8-.8-.4-.8-.8-.8z"/>
      <path class="st4" d="M338 224.7l-.8 2-1.3-1.7 2.1-.3z"/>
      <path d="M337.3 227.3l-1.9-2.5 3.1-.4-1.2 2.9zm-.9-2.1l.7.9.4-1-1.1.1z"/>
      <ellipse class="st0" cx="299.2" cy="218.2" rx="1.1" ry="1.1"/>
      <path d="M299.2 219.6c-.8 0-1.4-.6-1.4-1.4s.6-1.4 1.4-1.4 1.4.6 1.4 1.4-.6 1.4-1.4 1.4zm0-2.2c-.4 0-.8.4-.8.8s.4.8.8.8.8-.4.8-.8-.4-.8-.8-.8z"/>
      <ellipse class="st0" cx="309" cy="214.3" rx="1.1" ry="1.1"/>
      <path d="M309 215.7c-.8 0-1.4-.6-1.4-1.4s.6-1.4 1.4-1.4 1.4.6 1.4 1.4-.6 1.4-1.4 1.4zm0-2.2c-.4 0-.8.4-.8.8s.4.8.8.8.8-.4.8-.8-.4-.8-.8-.8z"/>
      <ellipse class="st0" cx="320.1" cy="213.1" rx="1.1" ry="1.1"/>
      <path d="M320.1 214.5c-.8 0-1.4-.6-1.4-1.4s.6-1.4 1.4-1.4 1.4.6 1.4 1.4-.6 1.4-1.4 1.4zm0-2.2c-.4 0-.8.4-.8.8s.4.8.8.8.8-.4.8-.8-.4-.8-.8-.8z"/>
      <ellipse class="st0" cx="331.3" cy="214.3" rx="1.1" ry="1.1"/>
      <path d="M331.3 215.7c-.8 0-1.4-.6-1.4-1.4s.6-1.4 1.4-1.4 1.4.6 1.4 1.4-.6 1.4-1.4 1.4zm0-2.2c-.4 0-.8.4-.8.8s.4.8.8.8.8-.4.8-.8-.4-.8-.8-.8z"/>
      <ellipse class="st0" cx="341.1" cy="218.2" rx="1.1" ry="1.1"/>
      <path d="M341.1 219.6c-.8 0-1.4-.6-1.4-1.4s.6-1.4 1.4-1.4 1.4.6 1.4 1.4-.6 1.4-1.4 1.4zm0-2.2c-.4 0-.8.4-.8.8s.4.8.8.8.8-.4.8-.8-.4-.8-.8-.8z"/>
    </g>
    <g id="ic_shield">
      <path class="st5" d="M290.5 228.9h59.2v51.9c0 17.1-29.6 17.1-29.6 17.1s-29.6 0-29.6-17.1v-51.9z"/>
      <path id="ic_island" class="st0" d="M316 245l-6.9-7.7c-1.2-1.4-3.2-1.4-4.4 0l-6.9 7.7H316z"/>
      <path id="ic_island_1_" class="st0" d="M316 260.3l-6.9-7.7c-1.2-1.4-3.2-1.4-4.4 0l-6.9 7.7H316z"/>
      <path id="ic_island_2_" class="st0" d="M316 275.8l-6.9-7.7c-1.2-1.4-3.2-1.4-4.4 0l-6.9 7.7H316z"/>
      <path id="ic_island_3_" class="st0" d="M329.1 291.3l-6.9-7.7c-1.2-1.4-3.2-1.4-4.4 0l-6.9 7.7h18.2z"/>
      <path id="ic_island_4_" class="st0" d="M342.3 245l-6.9-7.7c-1.2-1.4-3.2-1.4-4.4 0l-6.9 7.7h18.2z"/>
      <path id="ic_island_5_" class="st0" d="M342.3 260.3l-6.9-7.7c-1.2-1.4-3.2-1.4-4.4 0l-6.9 7.7h18.2z"/>
      <path id="ic_island_6_" class="st0" d="M342.3 275.8l-6.9-7.7c-1.2-1.4-3.2-1.4-4.4 0l-6.9 7.7h18.2z"/>
    </g>
    <g id="ic_motto">
      <path class="st6" d="M350.1 180.9c2.3 4.7 10.6 6 13.4 5.9 1.4 0 2.7-.3 3.9-.8-.1.4-.3.9-.5 1.3-1.2 2.6-3.4 4.6-6.2 5.4.9 2.8 2.9 3.8 5.1 4.7-2.4.8-18.3 2.1-28.5-8.5m-47.5-8c-2.3 4.7-10.6 6-13.4 5.9-1.4 0-2.7-.3-3.9-.8.1.4.3.9.5 1.3 1.2 2.6 3.5 4.6 6.2 5.4-.9 2.8-2.9 3.8-5.1 4.7 2.4.8 18.3 2.1 28.5-8.5"/>
      <path class="st7" d="M339 186.2l-1.6 2.8s1.9.5 3.9 1 2.9.1 4.3-1.4c1.6-1.9 3.4-4.6 3.4-4.6.7-1 1.1-2.3 1.1-3.6 0-3.2-2.3-5.8-5.2-6.4h-.1c-8-1.5-16.2-2.2-24.6-2.2h-.4c-8.4 0-16.6.8-24.6 2.2h-.1c-3 .6-5.2 3.2-5.2 6.4 0 1.3.4 2.6 1.1 3.6 0 0 1.8 2.7 3.4 4.6 1.4 1.5 2.3 1.9 4.3 1.4s3.9-1 3.9-1l-1.6-2.8-.2-.5-3.1.5c7.2-1.3 14.7-2 22.3-2h.4c7.6 0 15 .7 22.3 2l-3.1-.4-.6.4z"/>
      <path d="M300.7 183.1c-1.3.3-2.6-.2-3.1-2.2-.4-1.7.7-3 1.9-3.3 1.3-.3 2.6.2 3.1 2.2.4 1.7-.7 3-1.9 3.3zm-1-4.9c-.6.1-1 .6-.6 2.3s1 1.9 1.6 1.8c.6-.1 1-.6.6-2.3-.4-1.7-1.1-1.9-1.6-1.8zm10.6 3c-.9.5-2.1.6-3.1.2-.8-.4-1.4-1.2-1.5-2.1-.1-.8.1-1.7.7-2.3.8-.8 1.9-1 3-.9.2 0 .2.2.2.3 0 .3.1.7.1 1 0 .2-.2.1-.3.1s-.3 0-.3-.2c-.1-.2-.1-.5-.4-.6-.4-.1-.8 0-1.1.2-.5.3-.7 1-.6 1.6 0 .7.3 1.6 1 2 .6.4 1.4.3 2.1-.1.2 0 .2.2.2.3-.1.3.1.4 0 .5zm7.4-.5c0 .2-.2.1-.3.2-1.3.1-2.6.1-3.9.2-.2 0-.1-.2-.1-.3 0-.2.2-.2.3-.2s.3 0 .3-.2c0-.4 0-.7-.1-1.1-.1-.9-.1-1.8-.2-2.7 0-.2-.2-.2-.3-.2s-.3 0-.3-.2c0-.1-.1-.3.1-.3.4 0 .8 0 1.2-.1.9-.1 1.9-.1 2.8-.2.2 0 .1.2.1.4v.9c-.1.1-.2.1-.3.1-.2 0-.2-.1-.2-.2 0-.2-.1-.4-.4-.3-.4 0-.9 0-1.3.1-.1.1 0 .2 0 .3 0 .4 0 .7.1 1.1.1.1.2 0 .3 0 .5 0 1.1-.1 1.6-.1.1.1.1.2.1.3s.1.3 0 .3c-.4 0-.9 0-1.3.1h-.5c-.1.1 0 .2 0 .3 0 .4 0 .8.1 1.3 0 .2.3.2.4.2.4 0 .8 0 1.1-.1.2 0 .2-.2.3-.4 0-.1.1-.3.2-.2.1 0 .3-.1.3.1-.1.2-.1.6-.1.9zm8.9.2c-.8 0-1.5 0-2.3-.1-.2 0-.1-.2-.1-.4s.2-.1.4-.2c.2 0 .3-.2.2-.3-.1-.2-.1-.4-.2-.6-.1-.1-.3 0-.4 0h-1.6c-.1 0-.1.2-.2.3-.1.2-.2.3-.1.5.1.1.3.1.4.1.2 0 .2.1.2.3s-.1.3-.3.2h-1.8c-.2 0-.1-.2-.1-.4s.2-.1.3-.2c.2-.1.2-.3.3-.5.6-1.4 1.3-2.9 1.9-4.3h1.2c.1.2.2.5.3.7.5 1.3.9 2.7 1.4 4 .1.2.3.2.5.3.2.3.2.5 0 .6.1 0 0 0 0 0zm-2.7-3.9c-.1-.2-.1-.5-.2-.8-.1.6-.4 1.1-.6 1.7-.1.2-.2.4-.2.6.1.1.2 0 .3.1h1.2c0-.1 0-.2-.1-.3-.1-.4-.3-.8-.4-1.3zm11.6-.1h-.5c-.2.1-.1.4-.2.6-.2 1.4-.3 2.8-.5 4.1-.1.1-.2 0-.3 0-.2 0-.3 0-.5-.1l-.9-1.5c-.4-.7-.9-1.5-1.3-2.2-.1-.3-.1-.1-.1.1-.1.8-.2 1.7-.3 2.5 0 .2.2.2.3.3.1 0 .4 0 .3.2 0 .1 0 .4-.2.3-.7-.1-1.4-.1-2.1-.2-.1-.1 0-.3 0-.4.2-.1.4 0 .6-.1.1-.2.1-.4.1-.6.1-1.1.3-2.2.4-3.3 0-.2-.2-.2-.3-.3-.1 0-.3-.1-.2-.3 0-.2.1-.3.3-.2.5.1 1.1.1 1.6.2.2.1.2.3.4.5.5.9 1 1.8 1.4 2.6.1.2.1.3.1.1.1-.7.2-1.4.2-2.2 0-.2-.2-.2-.3-.3-.1 0-.4 0-.3-.2 0-.1 0-.4.2-.3.7.1 1.4.1 2.1.2.2 0 .1.3.1.4 0 0 0 .1-.1.1zm4.9 5.8c-1.3-.2-2.3-1.2-1.9-3.2.4-1.8 1.9-2.5 3.1-2.3 1.3.2 2.3 1.2 1.9 3.2-.4 1.8-1.9 2.6-3.1 2.3zm.9-4.8c-.6-.1-1.2.2-1.5 1.9s.2 2.2.8 2.3c.6.1 1.2-.2 1.5-1.9.3-1.8-.2-2.2-.8-2.3z"/>
    </g>
    <g id="ic_dog">
      <path class="st8" d="M266.7 272.5c3.1 1.2 5.6 3.5 7.4 6.4v.1c.3.6.5 1.3.5 2.1 0 1.1-.4 2.1-1.1 2.8-.8.9-1.3 2.1-1.3 3.4 0 2.4 1.6 4.4 3.7 4.8 2.5.5 4.4 2.9 4.4 5.7h-5.4c-1.2 0-2.4-.7-3.1-2.1-1-2.4-3.5-6.5-5.7-7.6.1-.4.8-1.5.8-1.9 0-3.3-2.1-3.2-5.1-4l-1-.2s.6-2.3 2-4.8 3.9-4.7 3.9-4.7z"/>
      <path d="M280.3 298.3h-5.4c-1.5 0-2.8-.9-3.5-2.4-1-2.5-3.5-6.4-5.5-7.4-.2-.1-.3-.3-.3-.6.1-.2.2-.5.4-.9.1-.3.4-.8.4-.9 0-2.4-1.1-2.7-3.4-3.2-.4-.1-.9-.2-1.3-.3l-1-.2c-.1 0-.3-.1-.3-.2-.1-.1-.1-.3-.1-.4s.6-2.4 2-4.9 3.9-4.7 4-4.8c.1-.1.3-.2.5-.1 3.1 1.2 5.7 3.5 7.6 6.6 0 .1.1.2.1.2.3.7.5 1.4.5 2.2 0 1.2-.4 2.3-1.2 3.2-.7.8-1.2 1.9-1.2 3 0 2.1 1.4 3.9 3.3 4.3 2.8.6 4.8 3.2 4.8 6.2.1.4-.1.6-.4.6zm-13.6-10.4c2.2 1.4 4.5 5.2 5.5 7.6.6 1.1 1.5 1.8 2.6 1.8h4.9c-.2-2.3-1.8-4.3-4-4.7-2.4-.5-4.1-2.7-4.1-5.3 0-1.4.5-2.7 1.4-3.7.6-.6 1-1.5 1-2.5 0-.7-.2-1.3-.4-1.9 0-.1 0-.1-.1-.2-1.8-2.8-4.1-4.8-6.8-6-.6.6-2.5 2.4-3.6 4.4-1 1.7-1.5 3.4-1.8 4.2l.5.1c.5.1.9.2 1.3.3 2.3.5 4.2 1 4.2 4.2 0 .3-.2.7-.5 1.4 0 .1 0 .2-.1.3z"/>
      <path class="st8" d="M279.3 238.4l7.7-12c.7-1.1 1.9-1.8 3.3-1.8 2.2 0 4 1.9 4 4.3h-4l-3.2 6.1-2.1 9.1-1.2 1.7-.1.2"/>
      <path d="M283.7 246.5c-.1 0-.2 0-.2-.1-.2-.1-.3-.4-.2-.7l.1-.2 1.2-1.7 2.1-9v-.1l3.2-6.1c.1-.2.3-.3.4-.3h3.5c-.2-1.9-1.7-3.3-3.5-3.3-1.2 0-2.2.6-2.9 1.6l-7.7 12c-.1.2-.5.3-.7.2-.2-.1-.3-.5-.2-.7l7.7-12c.8-1.3 2.2-2 3.7-2 2.5 0 4.5 2.2 4.5 4.8 0 .3-.2.5-.5.5h-3.7l-3 5.8-2.1 9c0 .1 0 .1-.1.2l-1.3 1.8c.1.2-.1.3-.3.3z"/>
      <path class="st8" d="M249.2 280.1c-.1.6-.1 1.2-.1 1.8 0 .8.1 1.5.2 2.2v.1c0 .3.1.6.1.9 0 2.8-1.6 5.1-3.9 6 0 .4-.1.8-.1 1.3 0 2.6.8 5 2.1 6.9l.1.1c1.1 1.6 1.8 3.4 2.2 5.4s2 2.8 3.2 2.8h6.4c0-3.2-2.4-5.8-5.4-5.8-1.2-1.3-1.9-3.1-1.9-5 0-3 1.7-5.6 4.2-6.6 2.9-1.3 5-4.3 5-7.9v-.1c2.5-7.7 7.9-13.9 14.8-17.3 5-2.3 8.6-7.7 8.6-14 0-4.8-2.1-9.1-5.4-11.9v-7c.7-.6 1.3-1.1 3-2.4 2.3-1.8 3.8-3 4.3-5.7.3-1.7 1.2-7.3-1-7-2.2.3-5.5 1.7-5.5 1.7-1.3-.6-1.6-1.3-3.1-1.3-1 0-2.8.5-3.7.8-4.9 1.3-8.6 6.1-8.6 11.8l.1 13.4c0 9.7-4.6 18.3-11.6 23.3-3 2.1-5.1 5.3-6 9.1v.1c-.4 1.7-1.9 2.7-3.2 2.7-1.3 0-2.6-.5-3.6-1.6-2-2.1-2-5.5 0-7.7.7-.7.7-1.9 0-2.6-.7-.7-1.8-.7-2.4 0-3.3 3.5-3.3 9.3 0 12.8 2.9 3.5 7.9 3.7 11.2.7.2-1.7.6-3.3 1.3-4.7-.7 1.4-1.1 3-1.3 4.7"/>
      <path d="M259.4 308.1H253c-1.5 0-3.2-1-3.7-3.2-.4-2-1.1-3.7-2.1-5.2-1.5-2.1-2.2-4.7-2.2-7.3 0-.3 0-.5.1-.8v-.5c0-.2.1-.4.3-.5 2.2-.9 3.6-3 3.6-5.5v-.4c0-.2-.1-.4-.1-.5-.1-.7-.2-1.5-.2-2.3v-.7c-1.6 1.1-3.4 1.6-5.3 1.5-2.2-.2-4.2-1.2-5.7-3-3.5-3.7-3.5-9.7 0-13.5.4-.4.9-.7 1.4-.7.6 0 1.2.2 1.7.7.4.4.7 1 .7 1.7 0 .6-.2 1.2-.7 1.7-1.8 2-1.8 5.1 0 7 .9.9 2 1.4 3.2 1.4 1 0 2.3-.8 2.7-2.3v-.1c.9-3.9 3.1-7.2 6.2-9.4 7.1-5.1 11.4-13.7 11.4-22.9l-.1-13.4c0-5.8 3.7-10.9 9-12.3.9-.3 2.7-.8 3.8-.8s1.7.4 2.3.8c.2.2.5.3.8.5.8-.3 3.5-1.4 5.4-1.6.5-.1.9.1 1.3.4.9.9 1 3.3.3 7.2-.5 2.9-2.2 4.2-4.5 6-1.6 1.2-2.2 1.7-2.8 2.2v6.5c3.4 3 5.4 7.4 5.4 12.1 0 6.3-3.5 12-8.9 14.5-6.8 3.3-12.1 9.5-14.5 16.9 0 3.6-2.1 6.9-5.3 8.4-2.3.9-3.9 3.4-3.9 6.1 0 1.7.6 3.3 1.6 4.5 3.1.1 5.7 2.9 5.7 6.3 0 .3-.2.5-.5.5zM246 291.4v.3c0 .2-.1.4-.1.7 0 2.4.7 4.7 2 6.6 1.2 1.7 1.9 3.5 2.3 5.7.3 1.6 1.6 2.4 2.7 2.4h5.9c-.2-2.7-2.3-4.8-4.9-4.8-.1 0-.3-.1-.4-.2-1.3-1.4-2-3.3-2-5.3 0-3.1 1.8-6 4.5-7.1 2.8-1.3 4.7-4.2 4.7-7.4v-.3c2.5-7.7 8-14.1 15.1-17.6 5.1-2.3 8.3-7.6 8.3-13.6 0-4.5-1.9-8.7-5.2-11.5-.1-.1-.2-.2-.2-.4v-7c0-.1.1-.3.2-.4.7-.6 1.3-1.1 3-2.4 2.2-1.7 3.6-2.8 4.1-5.4.9-4.9.2-6.1 0-6.3-.1-.1-.2-.2-.4-.1-2.1.3-5.3 1.7-5.4 1.7-.1.1-.3.1-.4 0-.5-.2-.8-.4-1.1-.6-.6-.4-.9-.6-1.8-.6s-2.6.5-3.5.8c-4.9 1.3-8.3 5.9-8.3 11.3l.1 13.4c0 9.6-4.4 18.4-11.8 23.7-2.9 2-4.9 5.1-5.8 8.8v.1c-.5 2-2.3 3.1-3.7 3.1-1.5 0-2.9-.6-4-1.8-2.2-2.3-2.2-6 0-8.4.3-.3.4-.6.4-1s-.1-.7-.4-.9c-.3-.3-.6-.4-.9-.4s-.6.1-.7.3c-3.1 3.3-3.1 8.8 0 12.1 1.3 1.6 3.1 2.5 5 2.6s3.8-.5 5.4-1.8c.2-1.8.7-3.4 1.3-4.7.1-.2.4-.3.7-.2.2.1.3.3.3.4s0 .2-.1.2c-.6 1.3-1 2.7-1.3 4.5-.1.6-.1 1.1-.1 1.7 0 .8.1 1.4.2 2.1v.6c0 .2.1.4.1.5.1 3.1-1.4 5.6-3.8 6.6z"/>
      <path class="st8" d="M278.1 248.7c3.3 1.9 7.1 0 8.9-3.2.6-1.1.3-2.9.7-4v-.1c.4-1.2 1.5-2 2.7-2v9s-.8.9-2.9 3.1-4.4 5.4-6.8 4.7c-2.4-.7-10.4-2.7-10.4-2.7"/>
      <path d="M281.4 256.8c-.3 0-.5 0-.8-.1-2.4-.7-10.3-2.7-10.4-2.7-.3-.1-.4-.3-.4-.6.1-.3.3-.4.6-.4.1 0 8 2 10.4 2.7 1.7.5 3.5-1.5 5.2-3.4.4-.4.7-.8 1.1-1.1 1.6-1.7 2.5-2.6 2.8-2.9V240c-.8.2-1.4.7-1.7 1.5v.2c-.2.4-.2 1-.2 1.6-.1.9-.1 1.8-.5 2.5-1.1 2-2.9 3.4-4.9 4-1.6.4-3.3.2-4.7-.6-.2-.1-.3-.4-.2-.7.1-.2.4-.3.7-.2 1.2.7 2.6.9 3.9.5 1.7-.5 3.3-1.8 4.3-3.5.3-.5.3-1.3.4-2 0-.6.1-1.3.3-1.8v-.2c.5-1.4 1.7-2.3 3.2-2.3.3 0 .5.2.5.5v9c0 .1 0 .2-.1.3 0 0-.8.9-2.9 3.1-.3.4-.7.7-1 1.1-1.8 1.8-3.6 3.8-5.6 3.8z"/>
      <path class="st8" d="M268.1 225.9s-.8 2.5.3 5.1c.8 1.8 2.4 2.8 4.2 2.8 1-1.4 1.3-3.5.5-5.2-.1-.2-1.9-4.1-1.9-4.1"/>
      <path d="M272.6 234.3c-2.1 0-3.8-1.2-4.7-3.1-1.2-2.7-.4-5.3-.3-5.5.1-.3.4-.4.6-.3.3.1.4.4.3.6 0 0-.7 2.4.3 4.8.7 1.5 1.9 2.4 3.5 2.5.8-1.3 1-3.1.3-4.5-.1-.2-1.7-3.7-1.9-4.1-.1-.3 0-.5.2-.7.3-.1.5 0 .7.2.7 1.6 1.8 3.9 1.9 4.1.8 1.8.6 4.1-.5 5.7-.1.2-.2.3-.4.3zm5.5-12.1c-.5.2-1 .3-1.5.2.3-.4.7-.8 1.2-1l.3.8z"/>
      <path d="M277 222.9h-.5l-.8-.2.5-.6c.4-.6.9-1 1.4-1.2l.5-.2.7 1.7-.5.2c-.5.2-.9.3-1.3.3zm6.2-5.8c0 2 1.5 3.6 3.4 3.6v-2.3c0-1-.3-1.4-1.2-1.3h-2.2z"/>
      <path d="M286.6 221.2c-2.2 0-3.9-1.8-3.9-4.1 0-.3.2-.5.5-.5h2.2c.5-.1.9 0 1.2.3.4.4.5 1 .5 1.5v2.3c0 .3-.2.5-.5.5zm-2.9-3.6c.2 1.3 1.1 2.3 2.4 2.6v-1.8c0-.5-.1-.7-.2-.7-.1-.1-.2-.1-.5-.1h-1.7zm2.7 5.6s-2.3 2.4-5.1 3.2m0 .5c-.2 0-.4-.1-.5-.4-.1-.3.1-.5.3-.6 2.6-.8 4.9-3 4.9-3.1.2-.2.5-.2.7 0 .2.2.2.5 0 .7-.1.1-2.4 2.5-5.3 3.3 0 .1-.1.1-.1.1z"/>
      <path class="st6" d="M264.5 235.5c2.1.8 4.4 1.2 6.8 1.2 2.7 0 5.2-.5 7.6-1.5v3.7c-2.4.9-4.9 1.5-7.6 1.5-2.4 0-4.7-.4-6.8-1.2v-3.7z"/>
      <path d="M271.3 240.9c-2.5 0-4.8-.4-7-1.2-.2-.1-.3-.3-.3-.5v-3.7c0-.2.1-.3.2-.4.1-.1.3-.1.5-.1 2 .8 4.3 1.2 6.6 1.2 2.6 0 5-.5 7.4-1.5.2-.1.3 0 .5 0 .1.1.2.2.2.4v3.7c0 .2-.1.4-.3.5-2.8 1.1-5.3 1.6-7.8 1.6zm-6.3-2c1.9.7 4.1 1 6.3 1 2.3 0 4.6-.4 7.1-1.3V236c-2.3.8-4.6 1.3-7.1 1.3-2.2 0-4.3-.3-6.3-1v2.6z"/>
      <ellipse cx="267.1" cy="238.1" rx="1.1" ry="1.2"/>
      <ellipse cx="271.8" cy="238.5" rx="1.1" ry="1.2"/>
      <ellipse cx="276.4" cy="237.9" rx="1.1" ry="1.2"/>
    </g>
    <g transform="matrix(-1 0 0 1 750.164 0)">
      <g id="ic_dog_1_">
        <path class="st8" d="M376.9 272.5s-2.5 2.2-3.9 4.7-2 4.8-2 4.8l1 .2c3 .8 5.1.7 5.1 4 0 .4-.7 1.5-.8 1.9 2.2 1.1 4.7 5.2 5.7 7.6.7 1.4 1.9 2.1 3.1 2.1h5.4c0-2.8-1.9-5.2-4.4-5.7-2.1-.4-3.7-2.4-3.7-4.8 0-1.3.5-2.5 1.3-3.4.7-.7 1.1-1.7 1.1-2.8 0-.8-.2-1.5-.5-2.1v-.1c-1.8-2.9-4.3-5.2-7.4-6.4z"/>
        <path d="M391.1 297.8c0-3.1-2.1-5.7-4.9-6.3-1.9-.4-3.2-2.1-3.2-4.2 0-1.1.4-2.2 1.1-3 .8-.8 1.3-2 1.3-3.2 0-.8-.2-1.5-.5-2.2 0-.1 0-.2-.1-.3-2-3.2-4.6-5.5-7.7-6.6-.2-.1-.4 0-.6.1-.1.1-2.6 2.3-4 4.9-1.4 2.5-2 4.8-2.1 4.9 0 .2 0 .3.1.5.1.1.2.2.4.3l1 .2c.5.1.9.2 1.3.3 2.3.5 3.3.8 3.3 3.1 0 .1-.3.6-.4.9-.2.4-.3.7-.4.9-.1.3.1.6.3.7 2 1 4.4 4.9 5.4 7.3.8 1.5 2.1 2.4 3.6 2.4h5.4c.4-.1.7-.4.7-.7zm-13.9-10.2c.3-.6.5-1.1.5-1.4 0-3.3-2-3.7-4.3-4.3-.4-.1-.8-.2-1.3-.3l-.3-.1c.3-.8.8-2.4 1.8-4 1.1-1.9 2.8-3.7 3.5-4.3 2.6 1.1 4.9 3.1 6.7 5.9 0 .1 0 .1.1.2.3.6.4 1.2.4 1.8 0 .9-.3 1.8-.9 2.4-.9 1.1-1.5 2.4-1.5 3.8 0 2.7 1.8 4.9 4.2 5.4 2 .4 3.6 2.3 3.9 4.5h-4.8c-1 0-2-.7-2.5-1.7-1-2.4-3.3-6.2-5.5-7.6-.1-.1-.1-.2 0-.3z"/>
        <path class="st8" d="M393.9 246l.1-.2 1.2-1.7 2.1-9.1 3.2-6.1h4c0-2.4-1.8-4.3-4-4.3-1.4 0-2.6.7-3.3 1.8l-7.7 12"/>
        <path d="M393.9 246.6c-.1 0-.2 0-.3-.1-.3-.1-.4-.5-.3-.8l.1-.2 1.2-1.7 2.1-9c0-.1 0-.1.1-.1l3.2-6.1c.1-.2.3-.3.5-.3h3.4c-.3-1.8-1.7-3.1-3.4-3.1-1.2 0-2.2.6-2.8 1.5l-7.7 12c-.2.3-.6.4-.8.2-.3-.2-.4-.6-.2-.8l7.7-12c.8-1.3 2.3-2.1 3.8-2.1 2.5 0 4.6 2.2 4.6 4.9 0 .3-.3.6-.6.6h-3.6l-3 5.7-2.1 9c0 .1 0 .1-.1.2l-1.3 1.8c-.1.3-.3.4-.5.4z"/>
        <path class="st8" d="M359.4 280.1c.2-1.7.6-3.3 1.3-4.7-.7 1.4-1.1 3-1.3 4.7-3.3 3-8.3 2.8-11.2-.7-3.3-3.5-3.3-9.3 0-12.8.6-.7 1.7-.7 2.4 0s.7 1.9 0 2.6c-2 2.2-2 5.6 0 7.7 1 1.1 2.3 1.6 3.6 1.6 1.3 0 2.8-1 3.2-2.7v-.1c.9-3.8 3-7 6-9.1 7-5 11.6-13.6 11.6-23.3l-.1-13.4c0-5.7 3.7-10.5 8.6-11.8.9-.3 2.7-.8 3.7-.8 1.5 0 1.8.7 3.1 1.3 0 0 3.3-1.4 5.5-1.7s1.3 5.3 1 7c-.5 2.7-2 3.9-4.3 5.7-1.7 1.3-2.3 1.8-3 2.4v7c3.3 2.8 5.4 7.1 5.4 11.9 0 6.3-3.6 11.7-8.6 14-6.9 3.4-12.3 9.6-14.8 17.3v.1c0 3.6-2.1 6.6-5 7.9-2.5 1-4.2 3.6-4.2 6.6 0 1.9.7 3.7 1.9 5 3 0 5.4 2.6 5.4 5.8h-6.4c-1.2 0-2.8-.8-3.2-2.8-.4-2-1.1-3.8-2.2-5.4l-.1-.1c-1.3-1.9-2.1-4.3-2.1-6.9 0-.5.1-.9.1-1.3 2.3-.9 3.9-3.2 3.9-6 0-.3-.1-.6-.1-.9v-.1c-.1-.7-.2-1.4-.2-2.2 0-.6 0-1.2.1-1.8"/>
        <path d="M370.2 307.6c0-3.4-2.5-6.2-5.7-6.4-1-1.2-1.6-2.8-1.6-4.4 0-2.7 1.5-5.1 3.8-6 3.3-1.5 5.4-4.8 5.4-8.5 2.4-7.4 7.7-13.5 14.4-16.8 5.4-2.5 9-8.2 9-14.5 0-4.7-2-9.2-5.4-12.2v-6.4c.6-.5 1.2-1 2.8-2.2 2.3-1.8 4-3.1 4.5-6.1 1-5.8 0-6.9-.3-7.2-.4-.4-.8-.5-1.4-.5-1.9.3-4.6 1.3-5.4 1.6-.3-.1-.5-.3-.7-.5-.6-.4-1.2-.8-2.4-.8-1.1 0-3 .5-3.9.8-5.3 1.4-9 6.5-9 12.4l.1 13.4c0 9.2-4.2 17.7-11.3 22.8-3.1 2.2-5.3 5.5-6.2 9.5v.1c-.4 1.4-1.6 2.2-2.6 2.2-1.2 0-2.3-.5-3.2-1.4-1.8-1.9-1.8-4.9 0-6.9.4-.4.7-1.1.7-1.7 0-.7-.3-1.3-.7-1.7-.5-.5-1.1-.7-1.8-.7-.6 0-1.1.3-1.5.7-3.5 3.8-3.5 9.9 0 13.6 1.5 1.8 3.5 2.8 5.8 3 1.9.1 3.7-.4 5.2-1.4v.5c0 .8.1 1.6.2 2.3 0 .2 0 .4.1.5v.4c0 2.5-1.4 4.6-3.5 5.4-.2.1-.4.3-.4.6v.5c0 .2-.1.5-.1.8 0 2.6.8 5.2 2.2 7.2 0 0 0 .1.1.1l.1.1c1 1.5 1.7 3.1 2.1 5.1.5 2.3 2.3 3.3 3.8 3.3h6.4c.1 0 .4-.3.4-.6zm-14-15.2v-.9c2.4-1.1 3.9-3.6 3.9-6.4 0-.2 0-.4-.1-.5v-.6c-.1-.7-.2-1.4-.2-2.1 0-.6 0-1.1.1-1.7.2-1.8.6-3.2 1.2-4.5 0-.1.1-.2.1-.3 0-.2-.1-.4-.3-.5-.3-.1-.7 0-.8.3-.7 1.3-1.1 2.9-1.3 4.7-1.5 1.3-3.3 1.9-5.2 1.8-1.9-.1-3.7-1-4.9-2.6-3.1-3.2-3.1-8.7 0-12 .2-.2.4-.3.7-.3.3 0 .6.1.9.3.2.2.3.5.3.9 0 .3-.1.7-.4.9-2.2 2.4-2.2 6.2 0 8.5 1.1 1.2 2.5 1.8 4 1.8s3.3-1.1 3.8-3.2v-.1c.9-3.6 2.9-6.7 5.7-8.7 7.4-5.3 11.9-14.2 11.9-23.8l-.1-13.4c0-5.2 3.4-10 8.2-11.2.9-.3 2.6-.8 3.5-.8.8 0 1.2.2 1.7.6.3.2.7.4 1.1.7.2.1.3.1.5 0 0 0 3.3-1.4 5.3-1.7.2 0 .3 0 .3.1.4.5.7 2.3 0 6.2-.5 2.5-1.9 3.6-4.1 5.3-1.7 1.3-2.3 1.8-3 2.4-.1.1-.2.3-.2.5v7c0 .2.1.3.2.5 3.3 2.8 5.2 7 5.2 11.4 0 5.9-3.2 11.1-8.3 13.5-7.1 3.5-12.6 9.9-15.1 17.7v.3c0 3.2-1.8 6.1-4.6 7.3-2.7 1.1-4.6 4-4.6 7.2 0 2 .8 4 2.1 5.4.1.1.3.2.4.2 2.5 0 4.5 2 4.8 4.6h-5.8c-.8 0-2.2-.5-2.6-2.3-.4-2.2-1.2-4-2.3-5.6 0 0 0-.1-.1-.1l-.1-.1c-1.1-2.1-1.8-4.4-1.8-6.7z"/>
        <path class="st8" d="M380.5 253.5s8 2 10.4 2.7 4.7-2.5 6.8-4.7 2.9-3.1 2.9-3.1v-9c-1.2 0-2.3.8-2.7 2v.1c-.4 1.1-.1 2.9-.7 4-1.8 3.2-5.6 5.1-8.9 3.2"/>
        <path d="M391.6 256.9c-.3 0-.6 0-.9-.1-2.4-.7-10.3-2.7-10.4-2.7-.3-.1-.5-.4-.4-.7.1-.3.4-.5.7-.4.3.1 8 2 10.4 2.7 1.7.5 3.4-1.5 5.1-3.4.4-.4.7-.8 1.1-1.1 1.6-1.6 2.4-2.6 2.7-2.9v-8.1c-.7.2-1.2.7-1.5 1.4v.2c-.1.4-.2 1-.2 1.6-.1.9-.1 1.8-.5 2.5-1.1 2-2.9 3.5-5 4-1.7.5-3.3.2-4.8-.6-.3-.2-.4-.5-.2-.8.2-.3.5-.4.8-.2 1.2.7 2.5.9 3.9.5 1.7-.5 3.3-1.8 4.2-3.5.3-.5.3-1.3.4-2 0-.6.1-1.3.3-1.8v-.2c.5-1.4 1.8-2.4 3.3-2.4.3 0 .6.3.6.6v9c0 .1-.1.3-.2.4 0 0-.8.9-2.9 3.1-.3.4-.7.7-1 1.1-1.6 1.8-3.5 3.8-5.5 3.8z"/>
        <path class="st8" d="M381.4 224.5s1.8 3.9 1.9 4.1c.8 1.7.5 3.8-.5 5.2-1.8 0-3.4-1-4.2-2.8-1.1-2.6-.3-5.1-.3-5.1"/>
        <path d="M382.8 234.4c-2.1 0-3.9-1.2-4.8-3.2-1.2-2.8-.4-5.4-.3-5.5.1-.3.4-.5.8-.4.3.1.5.4.4.8 0 0-.7 2.3.3 4.7.6 1.4 1.9 2.3 3.3 2.4.8-1.3.9-3 .3-4.3-.1-.2-1.9-4.1-1.9-4.1l1.1-.5s1.8 3.9 1.9 4.1c.9 1.8.6 4.2-.5 5.8-.2.1-.4.2-.6.2zm5.2-13c-.5.2-.9.6-1.2 1 .5.1 1 0 1.5-.2l-.3-.8z"/>
        <path d="M387.2 223c-.2 0-.3 0-.5-.1l-.9-.2.6-.8c.4-.6.9-1 1.5-1.2l.6-.2.7 1.9-.5.2c-.7.3-1.1.4-1.5.4zm6.2-5.9h2.2c.9-.1 1.2.3 1.2 1.3v2.3c-1.9 0-3.4-1.6-3.4-3.6z"/>
        <path d="M397.1 220.7v-2.3c0-.7-.1-1.1-.4-1.4-.3-.2-.6-.3-1.1-.3h-2.2c-.2 0-.3.1-.3.3 0 2.2 1.6 3.9 3.7 3.9.2.1.3 0 .3-.2zm-1.5-3.3c.3 0 .5 0 .6.1s.2.4.2.9v2c-1.5-.2-2.6-1.4-2.8-3h2zm-4.1 9c2.8-.8 5.1-3.2 5.1-3.2m-5.1 3.8c-.3 0-.5-.2-.6-.4-.1-.3.1-.7.4-.7 2.6-.7 4.8-3 4.8-3 .2-.2.6-.2.9 0s.2.6 0 .9c-.1.1-2.4 2.5-5.4 3.4 0-.2 0-.2-.1-.2z"/>
        <path class="st6" d="M374.7 235.5v3.7c2.1.8 4.4 1.2 6.8 1.2 2.7 0 5.2-.6 7.6-1.5v-3.7c-2.4 1-4.9 1.5-7.6 1.5-2.4 0-4.7-.4-6.8-1.2z"/>
        <path d="M389.2 239.2c.1 0 .2-.2.2-.3v-3.7c0-.1-.1-.2-.1-.3-.1-.1-.2-.1-.3 0-2.4 1-4.8 1.5-7.5 1.5-2.4 0-4.6-.4-6.7-1.2h-.3c-.1.1-.1.1-.1.2v3.7c0 .1.1.2.2.3 2.1.8 4.4 1.2 6.9 1.2 2.5.1 5-.4 7.7-1.4zm-14.2-3.3c2 .7 4.2 1.1 6.5 1.1 2.6 0 5-.4 7.3-1.4v3c-2.6.9-5 1.4-7.3 1.4s-4.5-.4-6.5-1.1v-3z"/>
      </g>
    </g>
  </g>
</svg>
