<svg id="icon_va_disabled_Layer_1" xmlns="http://www.w3.org/2000/svg" viewBox="0 0 30 30">
  <style>
    .icon_va_disabled_0{fill:#afafaf}.icon_va_disabled_1{fill:#c8c8c8}.icon_va_disabled_2{fill:#b9b9b9}.icon_va_disabled_3{fill:#7e7e81}
  </style>
  <path class="icon_va_disabled_0" d="M15 28.3v-9.7h11.2s-3.1 9.5-9.2 11.3c-.9.3-2-.5-2-1.6zM1.7 15h9.7V3.7S1.9 6.8.1 12.9c-.3 1 .5 2.1 1.6 2.1z"/>
  <path class="icon_va_disabled_1" d="M25.1 20.2c-4.2 4.2-11.1 4.2-15.3 0s-4.2-11 0-15.3C13.5 1.2 22.7.2 28 0c1.1 0 2 .9 2 2-.2 5.3-1.2 14.5-4.9 18.2z"/>
  <path class="icon_va_disabled_2" d="M30 2c0-.5-.2-1-.5-1.4L9.8 20.2c4.2 4.2 11.1 4.2 15.3 0C28.8 16.5 29.8 7.3 30 2zM.1 29.9s6.8-1.5 8.3-3 1.5-3.8 0-5.3-3.8-1.5-5.3 0-3 8.3-3 8.3z"/>
  <path class="icon_va_disabled_3" d="M22.5 17.4c-2.6 2.6-7.1 2.7-9.8 0-2.7-2.7-2.6-7.2 0-9.8l-.8-.8c-3.1 3.1-3.2 8.3 0 11.5 3.2 3.2 8.3 3.1 11.5 0l-.9-.9z"/>
  <ellipse transform="rotate(-45.001 21.8 13.646)" class="icon_va_disabled_3" cx="21.8" cy="13.6" rx="2.1" ry="1.5"/>
  <ellipse transform="rotate(-45.001 16.343 8.188)" class="icon_va_disabled_3" cx="16.3" cy="8.2" rx="2.1" ry="1.5"/>
</svg>
