<svg id="icon_ab_Layer_1" xmlns="http://www.w3.org/2000/svg" viewBox="0 0 32 32">
  <style>
    .icon_ab_0{fill:#e92020}.icon_ab_1{fill:#fff}
  </style>
  <path class="icon_ab_0" d="M16 0L3 5.9v8.7c0 4 1.3 7.7 3.7 11.1C9.1 29 12.3 31.1 16 32c3.7-1 6.8-3 9.3-6.4 2.4-3.3 3.7-7 3.7-11.1V5.9L16 0z"/>
  <path class="icon_ab_1" d="M24.9 12.9c-1.2-.2-2.3.4-2.8 1.6-.2.4-1.1 2.3-1.1 3.2V6.5c0-.9-.5-1.5-1.2-1.7-1.1-.3-1.9.5-1.9 1.7 0 2.6.1 5.1.1 7.7v.5h-.5V4.4c0-.9-.6-1.5-1.4-1.5s-1.5.6-1.6 1.4v10c0 .1-.1.1-.1.3-.1 0-.3-.1-.3-.1v-.8c0-2.6.1-5.2.1-7.7 0-.9-.5-1.5-1.3-1.6s-1.5.5-1.6 1.4v.7c0 2.6 0 5.3.1 7.9v.4c-.1 0-.1.1-.2.1V9.6c0-1-.6-1.6-1.5-1.6-.8 0-1.4.7-1.4 1.6v12.2c0 .5 0 1 .1 1.5.7 3.3 3.3 5.6 6.6 5.8 3.2.2 5.9-1.8 7-4.9 1.2-3.5 2.3-6.6 3.5-10.1.1-.1.1-.3.1-.4.1-.4-.1-.7-.7-.8zm-7.1 6.4c.6 0 1.1.7 1.1 1.5 0 .9-.5 1.5-1.1 1.5s-1.1-.7-1.1-1.5.5-1.5 1.1-1.5zm-5.1 0c.6 0 1.1.7 1.1 1.5s-.5 1.5-1.1 1.5-1.1-.7-1.1-1.5.5-1.5 1.1-1.5zm2.5 8.6c-2.9 0-5.3-2.3-5.3-5.3h.8c0 2 2 4.6 4.6 4.6 2.5 0 4.6-2.6 4.6-4.6h.8c-.1 3-2.5 5.3-5.5 5.3z"/>
</svg>
