<?xml version="1.0" encoding="UTF-8" standalone="no"?>
<svg
   xmlns:dc="http://purl.org/dc/elements/1.1/"
   xmlns:cc="http://creativecommons.org/ns#"
   xmlns:rdf="http://www.w3.org/1999/02/22-rdf-syntax-ns#"
   xmlns:svg="http://www.w3.org/2000/svg"
   xmlns="http://www.w3.org/2000/svg"
   xmlns:sodipodi="http://sodipodi.sourceforge.net/DTD/sodipodi-0.dtd"
   xmlns:inkscape="http://www.inkscape.org/namespaces/inkscape"
   viewBox="0 0 170 170"
   id="svg2"
   version="1.1"
   inkscape:version="0.91 r13725"
   sodipodi:docname="icon_ios.svg">
  <metadata
     id="metadata10">
    <rdf:RDF>
      <cc:Work
         rdf:about="">
        <dc:format>image/svg+xml</dc:format>
        <dc:type
           rdf:resource="http://purl.org/dc/dcmitype/StillImage" />
        <dc:title></dc:title>
      </cc:Work>
    </rdf:RDF>
  </metadata>
  <defs
     id="defs8" />
  <sodipodi:namedview
     pagecolor="#ffffff"
     bordercolor="#666666"
     borderopacity="1"
     objecttolerance="10"
     gridtolerance="10"
     guidetolerance="10"
     inkscape:pageopacity="0"
     inkscape:pageshadow="2"
     inkscape:window-width="845"
     inkscape:window-height="541"
     id="namedview6"
     showgrid="false"
     inkscape:zoom="1.3882353"
     inkscape:cx="85"
     inkscape:cy="85"
     inkscape:window-x="290"
     inkscape:window-y="258"
     inkscape:window-maximized="0"
     inkscape:current-layer="svg2" />
  <path
     d="m 151.05288,131.45716 c -2.51537,5.811 -5.49273,11.15999 -8.94237,16.07778 -4.70219,6.70421 -8.55223,11.3448 -11.51933,13.92176 -4.59952,4.22991 -9.52758,6.39621 -14.80471,6.51941 -3.78844,0 -8.35716,-1.07801 -13.67535,-3.26484 -5.335647,-2.17656 -10.239064,-3.25457 -14.722568,-3.25457 -4.702187,0 -9.745232,1.07801 -15.1394,3.25457 -5.402382,2.18683 -9.754472,3.32644 -13.081937,3.43937 -5.060497,0.21561 -10.104568,-2.01229 -15.139399,-6.69394 -3.213504,-2.80283 -7.23295,-7.60769 -12.048072,-14.41457 -5.166245,-7.26888 -9.413614,-15.69791 -12.741079,-25.30762 -3.563601,-10.37972 -5.350021,-20.4309 -5.350021,-30.161753 0,-11.146648 2.408588,-20.760465 7.232949,-28.81681 3.791524,-6.471154 8.835595,-11.575799 15.14864,-15.323176 6.313046,-3.747376 13.134297,-5.656998 20.480181,-5.779172 4.019446,0 9.290413,1.243307 15.840622,3.686802 6.531728,2.451708 10.725709,3.695015 12.56449,3.695015 1.374723,0 6.033789,-1.453776 13.932028,-4.352089 7.469076,-2.687844 13.772886,-3.800764 18.937076,-3.362372 13.99363,1.129346 24.50682,6.645689 31.4985,16.583936 -12.51521,7.583047 -18.70609,18.204035 -18.58288,31.829084 0.11293,10.612775 3.96297,19.444255 11.52959,26.456475 3.42911,3.25457 7.25862,5.76993 11.51934,7.55635 -0.92401,2.67963 -1.89936,5.24633 -2.9363,7.71036 z M 118.95891,5.1654478 c 0,8.3182512 -3.03897,16.0849702 -9.09637,23.2737732 -7.30995,8.546071 -16.151703,13.484394 -25.739852,12.705145 -0.122175,-0.997931 -0.193016,-2.048223 -0.193016,-3.151903 0,-7.985504 3.476333,-16.531575 9.649751,-23.519149 3.082088,-3.537934 7.001947,-6.4796749 11.755467,-8.826354 4.74325,-2.3116691 9.22984,-3.5900891 13.44948,-3.8089769 0.12321,1.1119954 0.17454,2.2240935 0.17454,3.3273621 z"
     id="path4"
     inkscape:connector-curvature="0" />
</svg>
