<?xml version="1.0" encoding="UTF-8" standalone="no"?>
<svg
   xmlns:dc="http://purl.org/dc/elements/1.1/"
   xmlns:cc="http://creativecommons.org/ns#"
   xmlns:rdf="http://www.w3.org/1999/02/22-rdf-syntax-ns#"
   xmlns:svg="http://www.w3.org/2000/svg"
   xmlns="http://www.w3.org/2000/svg"
   xmlns:sodipodi="http://sodipodi.sourceforge.net/DTD/sodipodi-0.dtd"
   xmlns:inkscape="http://www.inkscape.org/namespaces/inkscape"
   id="icon_android_Layer_1"
   viewBox="0 0 30 30"
   version="1.1"
   inkscape:version="0.91 r13725"
   sodipodi:docname="icon_android.svg"
   width="30"
   height="30">
  <metadata
     id="metadata11">
    <rdf:RDF>
      <cc:Work
         rdf:about="">
        <dc:format>image/svg+xml</dc:format>
        <dc:type
           rdf:resource="http://purl.org/dc/dcmitype/StillImage" />
        <dc:title></dc:title>
      </cc:Work>
    </rdf:RDF>
  </metadata>
  <defs
     id="defs9" />
  <sodipodi:namedview
     pagecolor="#ffffff"
     bordercolor="#666666"
     borderopacity="1"
     objecttolerance="10"
     gridtolerance="10"
     guidetolerance="10"
     inkscape:pageopacity="0"
     inkscape:pageshadow="2"
     inkscape:window-width="1631"
     inkscape:window-height="1026"
     id="namedview7"
     showgrid="false"
     inkscape:zoom="7.8666667"
     inkscape:cx="12"
     inkscape:cy="15"
     inkscape:window-x="49"
     inkscape:window-y="24"
     inkscape:window-maximized="1"
     inkscape:current-layer="icon_android_Layer_1" />
  <style
     id="style3">
    .icon_android_0{fill:#8cc63f}
  </style>
  <path
     class="icon_android_0"
     d="M 25.5,10 C 24.7,10 24,10.7 24,11.5 l 0,8 c 0,0.8 0.7,1.5 1.5,1.5 0.8,0 1.5,-0.7 1.5,-1.5 l 0,-8 C 27,10.7 26.3,10 25.5,10 Z m -21,0 C 3.7,10 3,10.7 3,11.5 l 0,8 C 3,20.3 3.7,21 4.5,21 5.3,21 6,20.3 6,19.5 l 0,-8 C 6,10.7 5.3,10 4.5,10 Z M 7,22 c 0,1.1 0.9,2 2,2 l 1,0 0,4 c 0,1.1 0.9,2 2,2 1.1,0 2,-0.9 2,-2 l 0,-4 2,0 0,4 c 0,1.1 0.9,2 2,2 1.1,0 2,-0.9 2,-2 l 0,-4 1,0 c 1.1,0 2,-0.9 2,-2 L 23,10 7,10 7,22 Z M 19.4,2.3 20.9,0.8 c 0.2,-0.2 0.2,-0.5 0,-0.7 -0.2,-0.2 -0.5,-0.2 -0.7,0 L 18.5,1.8 C 17.4,1.3 16.3,1 15,1 13.7,1 12.6,1.3 11.5,1.8 L 9.9,0.1 C 9.7,0 9.3,0 9.1,0.1 9,0.3 9,0.7 9.1,0.9 l 1.5,1.5 C 8.4,3.7 7,6.2 7,9 L 23,9 C 23,6.2 21.6,3.7 19.4,2.3 Z M 12,7 c -0.6,0 -1,-0.4 -1,-1 0,-0.6 0.4,-1 1,-1 0.6,0 1,0.4 1,1 0,0.6 -0.4,1 -1,1 z m 6,0 c -0.6,0 -1,-0.4 -1,-1 0,-0.6 0.4,-1 1,-1 0.6,0 1,0.4 1,1 0,0.6 -0.4,1 -1,1 z"
     id="path5"
     inkscape:connector-curvature="0"
     style="fill:#8cc63f" />
</svg>
