<svg id="icon_android_disabled_Layer_1" xmlns="http://www.w3.org/2000/svg" viewBox="0 0 24 30">
  <style>
    .icon_android_disabled_0{fill:#afafaf}
  </style>
  <path class="icon_android_disabled_0" d="M22.5 10c-.8 0-1.5.7-1.5 1.5v8c0 .8.7 1.5 1.5 1.5s1.5-.7 1.5-1.5v-8c0-.8-.7-1.5-1.5-1.5zm-21 0c-.8 0-1.5.7-1.5 1.5v8c0 .8.7 1.5 1.5 1.5S3 20.3 3 19.5v-8c0-.8-.7-1.5-1.5-1.5zM4 22c0 1.1.9 2 2 2h1v4c0 1.1.9 2 2 2s2-.9 2-2v-4h2v4c0 1.1.9 2 2 2s2-.9 2-2v-4h1c1.1 0 2-.9 2-2V10H4v12zM16.4 2.3L17.9.8c.2-.2.2-.5 0-.7-.2-.2-.5-.2-.7 0l-1.7 1.7C14.4 1.3 13.3 1 12 1s-2.4.3-3.5.8L6.9.1c-.2-.1-.6-.1-.8 0-.1.2-.1.6 0 .8l1.5 1.5C5.4 3.7 4 6.2 4 9h16c0-2.8-1.4-5.3-3.6-6.7zM9 7c-.6 0-1-.4-1-1s.4-1 1-1 1 .4 1 1-.4 1-1 1zm6 0c-.6 0-1-.4-1-1s.4-1 1-1 1 .4 1 1-.4 1-1 1z"/>
</svg>
