<svg xmlns="http://www.w3.org/2000/svg" width="1440" height="900"><path d="M805,417L700,328L780,520Z" fill="#f4f3f3" stroke="#f4f3f3" stroke-width="1.51"/><path d="M700,328L610,594L780,520Z" fill="#f4f4f4" stroke="#f4f4f4" stroke-width="1.51"/><path d="M700,328L435,269L610,594Z" fill="#fbe9df" stroke="#fbe9df" stroke-width="1.51"/><path d="M805,417L911,96L700,328Z" fill="#f4e6dd" stroke="#f4e6dd" stroke-width="1.51"/><path d="M780,520L1054,483L805,417Z" fill="#e6eef4" stroke="#e6eef4" stroke-width="1.51"/><path d="M849,779L1054,483L780,520Z" fill="#d8e8f1" stroke="#d8e8f1" stroke-width="1.51"/><path d="M1054,483L1054,392L805,417Z" fill="#dfe9ef" stroke="#dfe9ef" stroke-width="1.51"/><path d="M700,328L574,79L435,269Z" fill="#fcd6c2" stroke="#fcd6c2" stroke-width="1.51"/><path d="M610,594L849,779L780,520Z" fill="#e0ecf3" stroke="#e0ecf3" stroke-width="1.51"/><path d="M435,269L338,591L610,594Z" fill="#f7e1d6" stroke="#f7e1d6" stroke-width="1.51"/><path d="M610,594L678,829L849,779Z" fill="#d0e2ed" stroke="#d0e2ed" stroke-width="1.51"/><path d="M911,96L574,79L700,328Z" fill="#fad6c7" stroke="#fad6c7" stroke-width="1.51"/><path d="M434,792L678,829L610,594Z" fill="#d3d9dd" stroke="#d3d9dd" stroke-width="1.51"/><path d="M574,79L457,136L435,269Z" fill="#fbc5aa" stroke="#fbc5aa" stroke-width="1.51"/><path d="M435,269L254,543L338,591Z" fill="#f8d2c2" stroke="#f8d2c2" stroke-width="1.51"/><path d="M1054,392L911,96L805,417Z" fill="#e9e2de" stroke="#e9e2de" stroke-width="1.51"/><path d="M338,591L434,792L610,594Z" fill="#e2d6d1" stroke="#e2d6d1" stroke-width="1.51"/><path d="M338,591L243,716L434,792Z" fill="#dbc3bb" stroke="#dbc3bb" stroke-width="1.51"/><path d="M220,337L254,543L435,269Z" fill="#fac9b3" stroke="#fac9b3" stroke-width="1.51"/><path d="M878,897L1017,779L849,779Z" fill="#aed1e5" stroke="#aed1e5" stroke-width="1.51"/><path d="M849,779L1017,779L1054,483Z" fill="#c0dbea" stroke="#c0dbea" stroke-width="1.51"/><path d="M911,96L608,-31L574,79Z" fill="#f5bfae" stroke="#f5bfae" stroke-width="1.51"/><path d="M574,79L457,-75L457,136Z" fill="#f5b197" stroke="#f5b197" stroke-width="1.51"/><path d="M150,83L435,269L457,136Z" fill="#f8b394" stroke="#f8b394" stroke-width="1.51"/><path d="M150,83L220,337L435,269Z" fill="#f6b395" stroke="#f6b395" stroke-width="1.51"/><path d="M678,829L878,897L849,779Z" fill="#b5d3e5" stroke="#b5d3e5" stroke-width="1.51"/><path d="M612,987L878,897L678,829Z" fill="#afcce1" stroke="#afcce1" stroke-width="1.51"/><path d="M1054,392L1095,132L911,96Z" fill="#ddcdc8" stroke="#ddcdc8" stroke-width="1.51"/><path d="M1054,483L1179,350L1054,392Z" fill="#cedee7" stroke="#cedee7" stroke-width="1.51"/><path d="M1280,535L1179,350L1054,483Z" fill="#c1dae9" stroke="#c1dae9" stroke-width="1.51"/><path d="M911,96L828,-93L608,-31Z" fill="#edb3a5" stroke="#edb3a5" stroke-width="1.51"/><path d="M1179,350L1095,132L1054,392Z" fill="#d0d4d6" stroke="#d0d4d6" stroke-width="1.51"/><path d="M254,543L243,716L338,591Z" fill="#e7c2b5" stroke="#e7c2b5" stroke-width="1.51"/><path d="M4,603L243,716L254,543Z" fill="#e2b1a6" stroke="#e2b1a6" stroke-width="1.51"/><path d="M434,792L612,987L678,829Z" fill="#bbc8d4" stroke="#bbc8d4" stroke-width="1.51"/><path d="M446,1060L612,987L434,792Z" fill="#afb7c5" stroke="#afb7c5" stroke-width="1.51"/><path d="M992,-115L828,-93L911,96Z" fill="#e1a99f" stroke="#e1a99f" stroke-width="1.51"/><path d="M1226,755L1280,535L1054,483Z" fill="#aed1e5" stroke="#aed1e5" stroke-width="1.51"/><path d="M878,897L1027,903L1017,779Z" fill="#9dc6df" stroke="#9dc6df" stroke-width="1.51"/><path d="M1166,985L1027,903L993,1188Z" fill="#76a7d0" stroke="#76a7d0" stroke-width="1.51"/><path d="M608,-31L457,-75L574,79Z" fill="#f1aa93" stroke="#f1aa93" stroke-width="1.51"/><path d="M395,-239L457,-75L670,-338Z" fill="#df8474" stroke="#df8474" stroke-width="1.51"/><path d="M1179,350L1188,107L1095,132Z" fill="#cbc1c0" stroke="#cbc1c0" stroke-width="1.51"/><path d="M1226,755L1054,483L1017,779Z" fill="#afd3e6" stroke="#afd3e6" stroke-width="1.51"/><path d="M1095,132L992,-115L911,96Z" fill="#dbb2a9" stroke="#dbb2a9" stroke-width="1.51"/><path d="M1385,81L1188,107L1179,350Z" fill="#bdb3b7" stroke="#bdb3b7" stroke-width="1.51"/><path d="M1027,903L1226,755L1017,779Z" fill="#95c5de" stroke="#95c5de" stroke-width="1.51"/><path d="M1188,107L992,-115L1095,132Z" fill="#d0aca5" stroke="#d0aca5" stroke-width="1.51"/><path d="M828,-93L817,-214L608,-31Z" fill="#e7a297" stroke="#e7a297" stroke-width="1.51"/><path d="M220,337L4,603L254,543Z" fill="#eeb5a7" stroke="#eeb5a7" stroke-width="1.51"/><path d="M249,-119L150,83L457,136Z" fill="#ed9373" stroke="#ed9373" stroke-width="1.51"/><path d="M993,1188L1027,903L878,897Z" fill="#88b3d6" stroke="#88b3d6" stroke-width="1.51"/><path d="M173,999L446,1060L434,792Z" fill="#b0a4ac" stroke="#b0a4ac" stroke-width="1.51"/><path d="M992,-115L817,-214L828,-93Z" fill="#db9892" stroke="#db9892" stroke-width="1.51"/><path d="M173,999L412,1145L446,1060Z" fill="#a792a4" stroke="#a792a4" stroke-width="1.51"/><path d="M-99,273L4,603L220,337Z" fill="#eba294" stroke="#eba294" stroke-width="1.51"/><path d="M457,-75L249,-119L457,136Z" fill="#ec967b" stroke="#ec967b" stroke-width="1.51"/><path d="M395,-239L249,-119L457,-75Z" fill="#e07d68" stroke="#e07d68" stroke-width="1.51"/><path d="M1027,903L1166,985L1226,755Z" fill="#7fb7d7" stroke="#7fb7d7" stroke-width="1.51"/><path d="M801,1173L878,897L612,987Z" fill="#9cb9d8" stroke="#9cb9d8" stroke-width="1.51"/><path d="M446,1060L552,1160L612,987Z" fill="#a4a8c1" stroke="#a4a8c1" stroke-width="1.51"/><path d="M552,1160L801,1173L612,987Z" fill="#9daacc" stroke="#9daacc" stroke-width="1.51"/><path d="M670,-338L457,-75L608,-31Z" fill="#e69485" stroke="#e69485" stroke-width="1.51"/><path d="M150,83L-7,163L220,337Z" fill="#ec957b" stroke="#ec957b" stroke-width="1.51"/><path d="M-62,-82L-7,163L150,83Z" fill="#dc6f59" stroke="#dc6f59" stroke-width="1.51"/><path d="M4,603L-2,739L243,716Z" fill="#d39d98" stroke="#d39d98" stroke-width="1.51"/><path d="M446,1060L412,1145L552,1160Z" fill="#a19ab4" stroke="#a19ab4" stroke-width="1.51"/><path d="M-148,690L-2,739L4,603Z" fill="#cc8d8c" stroke="#cc8d8c" stroke-width="1.51"/><path d="M173,999L434,792L243,716Z" fill="#c4acaa" stroke="#c4acaa" stroke-width="1.51"/><path d="M-2,739L173,999L243,716Z" fill="#c19998" stroke="#c19998" stroke-width="1.51"/><path d="M817,-214L670,-338L608,-31Z" fill="#e3948c" stroke="#e3948c" stroke-width="1.51"/><path d="M1021,-375L670,-338L817,-214Z" fill="#c28384" stroke="#c28384" stroke-width="1.51"/><path d="M1503,267L1385,81L1179,350Z" fill="#adaebc" stroke="#adaebc" stroke-width="1.51"/><path d="M1413,751L1460,593L1280,535Z" fill="#8db7d8" stroke="#8db7d8" stroke-width="1.51"/><path d="M1413,751L1280,535L1226,755Z" fill="#8cbbd9" stroke="#8cbbd9" stroke-width="1.51"/><path d="M992,-115L1021,-375L817,-214Z" fill="#cb8786" stroke="#cb8786" stroke-width="1.51"/><path d="M1188,107L1327,-158L992,-115Z" fill="#c09292" stroke="#c09292" stroke-width="1.51"/><path d="M1503,267L1179,350L1280,535Z" fill="#adc2d6" stroke="#adc2d6" stroke-width="1.51"/><path d="M1166,985L1413,751L1226,755Z" fill="#73afd3" stroke="#73afd3" stroke-width="1.51"/><path d="M801,1173L993,1188L878,897Z" fill="#8baad1" stroke="#8baad1" stroke-width="1.51"/><path d="M1166,985L1417,1057L1413,751Z" fill="#4f99c7" stroke="#4f99c7" stroke-width="1.51"/><path d="M1188,1215L993,1188L149,1265Z" fill="#8897b9" stroke="#8897b9" stroke-width="1.51"/><path d="M-7,163L-99,273L220,337Z" fill="#e9947f" stroke="#e9947f" stroke-width="1.51"/><path d="M1460,593L1503,267L1280,535Z" fill="#a0bbd9" stroke="#a0bbd9" stroke-width="1.51"/><path d="M-2,739L-33,997L173,999Z" fill="#ac7e86" stroke="#ac7e86" stroke-width="1.51"/><path d="M-99,273L-165,566L4,603Z" fill="#df948d" stroke="#df948d" stroke-width="1.51"/><path d="M-165,566L-148,690L4,603Z" fill="#d28b89" stroke="#d28b89" stroke-width="1.51"/><path d="M1385,81L1327,-158L1188,107Z" fill="#b18f95" stroke="#b18f95" stroke-width="1.51"/><path d="M1443,-23L1327,-158L1385,81Z" fill="#a67e89" stroke="#a67e89" stroke-width="1.51"/><path d="M1273,-251L1021,-375L992,-115Z" fill="#b67b80" stroke="#b67b80" stroke-width="1.51"/><path d="M1668,183L1443,-23L1385,81Z" fill="#a58596" stroke="#a58596" stroke-width="1.51"/><path d="M1491,-276L1273,-251L1327,-158Z" fill="#986173" stroke="#986173" stroke-width="1.51"/><path d="M1327,-158L1273,-251L992,-115Z" fill="#b37c82" stroke="#b37c82" stroke-width="1.51"/><path d="M-162,896L-33,997L-2,739Z" fill="#ab757f" stroke="#ab757f" stroke-width="1.51"/><path d="M173,999L149,1265L412,1145Z" fill="#9e7a8f" stroke="#9e7a8f" stroke-width="1.51"/><path d="M993,1188L1188,1215L1166,985Z" fill="#6695c5" stroke="#6695c5" stroke-width="1.51"/><path d="M149,1265L993,1188L801,1173Z" fill="#9197b6" stroke="#9197b6" stroke-width="1.51"/><path d="M-99,273L-238,392L-165,566Z" fill="#d78984" stroke="#d78984" stroke-width="1.51"/><path d="M-7,163L-169,54L-99,273Z" fill="#db7361" stroke="#db7361" stroke-width="1.51"/><path d="M249,-119L-62,-82L150,83Z" fill="#d96852" stroke="#d96852" stroke-width="1.51"/><path d="M177,-345L-62,-82L249,-119Z" fill="#cb4f44" stroke="#cb4f44" stroke-width="1.51"/><path d="M177,-345L249,-119L395,-239Z" fill="#d16151" stroke="#d16151" stroke-width="1.51"/><path d="M-169,54L-238,392L-99,273Z" fill="#d3786b" stroke="#d3786b" stroke-width="1.51"/><path d="M-165,566L-238,392L-148,690Z" fill="#ca8786" stroke="#ca8786" stroke-width="1.51"/><path d="M670,-338L177,-345L395,-239Z" fill="#c66e62" stroke="#c66e62" stroke-width="1.51"/><path d="M1021,-375L177,-345L670,-338Z" fill="#bf7d7a" stroke="#bf7d7a" stroke-width="1.51"/><path d="M-62,-82L-169,54L-7,163Z" fill="#d25f4e" stroke="#d25f4e" stroke-width="1.51"/><path d="M1188,1215L1417,1057L1166,985Z" fill="#4e8cc0" stroke="#4e8cc0" stroke-width="1.51"/><path d="M1745,834L1721,554L1460,593Z" fill="#7594bd" stroke="#7594bd" stroke-width="1.51"/><path d="M1753,279L1668,183L1503,267Z" fill="#988da4" stroke="#988da4" stroke-width="1.51"/><path d="M-148,690L-162,896L-2,739Z" fill="#b97e82" stroke="#b97e82" stroke-width="1.51"/><path d="M-238,392L-162,896L-148,690Z" fill="#bd8083" stroke="#bd8083" stroke-width="1.51"/><path d="M-299,-268L-168,-29L-62,-82Z" fill="#b22f33" stroke="#b22f33" stroke-width="1.51"/><path d="M-62,-82L-168,-29L-169,54Z" fill="#c64940" stroke="#c64940" stroke-width="1.51"/><path d="M-169,54L-299,-268L-238,392Z" fill="#ba5449" stroke="#ba5449" stroke-width="1.51"/><path d="M552,1160L149,1265L801,1173Z" fill="#968fa8" stroke="#968fa8" stroke-width="1.51"/><path d="M412,1145L149,1265L552,1160Z" fill="#998195" stroke="#998195" stroke-width="1.51"/><path d="M-33,997L149,1265L173,999Z" fill="#9c6c80" stroke="#9c6c80" stroke-width="1.51"/><path d="M-96,1189L149,1265L-33,997Z" fill="#905670" stroke="#905670" stroke-width="1.51"/><path d="M1503,267L1668,183L1385,81Z" fill="#a593a8" stroke="#a593a8" stroke-width="1.51"/><path d="M1443,-23L1491,-276L1327,-158Z" fill="#9b6679" stroke="#9b6679" stroke-width="1.51"/><path d="M1721,554L1503,267L1460,593Z" fill="#96aad1" stroke="#96aad1" stroke-width="1.51"/><path d="M1745,834L1460,593L1413,751Z" fill="#709cca" stroke="#709cca" stroke-width="1.51"/><path d="M1721,554L1753,279L1503,267Z" fill="#9397b4" stroke="#9397b4" stroke-width="1.51"/><path d="M1680,-78L1443,-23L1668,183Z" fill="#9a7085" stroke="#9a7085" stroke-width="1.51"/><path d="M1680,-78L1491,-276L1443,-23Z" fill="#955d76" stroke="#955d76" stroke-width="1.51"/><path d="M1273,-251L1491,-276L1021,-375Z" fill="#936575" stroke="#936575" stroke-width="1.51"/><path d="M-175,1131L-96,1189L-33,997Z" fill="#8f506d" stroke="#8f506d" stroke-width="1.51"/><path d="M1718,1002L1745,834L1413,751Z" fill="#4b80b3" stroke="#4b80b3" stroke-width="1.51"/><path d="M1188,1215L1532,1148L1417,1057Z" fill="#3077b2" stroke="#3077b2" stroke-width="1.51"/><path d="M-162,896L-175,1131L-33,997Z" fill="#955b71" stroke="#955b71" stroke-width="1.51"/><path d="M-238,392L-175,1131L-162,896Z" fill="#a5727b" stroke="#a5727b" stroke-width="1.51"/><path d="M1753,279L1680,-78L1668,183Z" fill="#927383" stroke="#927383" stroke-width="1.51"/><path d="M1718,1002L1413,751L1417,1057Z" fill="#3e84bc" stroke="#3e84bc" stroke-width="1.51"/><path d="M1721,554L1745,834L1753,279Z" fill="#7b8cae" stroke="#7b8cae" stroke-width="1.51"/><path d="M177,-345L-87,-367L-62,-82Z" fill="#b43134" stroke="#b43134" stroke-width="1.51"/><path d="M1021,-375L-87,-367L177,-345Z" fill="#b76359" stroke="#b76359" stroke-width="1.51"/><path d="M1532,1148L1718,1002L1417,1057Z" fill="#296eb1" stroke="#296eb1" stroke-width="1.51"/><path d="M-238,392L-299,-268L-175,1131Z" fill="#c88482" stroke="#c88482" stroke-width="1.51"/><path d="M-168,-29L-299,-268L-169,54Z" fill="#b13737" stroke="#b13737" stroke-width="1.51"/><path d="M-87,-367L-299,-268L-62,-82Z" fill="#a9162a" stroke="#a9162a" stroke-width="1.51"/><path d="M1680,-78L1695,-302L1491,-276Z" fill="#844360" stroke="#844360" stroke-width="1.51"/><path d="M1491,-276L1695,-302L1021,-375Z" fill="#7f546d" stroke="#7f546d" stroke-width="1.51"/><path d="M1753,279L1695,-302L1680,-78Z" fill="#895567" stroke="#895567" stroke-width="1.51"/><path d="M1532,1148L1708,1268L1718,1002Z" fill="#1a5798" stroke="#1a5798" stroke-width="1.51"/><path d="M1718,1002L1708,1268L1745,834Z" fill="#225c94" stroke="#225c94" stroke-width="1.51"/><path d="M1188,1215L1708,1268L1532,1148Z" fill="#23619d" stroke="#23619d" stroke-width="1.51"/><path d="M149,1265L1708,1268L1188,1215Z" fill="#6986ad" stroke="#6986ad" stroke-width="1.51"/></svg>