<svg width="194" height="48" viewBox="0 0 194 48" fill="none" xmlns="http://www.w3.org/2000/svg">
<g opacity="0.5">
<rect x="7.42096" y="15.3007" width="4.77063" height="17.4923" rx="2.38531" fill="white"/>
<rect x="21.2028" y="20.6014" width="4.77063" height="6.89091" rx="2.38531" fill="white"/>
<rect x="27.5637" y="17.421" width="4.77063" height="13.2517" rx="2.38531" fill="white"/>
<rect x="42.9357" y="15.3007" width="4.77063" height="17.4923" rx="2.38531" fill="white"/>
<rect x="49.8265" y="19.0112" width="4.77063" height="10.0713" rx="2.38531" fill="white"/>
<rect x="6.10352e-05" y="19.0112" width="4.77063" height="10.0713" rx="2.38531" fill="white"/>
</g>
<path d="M35.4763 33.3688L42.8516 40.7441" stroke="white" stroke-width="4.77063" stroke-linecap="round"/>
<g filter="url(#filter0_d_1186_84)">
<circle cx="27.3356" cy="24.0311" r="11.6457" stroke="white" stroke-width="4.77063" stroke-linecap="round"/>
</g>
<path d="M66.3483 32L66.8974 29.5646H71.1712L71.6965 32H77.2835L72.6277 15.048H65.7036L60.9045 32H66.3483ZM69.0463 19.9903H69.094L70.3117 25.6967H67.7808L69.0463 19.9903ZM83.7237 32V25.5534H87.5439V32H92.7967V15.048H87.5439V21.017H83.7237V15.048H78.471V32H83.7237ZM99.4344 32L99.9836 29.5646H104.257L104.783 32H110.37L105.714 15.048H98.7897L93.9906 32H99.4344ZM102.132 19.9903H102.18L103.398 25.6967H100.867L102.132 19.9903ZM121.823 32V22.9748H121.871L125.548 28.3708H125.643L129.32 22.9748H129.368V32H134.621V15.048H129.368L125.595 20.5872L121.823 15.048H116.57V32H121.823ZM146.326 15.048V25.2908C146.326 26.9144 145.634 27.7978 144.368 27.7978C143.103 27.7978 142.41 26.9144 142.41 25.2908V15.048H137.158V25.1953C137.158 29.684 139.856 32.3343 144.392 32.3343C148.905 32.3343 151.579 29.684 151.579 25.1953V15.048H146.326ZM153.441 29.6601C155.614 31.3792 158.264 32.3343 160.795 32.3343C164.759 32.3343 167.48 30.0183 167.48 26.604C167.48 20.7305 159.363 21.7571 159.363 19.8948C159.363 19.4412 159.864 19.1546 160.604 19.1546C161.679 19.1546 163.111 19.7515 164.854 20.9454L167.385 17.0058C165.284 15.5255 162.896 14.7137 160.604 14.7137C156.784 14.7137 154.11 17.0297 154.11 20.3485C154.11 26.1503 162.228 25.1476 162.228 27.0576C162.228 27.559 161.655 27.8933 160.795 27.8933C159.506 27.8933 157.906 27.177 155.972 25.7206L153.441 29.6601ZM174.891 32V15.048H169.639V32H174.891ZM192.372 19.465C191.178 16.4566 188.551 14.7137 185.185 14.7137C180.338 14.7137 177.043 18.2951 177.043 23.5956C177.043 28.8245 180.243 32.3343 184.994 32.3343C188.36 32.3343 191.13 30.4719 192.372 27.4158L187.835 25.5057C187.286 26.986 186.331 27.7978 185.137 27.7978C183.466 27.7978 182.487 26.222 182.487 23.5001C182.487 20.7782 183.466 19.2501 185.233 19.2501C186.45 19.2501 187.286 19.9903 187.74 21.4229L192.372 19.465Z" fill="white"/>
<path d="M66.3483 32L66.8974 29.5646H71.1712L71.6965 32H77.2835L72.6277 15.048H65.7036L60.9045 32H66.3483ZM69.0463 19.9903H69.094L70.3117 25.6967H67.7808L69.0463 19.9903ZM83.7237 32V25.5534H87.5439V32H92.7967V15.048H87.5439V21.017H83.7237V15.048H78.471V32H83.7237ZM99.4344 32L99.9836 29.5646H104.257L104.783 32H110.37L105.714 15.048H98.7897L93.9906 32H99.4344ZM102.132 19.9903H102.18L103.398 25.6967H100.867L102.132 19.9903ZM121.823 32V22.9748H121.871L125.548 28.3708H125.643L129.32 22.9748H129.368V32H134.621V15.048H129.368L125.595 20.5872L121.823 15.048H116.57V32H121.823ZM146.326 15.048V25.2908C146.326 26.9144 145.634 27.7978 144.368 27.7978C143.103 27.7978 142.41 26.9144 142.41 25.2908V15.048H137.158V25.1953C137.158 29.684 139.856 32.3343 144.392 32.3343C148.905 32.3343 151.579 29.684 151.579 25.1953V15.048H146.326ZM153.441 29.6601C155.614 31.3792 158.264 32.3343 160.795 32.3343C164.759 32.3343 167.48 30.0183 167.48 26.604C167.48 20.7305 159.363 21.7571 159.363 19.8948C159.363 19.4412 159.864 19.1546 160.604 19.1546C161.679 19.1546 163.111 19.7515 164.854 20.9454L167.385 17.0058C165.284 15.5255 162.896 14.7137 160.604 14.7137C156.784 14.7137 154.11 17.0297 154.11 20.3485C154.11 26.1503 162.228 25.1476 162.228 27.0576C162.228 27.559 161.655 27.8933 160.795 27.8933C159.506 27.8933 157.906 27.177 155.972 25.7206L153.441 29.6601ZM174.891 32V15.048H169.639V32H174.891ZM192.372 19.465C191.178 16.4566 188.551 14.7137 185.185 14.7137C180.338 14.7137 177.043 18.2951 177.043 23.5956C177.043 28.8245 180.243 32.3343 184.994 32.3343C188.36 32.3343 191.13 30.4719 192.372 27.4158L187.835 25.5057C187.286 26.986 186.331 27.7978 185.137 27.7978C183.466 27.7978 182.487 26.222 182.487 23.5001C182.487 20.7782 183.466 19.2501 185.233 19.2501C186.45 19.2501 187.286 19.9903 187.74 21.4229L192.372 19.465Z" fill="white"/>
<defs>
<filter id="filter0_d_1186_84" x="3.83993" y="0.535365" width="46.9913" height="46.9913" filterUnits="userSpaceOnUse" color-interpolation-filters="sRGB">
<feFlood flood-opacity="0" result="BackgroundImageFix"/>
<feColorMatrix in="SourceAlpha" type="matrix" values="0 0 0 0 0 0 0 0 0 0 0 0 0 0 0 0 0 0 127 0" result="hardAlpha"/>
<feOffset/>
<feGaussianBlur stdDeviation="4.73232"/>
<feColorMatrix type="matrix" values="0 0 0 0 0 0 0 0 0 0 0 0 0 0 0 0 0 0 0.03 0"/>
<feBlend mode="normal" in2="BackgroundImageFix" result="effect1_dropShadow_1186_84"/>
<feBlend mode="normal" in="SourceGraphic" in2="effect1_dropShadow_1186_84" result="shape"/>
</filter>
</defs>
</svg>
