<svg xmlns="http://www.w3.org/2000/svg" width="16" height="16" viewBox="0 0 16 19">
    <path fill-rule="evenodd" fill="#231f20" d="M11.999.38c0 .95-.347 1.838-1.038 2.659-.835.976-1.845 1.54-2.94 1.451-.014-.114-.022-.234-.022-.36 0-.912.397-1.888 1.102-2.687.352-.404.799-.74 1.342-1.008.542-.264 1.055-.41 1.536-.435.014.127.02.254.02.38m3.666 14.427c-.288.664-.628 1.275-1.021 1.837-.538.765-.977 1.296-1.316 1.59-.525.483-1.088.731-1.691.745-.433 0-.954-.123-1.562-.373-.609-.249-1.169-.372-1.681-.372-.537 0-1.113.123-1.729.372-.617.25-1.114.38-1.494.392-.578.026-1.154-.229-1.729-.764-.367-.32-.826-.87-1.376-1.647-.59-.83-1.075-1.793-1.455-2.89C.204 12.51 0 11.361 0 10.25 0 8.978.275 7.88.826 6.96c.433-.739 1.009-1.322 1.73-1.75.721-.429 1.5-.647 2.339-.661.459 0 1.061.143 1.809.421.746.281 1.225.423 1.435.423.157 0 .689-.166 1.591-.497.853-.307 1.573-.435 2.163-.385 1.598.129 2.798.76 3.597 1.895-1.429.866-2.137 2.08-2.122 3.636.013 1.212.452 2.221 1.317 3.022.391.372.829.66 1.315.863-.105.307-.217.6-.335.881"/>
</svg>

