<svg xmlns="http://www.w3.org/2000/svg" width="32" height="32" viewBox="0 0 32 32">
    <path fill="#A3B5CA" fill-rule="evenodd" d="M.533 11.867L10.4 21.6c1.445 1.554 3.478 2.425 5.6 2.4 1.966.03 3.871-.685 5.333-2v9.067c-1.72.58-3.518.894-5.333.933C7.174 31.974.026 24.826 0 16c.038-1.392.216-2.777.533-4.133zm30.534-1.2c.58 1.72.894 3.518.933 5.333.021 5.725-3.033 11.02-8 13.867V16c.03-1.966-.685-3.871-2-5.333zm-15.067 0c2.945 0 5.333 2.388 5.333 5.333 0 2.945-2.388 5.333-5.333 5.333-2.945 0-5.333-2.388-5.333-5.333 0-2.945 2.388-5.333 5.333-5.333zM16 0c5.716.012 10.995 3.058 13.867 8H16c-4.26.013-7.769 3.347-8 7.6L1.6 9.067C4.245 3.517 9.851-.013 16 0z"/>
</svg>
