<svg xmlns="http://www.w3.org/2000/svg" width="32" height="32" viewBox="0 0 32 32">
    <path fill="#A3B5CA" fill-rule="evenodd" d="M9.98 9.009c1.58.018 3.134.39 4.55 1.087.997.5 1.875 1.206 2.578 2.072-.365-.109-.743-.165-1.123-.168-.678.007-1.345.178-1.941.5-2.673 1.316-4.627 3.747-5.34 6.64-.71 2.894-.107 5.954 1.65 8.36.762 1.068 1.727 1.975 2.842 2.667l.01.014c1.653 1.044 3.569 1.594 5.523 1.586-7.106 1.231-14.157-2.446-17.215-8.977-1.018-2.192-1.535-4.583-1.513-7v-.05c.07-1.773 3.756-6.723 9.98-6.731zm2.012 6.95c.025 5.202 5.16 9.25 11.06 9.25 1.532.003 3.051-.27 4.486-.807.45-.17.89-.366 1.317-.59.16-.088.355-.082.51.016.112.07.191.183.22.313.03.13.006.265-.065.377-1.73 2.74-4.25 4.892-7.226 6.172-2.228.69-6.956 1.024-10.728-4.07-2.357-3.22-2.18-7.64.426-10.661zm3.986-15.96c6.214 0 11.929 2.98 14.576 8.16.939 1.676 1.425 3.567 1.412 5.488-.005 2.72-1.451 5.236-3.8 6.609-1.143.68-2.448 1.04-3.777 1.044-.01 0-3.392.165-5.192-1.085-.332-.186-.553-.522-.59-.9 0-.395.312-.576.412-.707.568-.712.907-1.58.974-2.488-.005-1.285-.317-2.55-.91-3.69-.892-1.573-2.234-2.845-3.854-3.65-1.632-.81-3.426-1.24-5.247-1.26C5.747 7.369 1.848 9.819.15 13.7 1.292 5.837 8.032.003 15.978 0z"/>
</svg>
