<?xml version="1.0" encoding="UTF-8"?>
<svg width="16px" height="16px" viewBox="0 0 16 16" version="1.1" xmlns="http://www.w3.org/2000/svg" xmlns:xlink="http://www.w3.org/1999/xlink">
    <title>59BFD16A-B761-4DA1-B059-AFB5251A37D9</title>
    <g id="Page-1" stroke="none" stroke-width="1" fill="none" fill-rule="evenodd">
        <g id="watermark-popups-02" transform="translate(-2680.000000, -787.000000)" fill-rule="nonzero">
            <g id="icons8-google" transform="translate(2680.000000, 787.000000)">
                <path d="M15.8444,6.4332 L15.2,6.4332 L15.2,6.4 L8,6.4 L8,9.6 L12.5212,9.6 C11.8616,11.4628 10.0892,12.8 8,12.8 C5.3492,12.8 3.2,10.6508 3.2,8 C3.2,5.3492 5.3492,3.2 8,3.2 C9.2236,3.2 10.3368,3.6616 11.1844,4.4156 L13.4472,2.1528 C12.0184,0.8212 10.1072,0 8,0 C3.582,0 0,3.582 0,8 C0,12.418 3.582,16 8,16 C12.418,16 16,12.418 16,8 C16,7.4636 15.9448,6.94 15.8444,6.4332 Z" id="Path" fill="#FFC107"></path>
                <path d="M0.9224,4.2764 L3.5508,6.204 C4.262,4.4432 5.9844,3.2 8,3.2 C9.2236,3.2 10.3368,3.6616 11.1844,4.4156 L13.4472,2.1528 C12.0184,0.8212 10.1072,0 8,0 C4.9272,0 2.2624,1.7348 0.9224,4.2764 Z" id="Path" fill="#FF3D00"></path>
                <path d="M8,16 C10.0664,16 11.944,15.2092 13.3636,13.9232 L10.8876,11.828 C10.0844,12.4364 9.086,12.8 8,12.8 C5.9192,12.8 4.1524,11.4732 3.4868,9.6216 L0.878,11.6316 C2.202,14.2224 4.8908,16 8,16 Z" id="Path" fill="#4CAF50"></path>
                <path d="M15.8444,6.4332 L15.2,6.4332 L15.2,6.4 L8,6.4 L8,9.6 L12.5212,9.6 C12.2044,10.4948 11.6288,11.2664 10.8864,11.8284 C10.8868,11.828 10.8872,11.828 10.8876,11.8276 L13.3636,13.9228 C13.1884,14.082 16,12 16,8 C16,7.4636 15.9448,6.94 15.8444,6.4332 Z" id="Path" fill="#1976D2"></path>
            </g>
        </g>
    </g>
</svg>

