<svg xmlns="http://www.w3.org/2000/svg" xmlns:xlink="http://www.w3.org/1999/xlink" width="174" height="109" viewBox="0 0 174 109">
    <defs>
        <linearGradient id="4drew2m9wb" x1="50%" x2="50%" y1="0%" y2="100%">
            <stop offset="0%" stop-color="#A3B5CA"/>
            <stop offset="100%" stop-color="#D4E0EC"/>
        </linearGradient>
        <linearGradient id="qf935jcmwj" x1="50%" x2="50%" y1="0%" y2="100%">
            <stop offset="0%" stop-color="#D4E0EC"/>
            <stop offset="100%" stop-color="#A3B5CA"/>
        </linearGradient>
        <linearGradient id="r4ilw3hfml" x1="50%" x2="50%" y1="0%" y2="100%">
            <stop offset="0%" stop-color="#D4E0EC"/>
            <stop offset="100%" stop-color="#A3B5CA"/>
        </linearGradient>
        <filter id="gi585wlcea" width="163%" height="566.7%" x="-31.5%" y="-233.3%" filterUnits="objectBoundingBox">
            <feGaussianBlur in="SourceGraphic" stdDeviation="10.5"/>
        </filter>
        <filter id="x4xs19tm8d" width="106.6%" height="121.4%" x="-3.3%" y="-10.7%" filterUnits="objectBoundingBox">
            <feGaussianBlur in="SourceAlpha" result="shadowBlurInner1" stdDeviation="1"/>
            <feOffset dy="1" in="shadowBlurInner1" result="shadowOffsetInner1"/>
            <feComposite in="shadowOffsetInner1" in2="SourceAlpha" k2="-1" k3="1" operator="arithmetic" result="shadowInnerInner1"/>
            <feColorMatrix in="shadowInnerInner1" result="shadowMatrixInner1" values="0 0 0 0 0.396078431 0 0 0 0 0.439215686 0 0 0 0 0.48627451 0 0 0 1 0"/>
            <feGaussianBlur in="SourceAlpha" result="shadowBlurInner2" stdDeviation="1"/>
            <feOffset dy="-2" in="shadowBlurInner2" result="shadowOffsetInner2"/>
            <feComposite in="shadowOffsetInner2" in2="SourceAlpha" k2="-1" k3="1" operator="arithmetic" result="shadowInnerInner2"/>
            <feColorMatrix in="shadowInnerInner2" result="shadowMatrixInner2" values="0 0 0 0 1 0 0 0 0 1 0 0 0 0 1 0 0 0 0.911931818 0"/>
            <feMerge>
                <feMergeNode in="shadowMatrixInner1"/>
                <feMergeNode in="shadowMatrixInner2"/>
            </feMerge>
        </filter>
        <filter id="zfpnktvv9h" width="220%" height="385.7%" x="-60%" y="-142.9%" filterUnits="objectBoundingBox">
            <feGaussianBlur in="SourceGraphic" stdDeviation="5"/>
        </filter>
        <rect id="ma71drtt6c" width="91" height="28" x="0" y="0" rx="6"/>
        <rect id="i510jhnvhe" width="20" height="20" x="0" y="0" rx="3.381"/>
        <rect id="7ziw5acasg" width="91" height="28" x="0" y="0" rx="6"/>
        <path id="19u7ir2chk" d="M0 0c5.799 0 10.5 4.701 10.5 10.5V28H0V0z"/>
    </defs>
    <g fill="none" fill-rule="evenodd">
        <g>
            <g>
                <g>
                    <g>
                        <g transform="translate(-286 -305) translate(273 249) translate(7 56) translate(6) translate(42 44)">
                            <ellipse cx="50" cy="26.25" fill="#65707C" filter="url(#gi585wlcea)" rx="50" ry="6.75"/>
                            <g>
                                <g transform="translate(4.5 1)">
                                    <use fill="url(#4drew2m9wb)" xlink:href="#ma71drtt6c"/>
                                    <use fill="#000" filter="url(#x4xs19tm8d)" xlink:href="#ma71drtt6c"/>
                                    <use stroke="#D4E0EC" stroke-width="2" xlink:href="#ma71drtt6c"/>
                                </g>
                                <g>
                                    <g transform="translate(4.5 1) translate(6 4) translate(29.5)">
                                        <rect width="20" height="20" fill="#EBF2F9" rx="3.381"/>
                                        <text fill="#65707C" font-family="Montserrat-Medium, Montserrat" font-size="12" font-weight="400" letter-spacing="-.133">
                                            <tspan x="2.129" y="14">00</tspan>
                                        </text>
                                    </g>
                                    <g transform="translate(4.5 1) translate(6 4)">
                                        <rect width="20" height="20" fill="#EBF2F9" rx="3.381"/>
                                        <text fill="#65707C" font-family="Montserrat-Medium, Montserrat" font-size="12" font-weight="400" letter-spacing="-.133">
                                            <tspan x="1.879" y="14">00</tspan>
                                        </text>
                                    </g>
                                    <g transform="translate(4.5 1) translate(6 4) translate(59)">
                                        <mask id="wvb96mertf" fill="#fff">
                                            <use xlink:href="#i510jhnvhe"/>
                                        </mask>
                                        <use fill="#EBF2F9" xlink:href="#i510jhnvhe"/>
                                        <rect width="20" height="20" fill="#EBF2F9" mask="url(#wvb96mertf)" rx="3.381"/>
                                        <g font-family="Montserrat-Medium, Montserrat" font-size="12" font-weight="400" letter-spacing="-.133" mask="url(#wvb96mertf)">
                                            <g>
                                                <text transform="translate(2 -2.5)">
                                                    <tspan x=".129" y="26" fill="#65707C">00</tspan>
                                                </text>
                                                <text transform="translate(2 -2.5)">
                                                    <tspan x="1.929" y="12" fill="#65707C">01</tspan>
                                                </text>
                                            </g>
                                        </g>
                                    </g>
                                    <path fill="#40474F" fill-rule="nonzero" d="M54.261 8.52c.202 0 .375-.073.52-.217.146-.144.219-.327.219-.549 0-.222-.07-.403-.213-.543-.141-.14-.317-.211-.526-.211-.209 0-.388.072-.537.216-.15.144-.224.324-.224.538 0 .222.075.405.224.55.15.143.328.215.537.215zm0 4.48c.202 0 .375-.072.52-.216.146-.144.219-.327.219-.55 0-.221-.07-.402-.213-.543-.141-.14-.317-.21-.526-.21-.209 0-.388.072-.537.216-.15.144-.224.323-.224.538 0 .222.075.405.224.549.15.144.328.216.537.216zM24.761 8.52c.202 0 .375-.073.52-.217.146-.144.219-.327.219-.549 0-.222-.07-.403-.213-.543-.141-.14-.317-.211-.526-.211-.209 0-.388.072-.537.216-.15.144-.224.324-.224.538 0 .222.075.405.224.55.15.143.328.215.537.215zm0 4.48c.202 0 .375-.072.52-.216.146-.144.219-.327.219-.55 0-.221-.07-.402-.213-.543-.141-.14-.317-.21-.526-.21-.209 0-.388.072-.537.216-.15.144-.224.323-.224.538 0 .222.075.405.224.549.15.144.328.216.537.216z" transform="translate(4.5 1) translate(6 4)"/>
                                </g>
                            </g>
                            <g transform="translate(4.5)">
                                <mask id="5ljfdi4y7i" fill="#fff">
                                    <use xlink:href="#7ziw5acasg"/>
                                </mask>
                                <path fill="#65707C" d="M32.5-1h25c0 5.799-4.701 10.5-10.5 10.5h-4C37.201 9.5 32.5 4.799 32.5-1z" filter="url(#zfpnktvv9h)" mask="url(#5ljfdi4y7i)"/>
                            </g>
                        </g>
                        <g>
                            <g>
                                <path fill="url(#qf935jcmwj)" d="M76 28H95.5V33H76z" transform="translate(-286 -305) translate(273 249) translate(7 56) translate(6) rotate(-23 94.715 18.377)"/>
                                <path fill="#65707C" d="M4 12h76.5v9H4c-2.21 0-4-1.79-4-4v-1c0-2.21 1.79-4 4-4z" transform="translate(-286 -305) translate(273 249) translate(7 56) translate(6) rotate(-23 94.715 18.377)"/>
                                <g transform="translate(-286 -305) translate(273 249) translate(7 56) translate(6) rotate(-23 94.715 18.377) translate(80.5)">
                                    <mask id="mil4qo2psm" fill="#fff">
                                        <use xlink:href="#19u7ir2chk"/>
                                    </mask>
                                    <use fill="url(#r4ilw3hfml)" xlink:href="#19u7ir2chk"/>
                                    <path fill="#FAFCFF" d="M5 1.322c3.038 0 5.5 2.462 5.5 5.5V28H5V1.322z" mask="url(#mil4qo2psm)" opacity=".295"/>
                                </g>
                                <path fill="#FAFCFF" d="M4 12h76.5v3H4c-.828 0-1.5-.672-1.5-1.5S3.172 12 4 12z" opacity=".295" transform="translate(-286 -305) translate(273 249) translate(7 56) translate(6) rotate(-23 94.715 18.377)"/>
                            </g>
                            <path fill="#FF6400" d="M85.75 10.2L82.391 12.109 84.3 8.75 82.391 5.391 85.75 7.3 89.109 5.391 87.2 8.75 89.109 12.109z" transform="translate(-286 -305) translate(273 249) translate(7 56) translate(6) rotate(36 85.75 8.75)"/>
                        </g>
                    </g>
                </g>
            </g>
        </g>
    </g>
</svg>
