<svg xmlns="http://www.w3.org/2000/svg" xmlns:xlink="http://www.w3.org/1999/xlink" width="97.181" height="40" viewBox="0 0 97.181 40">
  <defs>
    <radialGradient id="radial-gradient" cx="0.587" cy="0.753" r="0.762" gradientTransform="translate(-0.221 0.004) scale(1.376 0.994)" gradientUnits="objectBoundingBox">
      <stop offset="0.05" stop-color="#fbae17"/>
      <stop offset="0.174" stop-color="#f6921e"/>
      <stop offset="0.4" stop-color="#f16522"/>
      <stop offset="0.63" stop-color="#d71921"/>
      <stop offset="0.797" stop-color="#c3161c"/>
      <stop offset="0.956" stop-color="#b01117"/>
    </radialGradient>
  </defs>
  <g id="hola_logo" transform="translate(-135 -10)">
    <path id="hola_lettering" d="M12286.385-16.8c-.17-.086-.269-.272-.355-.355-.269-.457-.553-.911-.821-1.42a8.644,8.644,0,0,1-4.544.908,7.331,7.331,0,0,1-3.179-1.4,4.116,4.116,0,0,1-1.547-3.448,4.265,4.265,0,0,1,1.633-3.266,5.683,5.683,0,0,1,3.9-.908c1.549,0,2.1,0,3.55-.1l1.093-.086v-.086a2.381,2.381,0,0,0-.1-.821c-.086-.639-1.42-1.547-2.994-1.42a6.452,6.452,0,0,0-1.817.824c-2.627,1.417-3.535-1.42-2.727-2.457a4.624,4.624,0,0,1,3.551-1.732,11.339,11.339,0,0,1,4.256.454,6.454,6.454,0,0,1,3.365,2,5.684,5.684,0,0,1,.821,4c-.183,1.534-.636,3.081-.908,4.627a17.465,17.465,0,0,0-.1,2.272,3.123,3.123,0,0,1-.24,2.059,2.048,2.048,0,0,1-1.6.772A2.036,2.036,0,0,1,12286.385-16.8Zm-4.2-7c-.51,0-1.7.367-1.788,1.361a1.5,1.5,0,0,0,1.42,1.547,3.025,3.025,0,0,0,2.624-.639,3.715,3.715,0,0,0,1.093-2.355C12284.439-23.8,12282.7-23.8,12282.184-23.8Zm12.078,6.911a2.836,2.836,0,0,1-2.454-2.185h-.059a3.048,3.048,0,0,1,1.42-2.994,2.837,2.837,0,0,1,3.634.722,2.727,2.727,0,0,1,.1,3.365,2.94,2.94,0,0,1-1.633.908,1.812,1.812,0,0,1-.816.2A1.789,1.789,0,0,1,12294.262-16.888Zm-54.8-.583a2.989,2.989,0,0,1-.824-1.716c-.269-1.547-1.277-12.9-1.546-14.45a4.349,4.349,0,0,1,.1-2.17,2.079,2.079,0,0,1,1.08-1.093,2.3,2.3,0,0,1,1.731-.086,2.1,2.1,0,0,1,1.275,1.42,42.863,42.863,0,0,1,.627,4.812,4.675,4.675,0,0,1,1.006-.908,5.549,5.549,0,0,1,6.572.056,6.02,6.02,0,0,1,1.731,3.365c.269,1.547.723,6.356.824,7.1a3.3,3.3,0,0,1-.284,2.084,2.3,2.3,0,0,1-2.84,1.009c-1.263-.553-1.42-2.185-1.42-3.278-.182-1.633-.269-3.179-.454-4.714-.185-1.275-.453-2.908-2-2.837a2.838,2.838,0,0,0-2.43,1.787,7.391,7.391,0,0,0-.1,2c.1.824.371,3.72.457,4.445a10.438,10.438,0,0,1,.1,1.729,2.432,2.432,0,0,1-2.186,2h-.023A2.023,2.023,0,0,1,12239.464-17.472Zm30.755-2.241-1.007-13.61a19.241,19.241,0,0,1-.086-2.185,2.261,2.261,0,0,1,2-2.189,2.431,2.431,0,0,1,2.358,1.818c.1.553.1,1.42.183,2.185,0,0,1.093,13.073,1.093,13.625a2.482,2.482,0,0,1-2,2.726c-.054,0-.105,0-.157,0C12270.74-17.339,12270.4-18.787,12270.219-19.713Zm-13.354,1.4a7.184,7.184,0,0,1-2.727-2.54,6.459,6.459,0,0,1-.91-4.087,7.8,7.8,0,0,1,3.1-6.174,8.022,8.022,0,0,1,7.1-.639,6.6,6.6,0,0,1,4.257,6.189,16.785,16.785,0,0,0-.083,1.716l.083-.043a7.587,7.587,0,0,1-3.633,5.677,7.928,7.928,0,0,1-3.492.81A7.93,7.93,0,0,1,12256.865-18.308Zm3.006-10.387a3.755,3.755,0,0,0-2.087,2.837,5.341,5.341,0,0,0,.457,3.9,2.724,2.724,0,0,0,3.815.454.086.086,0,0,0,.087-.086,5.5,5.5,0,0,0,1.42-3.365.426.426,0,0,0-.087.454l-.056-.028a5.5,5.5,0,0,0-.453-3.179,2.847,2.847,0,0,0-2.26-1.117A2.834,2.834,0,0,0,12259.871-28.7Zm34.746,4.809c-.907-.355-1.093-1.263-1.18-2.17a2.882,2.882,0,0,1,0-1.192h.044c.086-.812.453-7.353.824-9.81a3.234,3.234,0,0,1,1.814-2.723,2.833,2.833,0,0,1,3.038.553,2.364,2.364,0,0,1,.639,1.716,6.479,6.479,0,0,1-.186,2.272c-.269,1.633-1.716,7.905-2.17,9.452a3.284,3.284,0,0,1-1.009,1.716,1.67,1.67,0,0,1-1.05.371A1.669,1.669,0,0,1,12294.617-23.886Z" transform="translate(-12067.646 61.221)" fill="#40474f"/>
    <g id="hola_flame" transform="translate(135 10)">
      <g id="Group_348" data-name="Group 348">
        <path id="Body_1_" d="M29.048,25.524c.19-2.857-.857-7.524-1.619-10-.762-2.381.857-5.333.857-5.333s-.762,0-2.667,1.714a5.552,5.552,0,0,0-1.9,3.9c-2.19-5.143-6.667-8.476-8.381-10.762C13.714,2.952,14.857,0,14.857,0,11.524,1.429,9.81,5.048,9.238,9.333A7.838,7.838,0,0,1,6,15.238c-.476-4-4.952-5.048-4.952-5.048.952.286,2.571,4.952.857,8.286A15.953,15.953,0,0,0,0,25.524C0,33.524,5.048,40,14.476,40A14.141,14.141,0,0,0,29.048,25.524Z" transform="translate(0 0)" fill="url(#radial-gradient)"/>
        <g id="Mouth_1_" transform="translate(3.714 26.476)">
          <path id="Mouth_2_" d="M24.09,27.8a9.334,9.334,0,0,1-18.667,0H3.9a10.858,10.858,0,0,0,21.714,0Z" transform="translate(-3.9 -27.8)" fill="#231f20"/>
        </g>
        <g id="Eyes_1_" transform="translate(7.429 20.762)">
          <g id="Group_346" data-name="Group 346" transform="translate(10.286)">
            <ellipse id="Ellipse_68" data-name="Ellipse 68" cx="2" cy="2.857" rx="2" ry="2.857" fill="#231f20"/>
          </g>
          <g id="Group_347" data-name="Group 347">
            <ellipse id="Ellipse_69" data-name="Ellipse 69" cx="2" cy="2.857" rx="2" ry="2.857" fill="#231f20"/>
          </g>
        </g>
      </g>
    </g>
  </g>
</svg>
