<svg xmlns="http://www.w3.org/2000/svg" width="57" height="57" viewBox="0 0 57 57">
    <defs>
        <radialGradient id="prefix__a" cx="63.909%" cy="75.25%" r="95.017%" fx="63.909%" fy="75.25%" gradientTransform="matrix(1 0 0 .74316 0 .193)">
            <stop offset="0%" stop-color="#E1E8F0"/>
            <stop offset="17.4%" stop-color="#C3D1E1"/>
            <stop offset="41.654%" stop-color="#C4D2E2"/>
            <stop offset="60.668%" stop-color="#A3B5CA"/>
            <stop offset="79.7%" stop-color="#677C93"/>
            <stop offset="100%" stop-color="#65707C"/>
        </radialGradient>
    </defs>
    <g fill="none" fill-rule="evenodd">
        <path fill="url(#prefix__a)" fill-rule="nonzero" d="M38.79 21.466C37.711 18.173 40 14.092 40 14.092s-1.077 0-3.771 2.37c-1.607 1.367-2.577 3.313-2.687 5.392-3.097-7.111-9.428-11.72-11.852-14.88C19.394 4.081 21.01 0 21.01 0c-4.714 1.976-7.138 6.98-7.947 12.905-.192 3.257-1.874 6.256-4.579 8.165-.673-5.53-7.003-6.98-7.003-6.98 1.346.396 3.636 6.848 1.212 11.458-1.656 3-2.579 6.337-2.694 9.745C0 46.355 7.139 55.31 20.472 55.31c5.491.165 10.81-1.886 14.709-5.672 3.898-3.786 6.03-8.974 5.898-14.345.269-3.95-1.212-10.404-2.29-13.827z"/>
        <path fill="#231F20" d="M7.406 36.61c.075 7.075 5.962 12.773 13.2 12.773 7.236 0 13.124-5.698 13.198-12.773h2.156c-.114 8.211-6.955 14.81-15.354 14.81-8.4 0-15.24-6.599-15.354-14.81zm20.474-7.901c1.563 0 2.829 1.768 2.829 3.95 0 2.182-1.266 3.95-2.829 3.95-1.562 0-2.828-1.768-2.828-3.95 0-2.182 1.266-3.95 2.828-3.95zm-14.546 0c1.562 0 2.829 1.768 2.829 3.95 0 2.182-1.267 3.95-2.829 3.95-1.562 0-2.828-1.768-2.828-3.95 0-2.182 1.266-3.95 2.828-3.95z"/>
        <g>
            <g transform="translate(15.667 32.333) translate(.333 .667)">
                <rect width="37.63" height="21.037" x=".889" y=".889" fill="#FF6400" stroke="#FFF" stroke-width="1.778" rx="6.222"/>
                <text fill="#FFF" font-family="Montserrat-SemiBold, Montserrat" font-size="14.519" font-weight="500">
                    <tspan x="4.204" y="18.148">OFF</tspan>
                </text>
            </g>
        </g>
    </g>
</svg>
