<svg xmlns="http://www.w3.org/2000/svg" id="ic_report" width="20" height="20" viewBox="0 0 20 20">
    <defs>
        <style>
            .cls-1{fill:none}.cls-2{fill:rgba(0,77,116,.5)}
        </style>
    </defs>
    <path id="Rectangle_409" d="M0 0h20v20H0z" class="cls-1" data-name="Rectangle 409"/>
    <g id="Group_14" data-name="Group 14">
        <path id="Path_7252" d="M16.423 3.577a1.493 1.493 0 0 1 1.108.489A1.582 1.582 0 0 1 18 5.192v9.616a1.578 1.578 0 0 1-.469 1.126 1.489 1.489 0 0 1-1.108.489H3.577a1.486 1.486 0 0 1-1.108-.489A1.574 1.574 0 0 1 2 14.808V5.192a1.578 1.578 0 0 1 .469-1.126 1.49 1.49 0 0 1 1.108-.489zM10 9.211l6.423-4.019H3.577zm6.423 5.6v-8L10 10.789 3.577 6.808v8z" class="cls-2" data-name="Path 7252"/>
    </g>
</svg>
