<svg xmlns="http://www.w3.org/2000/svg" width="15" height="15" viewBox="0 0 15 15">
    <path fill="#FF6400" fill-rule="evenodd" stroke="#FF6400" d="M9.531.502c.115.008.226.052.318.13.265.77.632 1.325 1.05 1.697.52.462 1.124.655 1.759.612.164-.012.317.043.431.142.095.081.162.193.189.32-.234.794-.267 1.455-.158 1.992.139.679.499 1.18 1.015 1.519.184.121.307.282.352.459.035.137.02.281-.045.41-.617.48-1.012.987-1.225 1.486-.263.615-.262 1.227-.043 1.8.091.238.11.458.048.637-.042.125-.126.223-.238.285-.763.017-1.38.2-1.85.493-.566.353-.93.867-1.078 1.48-.048.196-.146.353-.282.446-.097.066-.212.097-.33.087-.634-.447-1.25-.668-1.808-.71-.678-.05-1.283.156-1.767.577-.115.1-.26.144-.4.134-.115-.008-.226-.052-.318-.13-.265-.77-.632-1.325-1.05-1.697-.52-.462-1.124-.655-1.759-.612-.164.012-.317-.043-.431-.142-.095-.081-.162-.193-.189-.32.234-.794.267-1.455.158-1.992-.139-.679-.499-1.18-1.015-1.519-.184-.121-.307-.282-.352-.459-.035-.137-.02-.281.045-.41.617-.48 1.012-.987 1.225-1.486.263-.615.262-1.227.043-1.8-.091-.238-.11-.458-.048-.637.042-.125.126-.223.238-.285.763-.017 1.38-.2 1.85-.493.566-.353.93-.867 1.078-1.48.048-.196.146-.353.282-.446.964.36 1.58.581 2.138.623.678.05 1.283-.156 1.767-.577.115-.1.26-.144.4-.134zM7.5 2.338c-1.374 0-2.618.58-3.519 1.52-.893.932-1.447 2.22-1.447 3.642 0 1.423.554 2.71 1.447 3.642.9.94 2.145 1.52 3.519 1.52s2.618-.58 3.519-1.52c.893-.932 1.447-2.22 1.447-3.642 0-1.423-.554-2.71-1.447-3.642-.9-.94-2.145-1.52-3.519-1.52zm0 2.036c.819 0 1.559.349 2.095.908.544.568.879 1.352.879 2.218 0 .866-.335 1.65-.879 2.218-.536.56-1.276.908-2.095.908-.819 0-1.559-.349-2.095-.908-.544-.568-.879-1.352-.879-2.218 0-.866.335-1.65.879-2.218.536-.56 1.276-.908 2.095-.908z"/>
</svg>
