<svg xmlns="http://www.w3.org/2000/svg" width="28" height="14" viewBox="0 0 28 14">
    <defs>
        <style>
            .cls-1{fill:#fff}
        </style>
    </defs>
    <path id="ic_plus_white" d="M-407-1186h-20a4 4 0 0 1-4-4v-6a4 4 0 0 1 4-4h20a4 4 0 0 1 4 4v6a4 4 0 0 1-4 4zm-3.6-5.823a.326.326 0 0 0-.046 0 .4.4 0 0 0-.264.2l-.247.36a.579.579 0 0 0-.1.2.363.363 0 0 0 0 .165.365.365 0 0 0 .068.136.684.684 0 0 0 .112.108 2.124 2.124 0 0 0 .3.188 3.158 3.158 0 0 0 .424.184 3.893 3.893 0 0 0 .512.14 2.956 2.956 0 0 0 .58.056 2.381 2.381 0 0 0 .856-.144 1.892 1.892 0 0 0 .633-.388 1.643 1.643 0 0 0 .388-.568 1.816 1.816 0 0 0 .131-.684 1.384 1.384 0 0 0-.188-.748 1.791 1.791 0 0 0-.468-.5 2.79 2.79 0 0 0-.607-.337c-.231-.093-.43-.176-.608-.252a2.46 2.46 0 0 1-.468-.256.412.412 0 0 1-.188-.344.356.356 0 0 1 .144-.284.778.778 0 0 1 .481-.116 1.321 1.321 0 0 1 .491.085c.149.059.284.118.412.179a.667.667 0 0 0 .31.085h.014c.1 0 .2-.082.276-.236l.192-.376a.536.536 0 0 0 .064-.324.443.443 0 0 0-.2-.276 2.548 2.548 0 0 0-.624-.284 2.874 2.874 0 0 0-.92-.14 2.569 2.569 0 0 0-.808.124 1.907 1.907 0 0 0-.648.356 1.692 1.692 0 0 0-.428.556 1.644 1.644 0 0 0-.156.716 1.391 1.391 0 0 0 .188.748 1.851 1.851 0 0 0 .468.508 2.992 2.992 0 0 0 .607.348c.211.09.417.179.608.264a2.445 2.445 0 0 1 .468.265.413.413 0 0 1 .188.339.351.351 0 0 1-.148.284.743.743 0 0 1-.46.116 1.406 1.406 0 0 1-.344-.04 1.587 1.587 0 0 1-.292-.1 2.5 2.5 0 0 1-.232-.116l-.074-.041-.018-.01-.08-.044a.632.632 0 0 0-.299-.102zm-5.965-4.081a.39.39 0 0 0-.44.44v3.175a2.257 2.257 0 0 0 .172.885 2.036 2.036 0 0 0 .484.7 2.232 2.232 0 0 0 .756.456 2.855 2.855 0 0 0 .987.164 2.8 2.8 0 0 0 .977-.164 2.236 2.236 0 0 0 .751-.456 2.025 2.025 0 0 0 .484-.7 2.242 2.242 0 0 0 .172-.885v-3.175a.39.39 0 0 0-.44-.44h-.519a.39.39 0 0 0-.44.44v3.175a.865.865 0 0 1-.268.689 1.073 1.073 0 0 1-.724.232 1.075 1.075 0 0 1-.725-.232.867.867 0 0 1-.268-.689v-3.175a.39.39 0 0 0-.44-.44zm-4.32 0a.39.39 0 0 0-.44.44v4.839a.39.39 0 0 0 .44.44h2.856a.39.39 0 0 0 .44-.44v-.32a.39.39 0 0 0-.44-.44h-1.9v-4.08a.39.39 0 0 0-.44-.44zm-5.128 0a.39.39 0 0 0-.44.44v4.839a.39.39 0 0 0 .44.44h.52a.39.39 0 0 0 .44-.44v-1.328h.976a1.9 1.9 0 0 0 .76-.149 1.716 1.716 0 0 0 .589-.411 1.905 1.905 0 0 0 .38-.628 2.267 2.267 0 0 0 .136-.8 2.231 2.231 0 0 0-.136-.792 1.912 1.912 0 0 0-.38-.624 1.673 1.673 0 0 0-.589-.408 1.95 1.95 0 0 0-.76-.144zm1.648 2.751h-.688v-1.552h.712a.648.648 0 0 1 .527.212.842.842 0 0 1 .176.555.868.868 0 0 1-.18.564.669.669 0 0 1-.55.221z" class="cls-1" transform="translate(431 1200)"/>
</svg>
