<svg xmlns="http://www.w3.org/2000/svg" width="80" height="80" viewBox="0 0 80 80">
    <defs>
        <style>
            .cls-1{fill:#25d366}.cls-2,.cls-3{fill:#fff}.cls-3{stroke:rgba(0,0,0,0)}
        </style>
    </defs>
    <g id="unlock" transform="translate(-10069 -2757)">
        <circle id="Ellipse_13" cx="40" cy="40" r="40" class="cls-1" data-name="Ellipse 13" transform="translate(10069 2757)"/>
        <g id="ic_unlock" transform="translate(10083.4 2769.4)">
            <g id="Group_1960" data-name="Group 1960" transform="translate(-12.4 16.6)">
                <path id="Path_37567" d="M29 5V2a9 9 0 0 1 18 0v11h4V2a13 13 0 0 0-26 0v3z" class="cls-2" data-name="Path 37567" transform="translate(0 -8)"/>
                <path id="Path_37512" d="M22 5v24h32V5zm16 15a3 3 0 1 1 3-3 3 3 0 0 1-3 3z" class="cls-2" data-name="Path 37512"/>
                <path id="Union_45" d="M-10068.748-2779.777l6 .891-6 .887zm-2.251-3.556l.75-2.666 8.25 5.334z" class="cls-3" data-name="Union 45" transform="translate(10088.998 2781)"/>
            </g>
        </g>
    </g>
</svg>
