<svg width="32" height="33" viewBox="0 0 32 33" fill="none" xmlns="http://www.w3.org/2000/svg">
<rect y="0.857178" width="32" height="32" rx="16" fill="#EBF2F9"/>
<path d="M23.5998 15.2572H22.3998V12.0572C22.3998 11.1772 21.6798 10.4572 20.7998 10.4572H17.5998V9.2572C17.5998 8.1532 16.7038 7.2572 15.5998 7.2572C14.4958 7.2572 13.5998 8.1532 13.5998 9.2572V10.4572H10.3998C9.5198 10.4572 8.8078 11.1772 8.8078 12.0572V15.0972H9.9998C11.1918 15.0972 12.1598 16.0652 12.1598 17.2572C12.1598 18.4492 11.1918 19.4172 9.9998 19.4172H8.7998V22.4572C8.7998 23.3372 9.5198 24.0572 10.3998 24.0572H13.4398V22.8572C13.4398 21.6652 14.4078 20.6972 15.5998 20.6972C16.7918 20.6972 17.7598 21.6652 17.7598 22.8572V24.0572H20.7998C21.6798 24.0572 22.3998 23.3372 22.3998 22.4572V19.2572H23.5998C24.7038 19.2572 25.5998 18.3612 25.5998 17.2572C25.5998 16.1532 24.7038 15.2572 23.5998 15.2572Z" fill="#65707C"/>
</svg>
