<svg width="10" height="31" viewBox="0 0 10 31" fill="none" xmlns="http://www.w3.org/2000/svg">
<path id="Path Copy 3" fill-rule="evenodd" clip-rule="evenodd" d="M4.49384 0.412649L0.20889 4.77461C-0.0696315 5.05814 -0.0696315 5.51614 0.20889 5.79967C0.487412 6.08319 0.937331 6.08319 1.21585 5.79967L4.28673 2.68087L4.28673 30.0087C4.28673 30.4086 4.6081 30.7357 5.00089 30.7357C5.39368 30.7357 5.71505 30.4086 5.71505 30.0087L5.71505 2.68087L8.77879 5.79967C9.05731 6.08319 9.50723 6.08319 9.78575 5.79967C9.92858 5.66154 10 5.47979 10 5.29077C10 5.10175 9.92858 4.92001 9.79289 4.77461L5.50794 0.412649C5.22942 0.129122 4.77236 0.129122 4.49384 0.412649Z" fill="#65707C"/>
</svg>
