<svg xmlns="http://www.w3.org/2000/svg" width="0" height="0" class="hidden">
  <svg id="protect_1" viewBox="0 0 20 20">
    <path fill="#40474F" fill-rule="evenodd" d="M10 2l.461.264c1.867 1.066 3.965 1.66 6.11 1.729L17 4v4.956c0 1.684-.708 3.291-1.951 4.428L10 18l-5.049-4.616C3.708 12.247 3 10.64 3 8.956V4c2.294 0 4.547-.599 6.539-1.736L10 2zm-.001 1.493l-.204.114c-1.568.833-3.272 1.369-5.027 1.585L4.3 5.24v3.716c0 1.237.488 2.42 1.35 3.297l.179.172L10 16.238l4.171-3.813c.913-.835 1.458-1.994 1.523-3.222l.006-.247V5.24l-.053-.003c-1.903-.179-3.753-.733-5.444-1.631L10 3.493z"/>
  </svg>
  <svg id="protect_2" viewBox="0 0 20 20">
    <path fill="#40474F" fill-rule="evenodd" d="M10 3H11.3V17H10z"/>
  </svg>
  <svg id="devices_1" viewBox="0 0 20 20">
    <path fill="#40474F" fill-rule="evenodd" d="M14 2c1.105 0 2 .895 2 2v12c0 1.105-.895 2-2 2H7c-1.105 0-2-.895-2-2V4c0-1.105.895-2 2-2h7zm0 1.3H7c-.354 0-.647.263-.694.605L6.3 4v12c0 .354.263.647.605.694L7 16.7h7c.354 0 .647-.263.694-.605L14.7 16V4c0-.354-.263-.647-.605-.694L14 3.3z"/>
  </svg>
  <svg id="devices_2" viewBox="0 0 20 20">
    <path fill="#40474F" fill-rule="evenodd" d="M6 14H16V15.3H6z"/>
  </svg>
  <svg id="language_1" viewBox="0 0 14 10">
    <path fill="#40474F" fill-rule="evenodd" d="M2.911.5c.606 1.976 1.692 3.712 3.243 5.181C4.659 6.896 2.784 7.777.5 8.338l.72 1.122c2.326-.641 4.285-1.63 5.879-2.964 1.494 1.201 3.384 2.203 5.654 3.004l.747-1.068C11.329 7.684 9.496 6.736 8.03 5.6 9.354 4.226 10.355 2.53 11.032.5M9.65.5c-.564 1.682-1.424 3.125-2.566 4.313A10.715 10.715 0 014.195.5"/>
  </svg>
  <svg id="language_2" viewBox="0 0 13 5">
    <path fill="#40474F" fill-rule="evenodd" d="M5.983.5c.641 1.015 1.095 1.875 1.36 2.581H12.5V4.5H.5V3.081h5.483a10.978 10.978 0 00-1.207-1.926l-.1-.127L5.984.5z"/> 
  </svg>
  <svg id="settings_1" viewBox="0 0 20 20">
    <path fill="#40474F" fill-rule="evenodd" d="M16.875 10.475v-.956l1.2-1.05c.457-.403.557-1.076.238-1.594l-1.476-2.5c-.223-.386-.635-.625-1.08-.625-.137-.001-.272.02-.4.063l-1.52.512c-.262-.174-.535-.33-.818-.469L12.7 2.281c-.118-.594-.645-1.018-1.25-1.006H8.525c-.605-.012-1.132.412-1.25 1.006l-.319 1.575c-.285.138-.56.295-.825.469l-1.487-.538c-.13-.033-.266-.046-.4-.037-.446 0-.858.239-1.081.625l-1.475 2.5c-.301.517-.194 1.174.256 1.569l1.181 1.081v.956l-1.181 1.05c-.463.398-.572 1.071-.256 1.594l1.475 2.5c.223.386.635.625 1.08.625.137.001.272-.02.4-.063l1.52-.512c.262.174.535.33.818.469l.319 1.575c.118.594.645 1.018 1.25 1.006h2.95c.605.012 1.132-.412 1.25-1.006l.319-1.575c.285-.138.56-.295.825-.469l1.512.512c.13.043.264.064.4.063.446 0 .858-.239 1.082-.625l1.424-2.5c.301-.517.194-1.174-.256-1.569l-1.181-1.081zM15.756 15l-2.143-.725c-.502.425-1.076.757-1.694.981l-.444 2.244h-2.95l-.444-2.219c-.613-.23-1.184-.562-1.687-.981l-2.15.7-1.475-2.5 1.7-1.5c-.116-.647-.116-1.31 0-1.956L2.769 7.5 4.244 5l2.144.725c.501-.425 1.075-.757 1.693-.981L8.525 2.5h2.95l.444 2.219c.613.23 1.184.562 1.687.981l2.15-.7 1.475 2.5-1.7 1.5c.116.647.116 1.31 0 1.956l1.7 1.544-1.475 2.5zM10 13.75c-2.071 0-3.75-1.679-3.75-3.75 0-2.071 1.679-3.75 3.75-3.75 2.071 0 3.75 1.679 3.75 3.75.01.998-.382 1.957-1.087 2.663-.706.705-1.665 1.097-2.663 1.087zm0-6.25c-.668-.016-1.313.243-1.785.715S7.485 9.332 7.5 10c-.016.668.243 1.313.715 1.785s1.117.73 1.785.715c.668.016 1.313-.243 1.785-.715s.73-1.117.715-1.785c.016-.668-.243-1.313-.715-1.785S10.668 7.485 10 7.5z"/>
  </svg>
  <svg id="support_1" viewBox="0 0 18 18">
      <path fill="currentColor" d="M9 0c4.97 0 9 4.03 9 9s-4.03 9-9 9-9-4.03-9-9 4.03-9 9-9zm0 1.3C4.747 1.3 1.3 4.747 1.3 9s3.447 7.7 7.7 7.7 7.7-3.447 7.7-7.7S13.253 1.3 9 1.3z"/>
  </svg>
  <svg id="support_2" viewBox="0 0 6 10">
      <path fill="currentColor" fill-rule="evenodd" d="M2.195 7.147h1.2l-.011-.156c-.002-.04-.002-.07-.002-.105 0-.535.177-1.029.6-1.317l.627-.425C5.4 4.609 6 3.854 6 2.757 6 1.358 4.923 0 3.014 0 .914 0 0 1.55 0 2.812c0 .247.027.466.082.659l1.323.164c-.055-.15-.096-.439-.096-.672 0-.864.518-1.756 1.705-1.756 1.09 0 1.622.755 1.622 1.564 0 .535-.259 1.029-.722 1.344l-.6.412c-.805.548-1.132 1.234-1.132 2.14l.004.322c.002.051.005.103.01.158zm-.3 1.961c0-.493.396-.905.887-.905.49 0 .9.412.9.905 0 .494-.41.892-.9.892-.491 0-.887-.398-.887-.892z"/>
  </svg>
  <svg id="about_1" viewBox="0 0 20 20">
      <circle cx="10" cy="10" r="8.35" fill="none" fill-rule="evenodd" stroke="#213245" stroke-width="1.3"></circle>
  </svg>
  <svg id="about_2" viewBox="0 0 20 20">
      <path fill="#40474F" fill-rule="nonzero" d="M10 8c.295 0 .535-.09.72-.268.187-.18.28-.421.28-.725 0-.313-.093-.56-.28-.739C10.536 6.09 10.296 6 10 6s-.535.09-.72.268c-.187.18-.28.426-.28.739 0 .304.093.546.28.725.185.179.425.268.72.268zm1.5 6v-.38a1.934 1.934 0 0 0-.326-.133 4.854 4.854 0 0 0-.391-.102V9h-.37a16.358 16.358 0 0 0-.989.132c-.181.03-.353.063-.516.102-.163.04-.3.079-.408.118v.38l.717.079v3.574a5.538 5.538 0 0 0-.38.102c-.116.036-.228.08-.337.132V14h3z"></path>
  </svg>
  <svg id="incognito_1" viewBox="0 0 20 20">
    <path d="M14.5 10C12.8 10 11.5 11.2 11.1 12.7H8.9C8.5 11.2 7.2 10 5.5 10C3.6 10 2 11.6 2 13.5C2 15.4 3.6 17 5.5 17C7.3 17 8.7 15.7 8.9 14H11C11.2 15.7 12.7 17 14.4 17C16.3 17 17.9 15.4 17.9 13.5C18 11.6 16.4 10 14.5 10ZM5.5 15.7C4.3 15.7 3.3 14.7 3.3 13.5C3.3 12.3 4.3 11.3 5.5 11.3C6.7 11.3 7.7 12.3 7.7 13.5C7.7 14.7 6.7 15.7 5.5 15.7ZM14.5 15.7C13.3 15.7 12.3 14.7 12.3 13.5C12.3 12.3 13.3 11.3 14.5 11.3C15.7 11.3 16.7 12.3 16.7 13.5C16.7 14.7 15.7 15.7 14.5 15.7Z" fill="#40474F"/>
  </svg>
  <svg id="incognito_2" viewBox="0 0 20 20">
    <path d="M19.3 7.7H16.3L14.6 1.5C14.6 1.3 14.4 1.2 14.3 1.1C14.1 1 13.9 1 13.8 1L10 2.4L6.2 1C6.1 1 5.9 1 5.7 1.1C5.5 1.2 5.4 1.3 5.4 1.5L3.7 7.7H0.7C0.3 7.7 0 8 0 8.3C0 8.7 0.3 9 0.7 9H19.4C19.7 9 20 8.7 20 8.3C20 8 19.7 7.7 19.3 7.7ZM6.4 2.5L9.7 3.7C9.8 3.8 10 3.8 10.2 3.7L13.5 2.5L15 7.7H5L6.4 2.5Z" fill="#40474F"/>
  </svg>
  <svg id="hide_ip_1" viewBox="0 0 20 20">
    <path fill="#40474F" d="M9.65 2.938c4.06 0 7.269 2.07 9.566 6.134.108.191.112.424.011.618l-.175.34c-2.285 4.111-5.438 6.208-9.402 6.208-4.06 0-7.269-2.07-9.566-6.135-.108-.19-.112-.423-.011-.618l.175-.339C2.533 5.035 5.686 2.938 9.65 2.938zm0 1.3c-3.462 0-6.198 1.82-8.26 5.527l.211.346c1.967 3.134 4.527 4.723 7.727 4.822l.322.005c3.462 0 6.198-1.82 8.259-5.529l-.21-.345c-1.967-3.134-4.527-4.722-7.727-4.821zm0 1.7c2.016 0 3.65 1.634 3.65 3.65s-1.634 3.65-3.65 3.65S6 11.604 6 9.588s1.634-3.65 3.65-3.65zm0 1.3c-1.298 0-2.35 1.052-2.35 2.35s1.052 2.35 2.35 2.35S12 10.886 12 9.588s-1.052-2.35-2.35-2.35z"/>
  </svg>
  <svg id="hide_ip_2" viewBox="0 0 20 20">
    <path fill="#40474F" fill-rule="evenodd" d="M-1 8.588H21V9.888H-1z" transform="rotate(-45 10 9.238)"/>
  </svg>
  <svg id="plus_1" width="14" height="18" viewBox="0 0 14 18">
      <path fill="none" fill-rule="evenodd" stroke="#FF6400" stroke-width="1.3" d="M1.883 6.116l.017.14c.086.77-.006 1.63-.42 2.382-.508.88-.793 1.858-.83 2.858.003 1.683.587 3.206 1.78 4.272 1.115.994 2.743 1.58 4.865 1.582 1.588-.027 3.11-.623 4.243-1.674 1.187-1.102 1.842-2.61 1.803-4.238.086-1.215-.402-3.198-.749-4.25-.122-.357-.143-.741-.106-1.113l-.267.219c-.321.273-.742.58-.761.924l-.147 2.634-1.094-2.4C9.39 5.634 8.245 4.295 7.42 3.324c-.2-.237-.383-.452-.54-.648-.347-.416-.495-.897-.536-1.358-.157.163-.299.345-.425.54-.431.67-.691 1.504-.823 2.409-.086 1.246-.757 2.396-1.843 3.128-.386.26-.8.452-1.228.574.167-.288.27-.63.22-1.03-.043-.336-.18-.605-.362-.823z"/>
  </svg>
  <svg id="plus_2" width="10" height="8" viewBox="0 0 10 8">
      <path fill="#FF6400" d="M1.858 3.2l.003.297C1.88 5.2 3.278 6.574 5 6.574c1.721 0 3.12-1.373 3.139-3.077l.003-.297h1.162l-.004.304C9.268 5.838 7.352 7.713 5 7.713S.732 5.838.7 3.504L.696 3.2h1.162zM6.826.5c.407 0 .737.467.737 1.044 0 .576-.33 1.043-.737 1.043-.406 0-.736-.467-.736-1.043C6.09.967 6.42.5 6.826.5zm-3.79 0c.408 0 .738.467.738 1.044 0 .576-.33 1.043-.737 1.043S2.3 2.12 2.3 1.544C2.3.967 2.63.5 3.037.5z"/>
  </svg>
  <svg id="alert_1" viewBox="0 0 20 20">
      <path fill="#40474F" d="M7.83.106c.193.097.35.253.446.447l6.382 12.764c.247.494.047 1.095-.447 1.342-.139.069-.292.105-.447.105H1c-.552 0-1-.448-1-1 0-.155.036-.308.106-.447L6.488.553c.247-.494.847-.694 1.341-.447zM7.381 1.67L1.485 13.464h11.793L7.382 1.671z" transform="translate(2.5 2.5)"/>
  </svg>
  <svg id="alert_2" viewBox="0 0 20 20">
      <path fill="#40474F" d="M7.382 12.764c.319 0 .565-.094.74-.283.173-.19.26-.424.26-.705 0-.292-.09-.533-.268-.724-.179-.192-.423-.288-.732-.288-.31 0-.553.096-.732.288-.179.191-.268.432-.268.724 0 .28.087.516.26.705.175.189.421.283.74.283zm.61-3l.14-5h-1.5l.135 5H7.99z" transform="translate(2.5 2.5)"/>
  </svg>
  <svg id="add_1" viewBox="0 0 20 20">
    <path fill="#40474F" fill-rule="evenodd" d="M10.05 3a.65.65 0 0 1 .65.65v5.749l5.65.001a.65.65 0 1 1 0 1.3l-5.65-.001v5.651a.65.65 0 1 1-1.3 0v-5.651l-5.75.001a.65.65 0 1 1 0-1.3l5.75-.001V3.65a.65.65 0 0 1 .65-.65z"></path>
  </svg>
  <svg id="debug_1" viewBox="0 0 20 20">
    <g fill="none" fill-rule="evenodd"><path d="M15 7.65L4.65 8v7c0 .925.375 1.763.981 2.369A3.34 3.34 0 008 18.35h4a3.34 3.34 0 002.369-.981A3.34 3.34 0 0015.35 15L15 7.65zM11 3.65H9a4.336 4.336 0 00-3.076 1.274A4.338 4.338 0 004.7 7.337l10.566-.19a4.343 4.343 0 00-1.258-2.29A4.335 4.335 0 0011 3.65z" stroke="#40474F" stroke-width="1.3"/><rect fill="#40474F" x="7" y="1" width="1.3" height="3" rx=".65"/><rect fill="#40474F" x="9.35" y="7" width="1.3" height="11" rx=".65"/><rect fill="#40474F" x="12" y="1" width="1.3" height="3" rx=".65"/><rect fill="#40474F" x="1" y="7" width="4" height="1.3" rx=".65"/><rect fill="#40474F" x="15" y="7" width="4" height="1.3" rx=".65"/><rect fill="#40474F" x="1" y="11" width="4" height="1.3" rx=".65"/><rect fill="#40474F" x="15" y="11" width="4" height="1.3" rx=".65"/><rect fill="#40474F" x="1" y="15" width="4" height="1.3" rx=".65"/><rect fill="#40474F" x="15" y="15" width="4" height="1.3" rx=".65"/></g>
  </svg>
  <svg id="profile_1" viewBox="0 0 10 9">
      <path fill="currentColor" fill-rule="evenodd" d="M5.25 0c2.416 0 4.375 1.959 4.375 4.375S7.666 8.75 5.25 8.75.875 6.791.875 4.375 2.834 0 5.25 0zm0 1.25c-1.726 0-3.125 1.4-3.125 3.125 0 1.726 1.4 3.125 3.125 3.125 1.726 0 3.125-1.4 3.125-3.125 0-1.726-1.4-3.125-3.125-3.125z"/>
  </svg>
  <svg id="profile_2" viewBox="0 0 13 8">
      <path fill="currentColor" fill-rule="evenodd" d="M11.875 7.5c-.345 0-.625-.28-.625-.625v-2.5c0-.829-.33-1.624-.915-2.21-.586-.586-1.381-.915-2.21-.915h-3.75c-1.726 0-3.125 1.4-3.125 3.125v2.5c0 .345-.28.625-.625.625S0 7.22 0 6.875v-2.5C0 1.959 1.959 0 4.375 0h3.75C10.541 0 12.5 1.959 12.5 4.375v2.5c0 .345-.28.625-.625.625z"/>
  </svg>
  <svg id="hide_ip_1" viewBox="0 0 20 20">
    <path fill="#40474F" d="M9.65 2.938c4.06 0 7.269 2.07 9.566 6.134.108.191.112.424.011.618l-.175.34c-2.285 4.111-5.438 6.208-9.402 6.208-4.06 0-7.269-2.07-9.566-6.135-.108-.19-.112-.423-.011-.618l.175-.339C2.533 5.035 5.686 2.938 9.65 2.938zm0 1.3c-3.462 0-6.198 1.82-8.26 5.527l.211.346c1.967 3.134 4.527 4.723 7.727 4.822l.322.005c3.462 0 6.198-1.82 8.259-5.529l-.21-.345c-1.967-3.134-4.527-4.722-7.727-4.821zm0 1.7c2.016 0 3.65 1.634 3.65 3.65s-1.634 3.65-3.65 3.65S6 11.604 6 9.588s1.634-3.65 3.65-3.65zm0 1.3c-1.298 0-2.35 1.052-2.35 2.35s1.052 2.35 2.35 2.35S12 10.886 12 9.588s-1.052-2.35-2.35-2.35z"/>
  </svg>
  <svg id="hide_ip_2" viewBox="0 0 20 20">
    <path fill="#40474F" fill-rule="evenodd" d="M-1 8.588H21V9.888H-1z" transform="rotate(-45 10 9.238)"/>
  </svg>
  <svg id="redeem_1" viewBox="0 0 14 11">
    <path fill="currentColor" d="M2 11c-1.105 0-2-.895-2-2V.687h14V9c0 1.105-.895 2-2 2H2zm3-9.014l-3.7.001V9c0 .354.263.647.605.694L2 9.7l3-.001V1.986zm2.7.001H6.3V9.7h1.4V1.987zm5 0L9 1.986v7.713l3 .001c.354 0 .647-.263.694-.605L12.7 9V1.987z"/>
  </svg>
  <svg id="redeem_2" viewBox="0 0 14 8">
    <path fill="currentColor" d="M3 2c0-1.105.895-2 2-2 1.054 0 1.918.816 1.995 1.85L7 2c0-1.105.895-2 2-2s2 .895 2 2-.895 2-2 2h3c1.105 0 2 .895 2 2v2H0V6c0-1.105.895-2 2-2h3c-1.105 0-2-.895-2-2zm2 3.3H2c-.354 0-.647.263-.694.605L1.3 6v.7H5V5.3zm2.7 0H6.3v1.4h1.4V5.3zm4.3 0H9v1.4h3.7V6c0-.354-.263-.647-.605-.694L12 5.3zm-7-4c-.387 0-.7.313-.7.7 0 .354.263.647.605.694L5 2.7h.7V2c0-.319-.213-.588-.505-.672l-.1-.022L5 1.3zm4 0l-.095.006-.1.022C8.513 1.412 8.3 1.68 8.3 2v.7H9l.095-.006c.342-.047.605-.34.605-.694 0-.387-.313-.7-.7-.7z"/>
  </svg>
  <svg id="premium_1" viewBox="0 0 20 20">
    <g fill="#FF6400" fill-rule="evenodd">
      <path d="M10.155 1l-.047.133c-.114.359-.355 1.374.279 2.136.825 1.029 2.367 2.6 3.422 4.913.027-.483.516-.98.993-1.387l.536-.438c.917-.772 1.284-.772 1.284-.772l-.046.085c-.162.308-.679 1.404-.367 2.315.367 1.114.872 3.214.78 4.5.045 1.747-.681 3.435-2.008 4.667-1.25 1.16-2.928 1.82-4.68 1.848l-.33-.002C5.431 18.998 3 16.084 3 12.485c.04-1.11.353-2.195.917-3.172.826-1.5.046-3.6-.412-3.728l.149.04c.491.145 2.043.72 2.236 2.231.92-.62 1.494-1.597 1.559-2.657.275-1.928 1.1-3.556 2.706-4.199zm-.93 3.21l-.044.133c-.073.238-.135.496-.184.773l-.043.266-.015.169c-.156 1.317-.861 2.52-1.956 3.344l-.224.16c-.367.247-.79.312-1.175.234l-.03-.007-.046.145c-.05.14-.105.275-.167.405l-.099.193c-.447.774-.695 1.633-.725 2.46 0 3.042 2.003 5.05 5.5 5.051 1.464.042 2.88-.48 3.912-1.438.954-.885 1.502-2.07 1.543-3.31l.004-.404c.05-.692-.152-1.931-.448-3.057l-.053-.196-.007.01c-.633.706-1.935.712-2.478-.235l-.07-.135c-.35-.767-.78-1.491-1.299-2.215-.243-.338-.494-.663-.79-1.023L9.226 4.21z" transform="translate(-1357 -298) translate(1357 298)"/>
    </g>
  </svg>
  <svg id="premium_2" viewBox="0 0 20 20"></svg>
</svg>
