<svg xmlns="http://www.w3.org/2000/svg" width="32" height="32" viewBox="0 0 32 32">
    <path fill="#A3B5CA" fill-rule="evenodd" d="M16 0c4.48-.012 8.753 1.878 11.758 5.2-2.192-1.92-4.98-3.022-7.892-3.12C13.101 2.08 7.625 8.32 7.625 16s5.476 13.92 12.322 14c2.907-.12 5.688-1.22 7.891-3.12C24.761 30.137 20.481 31.988 16 32 7.163 32 0 24.837 0 16S7.163 0 16 0zm4.43 3.28c4.439.093 8.424 2.743 10.228 6.8 1.61 3.782 1.61 8.058 0 11.84-1.821 4.042-5.796 6.685-10.228 6.8-1.686.011-3.347-.401-4.832-1.2.263.066.534.093.805.08 4.595 0 8.295-5.2 8.295-11.6 0-6.4-3.705-11.6-8.295-11.6-.241 0-.563.08-.805.08 1.495-.771 3.15-1.182 4.832-1.2z"/>
</svg>
