<svg xmlns="http://www.w3.org/2000/svg" width="24" height="22" viewBox="0 0 24 22">
    <defs>
        <linearGradient id="prefix__a" x1="31.107%" x2="93.234%" y1="16.959%" y2="70.281%">
            <stop offset="0%" stop-color="#FF6400" stop-opacity=".298"/>
            <stop offset="45.383%" stop-color="#FF6400" stop-opacity=".609"/>
            <stop offset="100%" stop-color="#FF6400"/>
        </linearGradient>
    </defs>
    <path fill="url(#prefix__a)" fill-rule="evenodd" d="M19.392 33.27l1.144-1.15c-1.253-1.137-2.237-2.546-2.88-4.12C19.28 23.896 23.76 20.714 28 20.714c1.091.015 2.172.211 3.2.583l1.24-1.263c-1.406-.601-2.914-.92-4.44-.94-5.33.204-10.03 3.597-11.952 8.63-.064.179-.064.373 0 .551.71 1.908 1.856 3.62 3.344 4.995zm5.408-5.489c.115-1.603 1.375-2.879 2.96-2.995l1.448-1.473c-1.651-.44-3.409.04-4.616 1.262-1.208 1.222-1.683 3-1.248 4.672L24.8 27.78zm15.152-.056c-.917-2.418-2.513-4.512-4.592-6.023l3.277-3.323c.312-.317.312-.826 0-1.142-.309-.312-.81-.315-1.122-.007l-.007.007-20.144 20.385c-.313.316-.313.825 0 1.141.308.312.81.315 1.121.007l.007-.007 3.516-3.558c1.819 1.08 3.883 1.666 5.992 1.7 5.33-.203 10.03-3.596 11.952-8.63.064-.178.064-.372 0-.55zM31.2 28c-.007 1.153-.62 2.216-1.608 2.79-.99.574-2.205.572-3.192-.005l4.352-4.404c.288.49.442 1.049.448 1.619zM28 35.286c-1.678-.03-3.325-.468-4.8-1.279l2.032-2.056c1.907 1.339 4.489 1.105 6.13-.556 1.642-1.662 1.874-4.274.55-6.204l2.296-2.324c1.836 1.275 3.271 3.057 4.136 5.133C36.72 32.104 32.24 35.286 28 35.286z" transform="translate(-16 -17)"/>
</svg>
