<svg xmlns="http://www.w3.org/2000/svg" width="21" height="22" viewBox="0 0 21 22">
    <defs>
        <linearGradient id="prefix__a" x1="33.883%" x2="86.881%" y1="10.678%" y2="74.136%">
            <stop offset="0%" stop-color="#FF6400" stop-opacity=".298"/>
            <stop offset="45.383%" stop-color="#FF6400" stop-opacity=".609"/>
            <stop offset="100%" stop-color="#FF6400"/>
        </linearGradient>
    </defs>
    <g fill="url(#prefix__a)" fill-rule="evenodd">
        <path d="M13.58 0c1.25 0 2.264 1.024 2.264 2.287v12.58c0 1.263-1.014 2.287-2.264 2.287H2.263C1.013 17.154 0 16.13 0 14.867V2.287C0 1.024 1.013 0 2.263 0H13.58zm0 2.018H2.263c-.117 0-.217.077-.253.184l-.013.085v12.58c0 .119.076.22.182.256l.084.013H13.58c.118 0 .218-.077.253-.184l.014-.085V2.287c0-.119-.076-.22-.182-.256l-.085-.013z"/>
        <path d="M18.107 4.574c1.25 0 2.263 1.024 2.263 2.288v12.58c0 1.262-1.013 2.286-2.263 2.286H6.79c-1.25 0-2.263-1.024-2.263-2.287V6.861c0-1.263 1.013-2.287 2.263-2.287h11.317zm0 2.018H6.79c-.118 0-.218.077-.253.184l-.014.086v12.58c0 .118.077.22.183.255l.084.014h11.317c.118 0 .218-.077.253-.185l.014-.085V6.861c0-.119-.077-.22-.183-.255l-.084-.014z"/>
    </g>
</svg>
