<svg xmlns="http://www.w3.org/2000/svg" width="21" height="24" viewBox="0 0 21 24">
    <defs>
        <linearGradient id="prefix__a" x1="35.535%" x2="83.101%" y1="10.678%" y2="74.136%">
            <stop offset="0%" stop-color="#FF6400" stop-opacity=".298"/>
            <stop offset="45.383%" stop-color="#FF6400" stop-opacity=".609"/>
            <stop offset="100%" stop-color="#FF6400"/>
        </linearGradient>
    </defs>
    <path fill="url(#prefix__a)" fill-rule="evenodd" d="M5705.5 712l.692.395c2.8 1.6 5.947 2.49 9.164 2.595l.644.01v7.434c0 2.527-1.062 4.937-2.927 6.642L5705.5 736l-7.573-6.924c-1.865-1.705-2.927-4.115-2.927-6.642V715c3.44 0 6.821-.898 9.808-2.605l.692-.395zm-.002 2.24l-.306.17c-2.351 1.25-4.908 2.054-7.54 2.377l-.702.073v5.574c0 1.856.731 3.631 2.026 4.946l.267.257 6.257 5.72V714.28l.002-.039-.004-.001zm1.951.956v16.379l4.308-3.938c1.37-1.252 2.187-2.99 2.283-4.833l.01-.37v-5.574l-.08-.005c-2.248-.211-4.449-.771-6.521-1.66z" transform="translate(-5695 -712)"/>
</svg>
