<svg xmlns="http://www.w3.org/2000/svg" width="16" height="16" viewBox="0 0 16 16">
    <path fill="#A3B5CA" fill-rule="evenodd" d="M11.888 1.112C14.404 2.502 16 5.144 16 8.059 16 12.445 12.418 16 8 16s-8-3.555-8-7.941c0-2.917 1.599-5.556 4.121-6.947.43-.236.97-.083 1.209.343.238.426.084.963-.346 1.2-1.963 1.082-3.206 3.134-3.206 5.404 0 3.411 2.786 6.176 6.222 6.176 3.436 0 6.222-2.765 6.222-6.176 0-2.268-1.241-4.323-3.2-5.406-.428-.237-.582-.774-.344-1.2.24-.426.78-.578 1.21-.341zM8 0c.552 0 1 .448 1 1v8c0 .552-.448 1-1 1s-1-.448-1-1V1c0-.552.448-1 1-1z"/>
</svg>
