<svg xmlns="http://www.w3.org/2000/svg" width="203" height="152" viewBox="0 0 203 152">
    <defs>
        <linearGradient id="prefix__b" x1="-.02%" x2="100%" y1="49.981%" y2="49.981%">
            <stop offset=".039%" stop-color="#D1D3D4"/>
            <stop offset="30.2%" stop-color="#A8AAAC"/>
            <stop offset="59.31%" stop-color="#88898C"/>
            <stop offset="83.56%" stop-color="#747578"/>
            <stop offset="100%" stop-color="#6D6E71"/>
        </linearGradient>
        <linearGradient id="prefix__c" x1="-.018%" x2="99.996%" y1="49.991%" y2="49.991%">
            <stop offset="0%" stop-color="#808285"/>
            <stop offset="99.96%" stop-color="#D1D3D4"/>
        </linearGradient>
        <linearGradient id="prefix__d" x1="21.181%" x2="75.539%" y1="37.089%" y2="57.097%">
            <stop offset="0%" stop-color="#D4E0EC"/>
            <stop offset="33.23%" stop-color="#BECDDD"/>
            <stop offset="72.65%" stop-color="#AABBCF"/>
            <stop offset="99.43%" stop-color="#A3B5CA"/>
        </linearGradient>
        <linearGradient id="prefix__e" x1="50.009%" x2="50.009%" y1=".451%" y2="98.224%">
            <stop offset="0%" stop-color="#A3B5CA"/>
            <stop offset="26.9%" stop-color="#AABBCF"/>
            <stop offset="66.5%" stop-color="#BECDDD"/>
            <stop offset="99.88%" stop-color="#D4E0EC"/>
        </linearGradient>
        <linearGradient id="prefix__f" x1="-.02%" x2="100%" y1="50.028%" y2="50.028%">
            <stop offset=".039%" stop-color="#D4E0EC"/>
            <stop offset="53.6%" stop-color="#E3ECF5"/>
            <stop offset="100%" stop-color="#EBF2F9"/>
        </linearGradient>
        <linearGradient id="prefix__g" x1="-.02%" x2="100%" y1="49.987%" y2="49.987%">
            <stop offset=".039%" stop-color="#D1D3D4"/>
            <stop offset="30.2%" stop-color="#A8AAAC"/>
            <stop offset="59.31%" stop-color="#88898C"/>
            <stop offset="83.56%" stop-color="#747578"/>
            <stop offset="100%" stop-color="#6D6E71"/>
        </linearGradient>
        <linearGradient id="prefix__h" x1="-.018%" x2="99.996%" y1="49.998%" y2="49.998%">
            <stop offset="0%" stop-color="#808285"/>
            <stop offset="99.96%" stop-color="#D1D3D4"/>
        </linearGradient>
        <linearGradient id="prefix__i" x1="21.181%" x2="75.539%" y1="37.091%" y2="57.098%">
            <stop offset="0%" stop-color="#D4E0EC"/>
            <stop offset="33.23%" stop-color="#BECDDD"/>
            <stop offset="72.65%" stop-color="#AABBCF"/>
            <stop offset="99.43%" stop-color="#A3B5CA"/>
        </linearGradient>
        <linearGradient id="prefix__j" x1="50.009%" x2="50.009%" y1=".455%" y2="98.228%">
            <stop offset="0%" stop-color="#A3B5CA"/>
            <stop offset="26.9%" stop-color="#AABBCF"/>
            <stop offset="66.5%" stop-color="#BECDDD"/>
            <stop offset="99.88%" stop-color="#D4E0EC"/>
        </linearGradient>
        <linearGradient id="prefix__k" x1="-.02%" x2="100%" y1="50.034%" y2="50.034%">
            <stop offset=".039%" stop-color="#D4E0EC"/>
            <stop offset="53.6%" stop-color="#E3ECF5"/>
            <stop offset="100%" stop-color="#EBF2F9"/>
        </linearGradient>
        <linearGradient id="prefix__l" x1="-.02%" x2="100%" y1="49.993%" y2="49.993%">
            <stop offset=".039%" stop-color="#D1D3D4"/>
            <stop offset="30.2%" stop-color="#A8AAAC"/>
            <stop offset="59.31%" stop-color="#88898C"/>
            <stop offset="83.56%" stop-color="#747578"/>
            <stop offset="100%" stop-color="#6D6E71"/>
        </linearGradient>
        <linearGradient id="prefix__m" x1="-.018%" x2="99.996%" y1="50.004%" y2="50.004%">
            <stop offset="0%" stop-color="#808285"/>
            <stop offset="99.96%" stop-color="#D1D3D4"/>
        </linearGradient>
        <linearGradient id="prefix__n" x1="21.181%" x2="75.539%" y1="37.074%" y2="57.081%">
            <stop offset="0%" stop-color="#D4E0EC"/>
            <stop offset="33.23%" stop-color="#BECDDD"/>
            <stop offset="72.65%" stop-color="#AABBCF"/>
            <stop offset="99.43%" stop-color="#A3B5CA"/>
        </linearGradient>
        <linearGradient id="prefix__o" x1="50.009%" x2="50.009%" y1=".458%" y2="98.231%">
            <stop offset="0%" stop-color="#A3B5CA"/>
            <stop offset="26.9%" stop-color="#AABBCF"/>
            <stop offset="66.5%" stop-color="#BECDDD"/>
            <stop offset="99.88%" stop-color="#D4E0EC"/>
        </linearGradient>
        <linearGradient id="prefix__q" x1="-.02%" x2="100%" y1="50.04%" y2="50.04%">
            <stop offset=".039%" stop-color="#D4E0EC"/>
            <stop offset="53.6%" stop-color="#E3ECF5"/>
            <stop offset="100%" stop-color="#EBF2F9"/>
        </linearGradient>
        <linearGradient id="prefix__p" x1="50%" x2="50%" y1="0%" y2="100%">
            <stop offset="0%" stop-color="#FFF" stop-opacity="0"/>
            <stop offset="100%" stop-color="#FFF"/>
        </linearGradient>
        <filter id="prefix__a" width="155%" height="238.5%" x="-27.5%" y="-69.2%" filterUnits="objectBoundingBox">
            <feGaussianBlur in="SourceGraphic" stdDeviation="12"/>
        </filter>
    </defs>
    <g fill="none" fill-rule="evenodd" transform="translate(36)">
        <ellipse cx="65.5" cy="90" fill="#D4E0EC" filter="url(#prefix__a)" rx="65.5" ry="26"/>
        <g fill-rule="nonzero">
            <g>
                <path fill="url(#prefix__b)" d="M17.574 45.91L44.052 30.632 70.529 45.91 44.052 61.213z" transform="translate(21) translate(0 38.71)"/>
                <path fill="url(#prefix__c)" d="M20.439 47.561L44.052 33.935 67.665 47.561 44.052 61.213z" transform="translate(21) translate(0 38.71)"/>
                <path fill="url(#prefix__d)" d="M87.923 27.071H75.252L46.839 10.658c-1.73-.98-3.845-.98-5.549 0L12.877 27.071H.207v10.323c-.078 1.935.851 3.922 2.76 5.032l35.614 20.568c3.38 1.96 7.587 1.96 10.967 0l35.613-20.568c1.936-1.11 2.839-3.097 2.762-5.032V27.07z" transform="translate(21) translate(0 38.71)"/>
                <path fill="url(#prefix__e)" d="M38.555 52.465L2.942 31.897c-3.716-2.142-3.716-7.484 0-9.626L38.555 1.703c3.38-1.961 7.587-1.961 10.968 0l35.612 20.568c3.717 2.142 3.717 7.484 0 9.626L49.523 52.465c-3.381 1.96-7.562 1.96-10.968 0z" transform="translate(21) translate(0 38.71)"/>
                <g fill="#EBF2F9">
                    <g>
                        <path d="M3.768 2.606c0 .413-.31.594-.671.388-.362-.207-.671-.723-.671-1.136 0-.413.31-.593.67-.387.362.206.672.723.672 1.135zM3.768 5.394c0 .412-.31.593-.671.387-.362-.207-.671-.723-.671-1.136 0-.413.31-.593.67-.387.362.207.672.723.672 1.136zM1.394 1.239c0 .413-.31.593-.671.387C.36 1.419.052.903.052.49c0-.413.31-.593.67-.387.362.207.672.723.672 1.136zM1.394 4.026c0 .413-.31.593-.671.387C.36 4.206.052 3.69.052 3.277c0-.412.31-.593.67-.387.362.207.672.723.672 1.136z" transform="translate(21) translate(0 38.71) translate(4.387 35.871) translate(31.484 18.58)"/>
                    </g>
                    <path d="M29.729 21.729l-.052-.026c-.18-.103-.31-.361-.31-.593v-3.871c0-.233.13-.336.31-.233l.052.026c.18.103.31.362.31.594v3.87c0 .233-.155.336-.31.233zM27.665 20.542l-.052-.026c-.18-.103-.31-.361-.31-.593v-3.871c0-.233.13-.336.31-.233l.052.026c.18.103.31.361.31.594v3.87c-.027.233-.156.336-.31.233zM25.445 16.929c0 .206-.129.31-.284.206L.491 2.89c-.156-.077-.285-.335-.285-.542 0-.206.13-.31.284-.206l24.671 14.245c.155.078.284.336.284.542zM25.445 18.89c0 .207-.129.31-.284.207L.491 4.852C.334 4.774.205 4.516.205 4.31c0-.207.13-.31.284-.207l24.671 14.245c.155.078.284.336.284.542zM25.445 14.968c0 .206-.129.31-.284.206L.491.93C.334.852.205.594.205.387c0-.206.13-.31.284-.206l24.671 14.245c.155.077.284.31.284.542z" transform="translate(21) translate(0 38.71) translate(4.387 35.871)"/>
                </g>
                <path fill="url(#prefix__f)" d="M17.574 27.923L44.052 12.619 70.529 27.923 44.052 43.2z" transform="translate(21) translate(0 38.71)"/>
            </g>
            <g>
                <path fill="url(#prefix__g)" d="M17.574 45.858L44.052 30.581 70.529 45.858 44.052 61.161z" transform="translate(21) translate(0 19.355)"/>
                <path fill="url(#prefix__h)" d="M20.439 47.51L44.052 33.884 67.665 47.51 44.052 61.161z" transform="translate(21) translate(0 19.355)"/>
                <path fill="url(#prefix__i)" d="M87.923 27.02H75.252L46.839 10.605c-1.73-.98-3.845-.98-5.549 0L12.877 27.02H.207v10.323c-.078 1.935.851 3.923 2.76 5.032l35.614 20.568c3.38 1.961 7.587 1.961 10.967 0l35.613-20.568c1.936-1.11 2.839-3.097 2.762-5.032V27.019z" transform="translate(21) translate(0 19.355)"/>
                <path fill="url(#prefix__j)" d="M38.555 52.413L2.942 31.845c-3.716-2.142-3.716-7.484 0-9.626L38.555 1.652c3.38-1.962 7.587-1.962 10.968 0l35.612 20.567c3.717 2.142 3.717 7.484 0 9.626L49.523 52.413c-3.381 1.961-7.562 1.961-10.968 0z" transform="translate(21) translate(0 19.355)"/>
                <g fill="#EBF2F9">
                    <g>
                        <path d="M3.768 2.813c0 .413-.31.593-.671.387-.362-.206-.671-.723-.671-1.135 0-.413.31-.594.67-.388.362.207.672.723.672 1.136zM3.768 5.6c0 .413-.31.594-.671.387-.362-.206-.671-.722-.671-1.135 0-.413.31-.594.67-.387.362.206.672.722.672 1.135zM1.394 1.445c0 .413-.31.594-.671.387C.36 1.626.052 1.11.052.697c0-.413.31-.594.67-.387.362.206.672.722.672 1.135zM1.394 4.232c0 .413-.31.594-.671.387C.36 4.413.052 3.897.052 3.484c0-.413.31-.594.67-.387.362.206.672.722.672 1.135z" transform="translate(21) translate(0 19.355) translate(4.387 35.871) translate(31.484 18.323)"/>
                    </g>
                    <path d="M29.729 21.677l-.052-.025c-.18-.104-.31-.362-.31-.594v-3.87c0-.233.13-.336.31-.233l.052.026c.18.103.31.36.31.593v3.871c0 .232-.155.336-.31.232zM27.665 20.49l-.052-.025c-.18-.104-.31-.362-.31-.594V16c0-.232.13-.335.31-.232l.052.026c.18.103.31.36.31.593v3.871c-.027.232-.156.336-.31.232zM25.445 16.877c0 .207-.129.31-.284.207L.491 2.839C.334 2.76.205 2.503.205 2.297c0-.207.13-.31.284-.207l24.671 14.245c.155.078.284.336.284.542zM25.445 18.839c0 .206-.129.31-.284.206L.491 4.8c-.156-.077-.285-.335-.285-.542 0-.206.13-.31.284-.206l24.671 14.245c.155.077.284.335.284.542zM25.445 14.916c0 .207-.129.31-.284.207L.491.877C.334.8.205.542.205.335.206.13.336.025.49.13l24.671 14.245c.155.078.284.336.284.542z" transform="translate(21) translate(0 19.355) translate(4.387 35.871)"/>
                </g>
                <path fill="url(#prefix__k)" d="M17.574 27.871L44.052 12.568 70.529 27.871 44.052 43.148z" transform="translate(21) translate(0 19.355)"/>
            </g>
            <path fill="url(#prefix__l)" d="M17.574 45.806L44.052 30.529 70.529 45.806 44.052 61.11z" transform="translate(21)"/>
            <path fill="url(#prefix__m)" d="M20.439 47.484L44.052 33.832 67.665 47.484 44.052 61.11z" transform="translate(21)"/>
            <path fill="url(#prefix__n)" d="M87.923 26.994H75.252L46.839 10.58c-1.73-.981-3.845-.981-5.549 0L12.877 26.994H.207v10.322c-.078 1.936.851 3.923 2.76 5.032l35.614 20.568c3.38 1.961 7.587 1.961 10.967 0l35.613-20.568c1.936-1.11 2.839-3.096 2.762-5.032V26.994z" transform="translate(21)"/>
            <path fill="url(#prefix__o)" d="M38.555 52.361L2.942 31.794c-3.716-2.142-3.716-7.484 0-9.626L38.555 1.6c3.38-1.961 7.587-1.961 10.968 0l35.612 20.568c3.717 2.142 3.717 7.484 0 9.626L49.523 52.36c-3.381 1.962-7.562 1.962-10.968 0z" transform="translate(21)"/>
            <g fill="#EBF2F9">
                <g>
                    <path d="M3.768 2.761c0 .413-.31.594-.671.387-.362-.206-.671-.722-.671-1.135 0-.413.31-.594.67-.387.362.206.672.722.672 1.135zM3.768 5.548c0 .413-.31.594-.671.387-.362-.206-.671-.722-.671-1.135 0-.413.31-.594.67-.387.362.206.672.722.672 1.135zM1.394 1.394c0 .412-.31.593-.671.387C.36 1.574.052 1.058.052.645c0-.413.31-.593.67-.387.362.207.672.723.672 1.136zM1.394 4.18c0 .414-.31.594-.671.388C.36 4.36.052 3.845.052 3.432c0-.413.31-.593.67-.387.362.207.672.723.672 1.136z" transform="translate(21) translate(4.387 35.871) translate(31.484 18.323)"/>
                </g>
                <path d="M29.729 21.626l-.052-.026c-.18-.103-.31-.361-.31-.594v-3.87c0-.233.13-.336.31-.233l.052.026c.18.103.31.361.31.594v3.87c0 .233-.155.336-.31.233zM27.665 20.439l-.052-.026c-.18-.103-.31-.361-.31-.594v-3.87c0-.233.13-.336.31-.233l.052.026c.18.103.31.361.31.593v3.871c-.027.233-.156.336-.31.233zM25.445 16.826c0 .206-.129.31-.284.206L.491 2.787C.334 2.71.205 2.452.205 2.245c0-.206.13-.31.284-.206l24.671 14.245c.155.077.284.335.284.542zM25.445 18.787c0 .207-.129.31-.284.207L.491 4.748c-.156-.077-.285-.335-.285-.542 0-.206.13-.31.284-.206l24.671 14.245c.155.078.284.336.284.542zM25.445 14.865c0 .206-.129.31-.284.206L.491.826C.334.748.205.49.205.284c0-.207.13-.31.284-.207l24.671 14.246c.155.077.284.335.284.542z" transform="translate(21) translate(4.387 35.871)"/>
            </g>
            <path fill="url(#prefix__q)" stroke="url(#prefix__p)" d="M20.573 26.086L42.05 13.673c1.238-.716 2.765-.716 4.003 0l21.478 12.413c.956.553 1.283 1.776.73 2.733-.175.304-.428.556-.732.731L46.051 41.943c-1.237.714-2.761.714-3.998 0L20.573 29.55c-.956-.552-1.284-1.775-.732-2.732.176-.304.428-.556.732-.732z" transform="translate(21)"/>
        </g>
    </g>
</svg>
