<svg xmlns="http://www.w3.org/2000/svg" width="89" height="17" viewBox="0 0 89 17">
    <g fill="none">
        <path fill="#25B78B" d="M.358 0H16.830000000000002V16.088H.358zM18.183 0H34.655V16.088H18.183zM36.007 0H52.479V16.088H36.007zM53.872 0H70.344V16.088H53.872zM71.697 0H88.16900000000001V16.088H71.697z"/>
        <path fill="#FFF" d="M8.594 11.028l2.507-.632 1.034 3.201-3.541-2.569zm5.77-4.15H9.946L8.594 2.767l-1.353 4.11H2.825l3.541 2.57-1.353 4.11 3.541-2.568 2.189-1.581 3.62-2.53zM26.419 11.028l2.506-.632 1.035 3.201-3.541-2.569zm5.769-4.15H27.77L26.42 2.767l-1.353 4.11H20.65l3.54 2.57-1.352 4.11 3.54-2.568 2.19-1.581 3.62-2.53zM44.243 11.028l2.507-.632 1.034 3.201-3.54-2.569zm5.77-4.15h-4.417l-1.353-4.111-1.352 4.11h-4.417l3.541 2.57-1.352 4.11 3.54-2.568 2.189-1.581 3.62-2.53zM62.068 11.028l2.507-.632 1.034 3.201-3.54-2.569zm5.77-4.15H63.42l-1.353-4.111-1.353 4.11H56.3l3.541 2.57-1.353 4.11 3.541-2.568 2.189-1.581 3.62-2.53zM79.893 11.028l2.506-.632 1.035 3.201-3.541-2.569zm5.769-4.15h-4.416l-1.353-4.111-1.353 4.11h-4.416l3.54 2.57-1.352 4.11 3.541-2.568 2.188-1.581 3.62-2.53z"/>
    </g>
</svg>
