<svg xmlns="http://www.w3.org/2000/svg" width="116" height="28" viewBox="0 0 116 28">
    <g fill="none">
        <path fill="#0CB47B" d="M13.86 0.29L10.597 10.316 0 10.316 8.562 16.537 5.299 26.563 13.86 20.373 22.422 26.563 19.127 16.537 27.688 10.316 17.124 10.316z"/>
        <path fill="#055229" d="M19.87 18.794L19.127 16.537 13.86 20.373z"/>
        <path fill="#213245" d="M30.218 9.414h11.771v2.189h-4.627V23.86h-2.549V11.603h-4.595v-2.19zm11.268 4.002h2.171v2.033h.032c.063-.282.189-.563.409-.845.189-.281.44-.5.724-.75.283-.219.598-.406.913-.532.346-.125.692-.187 1.038-.187.284 0 .472 0 .567.031.094 0 .22.031.315.031v2.22c-.158-.03-.315-.062-.504-.062-.157-.031-.346-.031-.504-.031-.409 0-.755.062-1.101.219-.346.156-.661.375-.913.687-.252.313-.472.688-.598 1.126-.157.438-.22.97-.22 1.532v4.972h-2.33V13.416zM58.293 23.86h-2.266v-1.47h-.063c-.283.532-.724.939-1.259 1.251-.567.313-1.133.47-1.731.47-1.385 0-2.392-.345-2.99-1.033-.63-.688-.913-1.72-.913-3.095v-6.567h2.33v6.41c0 .907.188 1.564.534 1.94.346.374.85.562 1.48.562.503 0 .88-.063 1.227-.219.315-.156.598-.344.787-.594.189-.25.346-.563.44-.907.095-.344.126-.719.126-1.126v-6.066h2.33V23.86h-.032zm3.934-3.346c.063.688.315 1.157.787 1.407.441.282.976.407 1.606.407.22 0 .472-.031.755-.063.283-.03.535-.093.787-.187s.44-.22.598-.407c.157-.187.22-.406.22-.719 0-.281-.126-.531-.315-.72-.188-.187-.472-.343-.786-.468-.315-.125-.693-.219-1.102-.282-.41-.093-.818-.156-1.228-.25-.44-.094-.85-.219-1.259-.344-.409-.125-.755-.312-1.07-.531-.314-.22-.566-.532-.755-.876-.189-.344-.283-.813-.283-1.313 0-.563.125-1.032.409-1.438.283-.376.63-.688 1.07-.939.44-.25.913-.406 1.416-.5.535-.094 1.007-.156 1.511-.156.535 0 1.07.062 1.542.156.504.125.945.313 1.354.563.409.25.724.594 1.007 1 .252.407.44.907.504 1.502H66.57c-.094-.563-.378-.939-.755-1.126-.41-.188-.85-.282-1.385-.282-.158 0-.347 0-.567.032-.22.031-.44.062-.63.156-.188.063-.377.188-.503.313-.126.156-.189.312-.189.563 0 .281.095.5.283.688.19.187.441.312.787.437.315.125.693.22 1.102.282.41.094.818.156 1.259.25.41.094.85.219 1.227.344.41.125.756.313 1.102.531.315.22.567.532.787.876.189.344.283.782.283 1.282 0 .625-.157 1.157-.44 1.563-.284.438-.661.782-1.102 1.064-.44.281-.944.469-1.51.594-.567.125-1.102.187-1.638.187-.66 0-1.29-.062-1.857-.219-.566-.156-1.038-.375-1.479-.688-.409-.312-.724-.687-.976-1.125-.251-.438-.377-1-.377-1.595h2.234v.031zm7.649-7.098h1.762V10.29h2.33v3.127h2.108v1.72h-2.108v5.566c0 .25 0 .438.031.625.031.188.063.313.157.438.063.125.19.219.347.282.157.062.346.093.598.093h.503c.158 0 .315-.03.504-.062v1.782l-.756.094c-.251.031-.503.031-.755.031-.598 0-1.102-.062-1.48-.156-.377-.125-.66-.282-.88-.5-.22-.22-.347-.5-.441-.845-.063-.344-.126-.719-.126-1.157v-6.191h-1.763v-1.72h-.031zm7.806 0h2.203v1.407h.031c.315-.594.787-1.032 1.354-1.313.598-.25 1.227-.406 1.888-.406.818 0 1.542.156 2.172.437.63.282 1.133.688 1.542 1.189.41.5.724 1.094.913 1.782.189.688.315 1.407.315 2.157 0 .688-.095 1.376-.284 2.033-.188.657-.472 1.25-.818 1.751-.378.5-.85.907-1.416 1.22-.567.312-1.228.469-2.015.469-.346 0-.692-.032-1.007-.094-.346-.063-.66-.157-.976-.282-.314-.125-.598-.312-.85-.5-.251-.219-.472-.469-.66-.75h-.032v5.222h-2.36V13.416zm8.089 5.222c0-.469-.063-.938-.19-1.376-.125-.437-.314-.844-.534-1.188-.252-.344-.535-.625-.913-.813-.378-.219-.787-.313-1.26-.313-.975 0-1.699.344-2.202 1.001-.504.688-.756 1.564-.756 2.69 0 .53.063 1 .19 1.469.125.438.314.844.566 1.157.251.312.566.594.912.782.347.187.787.281 1.26.281.534 0 .975-.094 1.353-.313.377-.219.66-.5.913-.844.251-.344.409-.72.503-1.157.095-.469.158-.907.158-1.376m4.091-9.224h2.33v2.189h-2.33v-2.19zm0 4.002h2.33V23.86h-2.33V13.416zm4.375-4.002h2.33V23.86h-2.33V9.414zm9.443 14.728c-.85 0-1.606-.126-2.235-.407-.661-.281-1.228-.657-1.668-1.157-.44-.5-.787-1.063-1.039-1.751-.252-.688-.346-1.407-.346-2.22 0-.782.126-1.532.346-2.189.252-.688.598-1.25 1.039-1.751.44-.5 1.007-.876 1.668-1.157.66-.281 1.416-.406 2.235-.406.85 0 1.605.125 2.234.406.661.281 1.228.657 1.668 1.157.441.5.787 1.063 1.04 1.751.25.688.345 1.407.345 2.189 0 .813-.126 1.563-.346 2.22-.252.688-.598 1.25-1.039 1.751-.44.5-1.007.876-1.668 1.157-.66.25-1.416.407-2.234.407m0-1.814c.503 0 .975-.094 1.353-.313s.692-.5.944-.844.41-.75.535-1.188c.126-.438.19-.876.19-1.345 0-.438-.064-.875-.19-1.344-.126-.438-.283-.845-.535-1.189-.252-.344-.566-.625-.944-.844-.378-.219-.818-.313-1.353-.313-.504 0-.976.094-1.354.313-.377.219-.692.5-.944.844s-.41.75-.535 1.189c-.126.437-.157.875-.157 1.344 0 .47.062.907.157 1.345.126.438.283.844.535 1.188.252.344.567.625.944.844.378.188.819.313 1.354.313m5.98-8.912h1.762V10.29h2.33v3.127h2.108v1.72h-2.108v5.566c0 .25 0 .438.031.625.031.188.063.313.157.438.063.125.19.219.347.282.157.062.346.093.598.093h.503c.158 0 .315-.03.504-.062v1.782l-.756.094c-.251.031-.503.031-.755.031-.598 0-1.102-.062-1.48-.156-.377-.125-.66-.282-.88-.5-.22-.22-.347-.5-.441-.845-.063-.344-.126-.719-.126-1.157v-6.191h-1.763v-1.72h-.031z"/>
    </g>
</svg>
