<svg xmlns="http://www.w3.org/2000/svg" xmlns:xlink="http://www.w3.org/1999/xlink" width="255" height="58" viewBox="0 0 255 58">
    <defs>
        <filter id="prefix__a" width="118.5%" height="178.9%" x="-9.3%" y="-31.6%" filterUnits="objectBoundingBox">
            <feOffset dy="3" in="SourceAlpha" result="shadowOffsetOuter1"/>
            <feGaussianBlur in="shadowOffsetOuter1" result="shadowBlurOuter1" stdDeviation="4.5"/>
            <feColorMatrix in="shadowBlurOuter1" values="0 0 0 0 1 0 0 0 0 0.392156863 0 0 0 0 0 0 0 0 0.247404939 0"/>
        </filter>
        <filter id="prefix__c" width="203.1%" height="203.1%" x="-51.6%" y="-51.6%" filterUnits="objectBoundingBox">
            <feMorphology in="SourceAlpha" operator="dilate" radius=".5" result="shadowSpreadOuter1"/>
            <feOffset in="shadowSpreadOuter1" result="shadowOffsetOuter1"/>
            <feGaussianBlur in="shadowOffsetOuter1" result="shadowBlurOuter1" stdDeviation="5"/>
            <feColorMatrix in="shadowBlurOuter1" values="0 0 0 0 0.637700248 0 0 0 0 0.710821927 0 0 0 0 0.790591033 0 0 0 0.349022072 0"/>
        </filter>
        <circle id="prefix__d" cx="16" cy="16" r="16"/>
        <circle id="prefix__e" cx="14" cy="14" r="14"/>
        <rect id="prefix__b" width="162" height="38" x="84" y="0" rx="19"/>
    </defs>
    <g fill="none" fill-rule="evenodd" transform="translate(0 8)">
        <use fill="#000" filter="url(#prefix__a)" xlink:href="#prefix__b"/>
        <use fill="#FFF" xlink:href="#prefix__b"/>
        <path fill="#65707C" d="M233.807 13.193c.257.256.257.672 0 .93l-4.88 4.879 4.879 4.878c.257.257.257.673 0 .93-.257.256-.673.256-.93 0l-4.878-4.879-4.874 4.875c-.257.257-.673.257-.93 0s-.257-.673 0-.93l4.874-4.875-4.875-4.875c-.257-.257-.257-.673 0-.93.256-.256.672-.256.93 0l4.875 4.876 4.88-4.88c.257-.256.673-.256.93 0z"/>
        <g transform="translate(124 9)">
            <circle cx="10" cy="10" r="10" fill="#EBF2F9"/>
            <path fill="#65707C" d="M9.494 4.176L5.209 7.785c-.279.234-.279.613 0 .848.278.234.728.234 1.007 0l3.07-2.58v9.384c0 .331.322.563.715.563.393 0 .714-.232.714-.563V6.052l3.064 2.58c.278.235.728.235 1.007 0 .143-.114.214-.264.214-.42 0-.157-.071-.307-.207-.427l-4.285-3.61c-.279-.234-.736-.234-1.014 0z"/>
        </g>
        <g transform="translate(96 9)">
            <circle cx="10" cy="10" r="10" fill="#EBF2F9"/>
            <path fill="#65707C" d="M4.176 10.506l3.609 4.285c.234.279.613.279.848 0 .234-.278.234-.728 0-1.007l-2.58-3.07h9.384c.331 0 .563-.322.563-.715 0-.393-.232-.714-.563-.714H6.052l2.58-3.064c.235-.278.235-.728 0-1.007C8.519 5.071 8.369 5 8.213 5c-.157 0-.307.071-.427.207l-3.61 4.285c-.234.279-.234.736 0 1.014z"/>
        </g>
        <rect width="3" height="27" x="156" y="6" fill="#EBF2F9" opacity=".55" rx="1.5"/>
        <g transform="translate(171 3)">
            <use fill="#000" filter="url(#prefix__c)" xlink:href="#prefix__d"/>
            <use fill="#FFF" xlink:href="#prefix__d"/>
            <g transform="translate(2 2)">
                <mask id="prefix__f" fill="#fff">
                    <use xlink:href="#prefix__e"/>
                </mask>
                <use fill="#D8D8D8" xlink:href="#prefix__e"/>
                <g mask="url(#prefix__f)">
                    <g>
                        <path fill="#FFF" d="M0.001 28.149L54.371 28.149 54.371 0.106 0.001 0.106z" transform="translate(-6.8)"/>
                        <path fill="#D01C31" d="M.001 2.219L54.326 2.219 54.326 0 .001 0zM.001 6.558L54.326 6.558 54.326 4.34.001 4.34zM.001 10.897L54.326 10.897 54.326 8.679.001 8.679zM.001 15.236L54.326 15.236 54.326 13.018.001 13.018zM.001 19.575L54.326 19.575 54.326 17.357.001 17.357zM.001 23.914L54.326 23.914 54.326 21.696.001 21.696zM.001 28.253L54.326 28.253 54.326 26.035.001 26.035z" transform="translate(-6.8)"/>
                        <path fill="#3A3870" d="M0 15.237L21.697 15.237 21.697 0 0 0z" transform="translate(-6.8)"/>
                        <path fill="#FFF" d="M1.845.583L2.048 1.205 2.705 1.205 2.174 1.59 2.377 2.212 1.845 1.827 1.314 2.212 1.517 1.59.985 1.205 1.642 1.205zM3.634 2.147L3.837 2.769 4.494 2.769 3.962 3.153 4.165 3.775 3.634 3.391 3.102 3.775 3.305 3.153 2.774 2.769 3.431 2.769zM3.634 5.202L3.837 5.823 4.494 5.823 3.962 6.208 4.165 6.83 3.634 6.445 3.102 6.83 3.305 6.208 2.774 5.823 3.431 5.823zM3.634 8.256L3.837 8.878 4.494 8.878 3.962 9.263 4.165 9.884 3.634 9.5 3.102 9.884 3.305 9.263 2.774 8.878 3.431 8.878zM3.634 11.311L3.837 11.933 4.494 11.933 3.962 12.317 4.165 12.939 3.634 12.555 3.102 12.939 3.305 12.317 2.774 11.933 3.431 11.933zM7.258 2.147L7.462 2.769 8.119 2.769 7.587 3.153 7.79 3.775 7.258 3.391 6.727 3.775 6.93 3.153 6.398 2.769 7.055 2.769zM7.258 5.202L7.462 5.823 8.119 5.823 7.587 6.208 7.79 6.83 7.258 6.445 6.727 6.83 6.93 6.208 6.398 5.823 7.055 5.823zM7.258 8.256L7.462 8.878 8.119 8.878 7.587 9.263 7.79 9.884 7.258 9.5 6.727 9.884 6.93 9.263 6.398 8.878 7.055 8.878zM7.258 11.311L7.462 11.933 8.119 11.933 7.587 12.317 7.79 12.939 7.258 12.555 6.727 12.939 6.93 12.317 6.398 11.933 7.055 11.933zM10.883 2.147L11.086 2.769 11.743 2.769 11.212 3.153 11.415 3.775 10.883 3.391 10.352 3.775 10.555 3.153 10.023 2.769 10.68 2.769zM10.883 5.202L11.086 5.823 11.743 5.823 11.212 6.208 11.415 6.83 10.883 6.445 10.352 6.83 10.555 6.208 10.023 5.823 10.68 5.823zM10.883 8.256L11.086 8.878 11.743 8.878 11.212 9.263 11.415 9.884 10.883 9.5 10.352 9.884 10.555 9.263 10.023 8.878 10.68 8.878zM10.883 11.311L11.086 11.933 11.743 11.933 11.212 12.317 11.415 12.939 10.883 12.555 10.352 12.939 10.555 12.317 10.023 11.933 10.68 11.933zM14.508 2.147L14.711 2.769 15.368 2.769 14.837 3.153 15.04 3.775 14.508 3.391 13.977 3.775 14.18 3.153 13.648 2.769 14.305 2.769zM14.508 5.202L14.711 5.823 15.368 5.823 14.837 6.208 15.04 6.83 14.508 6.445 13.977 6.83 14.18 6.208 13.648 5.823 14.305 5.823zM14.508 8.256L14.711 8.878 15.368 8.878 14.837 9.263 15.04 9.884 14.508 9.5 13.977 9.884 14.18 9.263 13.648 8.878 14.305 8.878zM14.508 11.311L14.711 11.933 15.368 11.933 14.837 12.317 15.04 12.939 14.508 12.555 13.977 12.939 14.18 12.317 13.648 11.933 14.305 11.933zM18.133 2.147L18.336 2.769 18.993 2.769 18.462 3.153 18.664 3.775 18.133 3.391 17.601 3.775 17.804 3.153 17.273 2.769 17.93 2.769zM18.133 5.202L18.336 5.823 18.993 5.823 18.462 6.208 18.664 6.83 18.133 6.445 17.601 6.83 17.804 6.208 17.273 5.823 17.93 5.823zM18.133 8.256L18.336 8.878 18.993 8.878 18.462 9.263 18.664 9.884 18.133 9.5 17.601 9.884 17.804 9.263 17.273 8.878 17.93 8.878zM18.133 11.311L18.336 11.933 18.993 11.933 18.462 12.317 18.664 12.939 18.133 12.555 17.601 12.939 17.804 12.317 17.273 11.933 17.93 11.933zM1.845 3.638L2.048 4.26 2.705 4.26 2.174 4.644 2.377 5.266 1.845 4.882 1.314 5.266 1.517 4.644.985 4.26 1.642 4.26zM1.845 6.693L2.048 7.315 2.705 7.315 2.174 7.699 2.377 8.321 1.845 7.937 1.314 8.321 1.517 7.699.985 7.315 1.642 7.315zM1.845 9.747L2.048 10.369 2.705 10.369 2.174 10.754 2.377 11.376 1.845 10.991 1.314 11.376 1.517 10.754.985 10.369 1.642 10.369zM1.845 12.802L2.048 13.424 2.705 13.424 2.174 13.808 2.377 14.43 1.845 14.046 1.314 14.43 1.517 13.808.985 13.424 1.642 13.424zM5.422.583L5.625 1.205 6.282 1.205 5.75 1.59 5.953 2.212 5.422 1.827 4.89 2.212 5.093 1.59 4.562 1.205 5.219 1.205zM5.422 3.638L5.625 4.26 6.282 4.26 5.75 4.644 5.953 5.266 5.422 4.882 4.89 5.266 5.093 4.644 4.562 4.26 5.219 4.26zM5.422 6.693L5.625 7.315 6.282 7.315 5.75 7.699 5.953 8.321 5.422 7.937 4.89 8.321 5.093 7.699 4.562 7.315 5.219 7.315zM5.422 9.747L5.625 10.369 6.282 10.369 5.75 10.754 5.953 11.376 5.422 10.991 4.89 11.376 5.093 10.754 4.562 10.369 5.219 10.369zM5.422 12.802L5.625 13.424 6.282 13.424 5.75 13.808 5.953 14.43 5.422 14.046 4.89 14.43 5.093 13.808 4.562 13.424 5.219 13.424zM9.095.583L9.298 1.205 9.955 1.205 9.424 1.59 9.627 2.212 9.095 1.827 8.564 2.212 8.767 1.59 8.235 1.205 8.892 1.205zM9.095 3.638L9.298 4.26 9.955 4.26 9.424 4.644 9.627 5.266 9.095 4.882 8.564 5.266 8.767 4.644 8.235 4.26 8.892 4.26zM9.095 6.693L9.298 7.315 9.955 7.315 9.424 7.699 9.627 8.321 9.095 7.937 8.564 8.321 8.767 7.699 8.235 7.315 8.892 7.315zM9.095 9.747L9.298 10.369 9.955 10.369 9.424 10.754 9.627 11.376 9.095 10.991 8.564 11.376 8.767 10.754 8.235 10.369 8.892 10.369zM9.095 12.802L9.298 13.424 9.955 13.424 9.424 13.808 9.627 14.43 9.095 14.046 8.564 14.43 8.767 13.808 8.235 13.424 8.892 13.424zM12.696.583L12.899 1.205 13.556 1.205 13.024 1.59 13.227 2.212 12.696 1.827 12.164 2.212 12.367 1.59 11.836 1.205 12.493 1.205zM12.696 3.638L12.899 4.26 13.556 4.26 13.024 4.644 13.227 5.266 12.696 4.882 12.164 5.266 12.367 4.644 11.836 4.26 12.493 4.26zM12.696 6.693L12.899 7.315 13.556 7.315 13.024 7.699 13.227 8.321 12.696 7.937 12.164 8.321 12.367 7.699 11.836 7.315 12.493 7.315zM12.696 9.747L12.899 10.369 13.556 10.369 13.024 10.754 13.227 11.376 12.696 10.991 12.164 11.376 12.367 10.754 11.836 10.369 12.493 10.369zM12.696 12.802L12.899 13.424 13.556 13.424 13.024 13.808 13.227 14.43 12.696 14.046 12.164 14.43 12.367 13.808 11.836 13.424 12.493 13.424zM16.296.583L16.499 1.205 17.156 1.205 16.625 1.59 16.828 2.212 16.296 1.827 15.765 2.212 15.968 1.59 15.436 1.205 16.093 1.205zM16.296 3.638L16.499 4.26 17.156 4.26 16.625 4.644 16.828 5.266 16.296 4.882 15.765 5.266 15.968 4.644 15.436 4.26 16.093 4.26zM16.296 6.693L16.499 7.315 17.156 7.315 16.625 7.699 16.828 8.321 16.296 7.937 15.765 8.321 15.968 7.699 15.436 7.315 16.093 7.315zM16.296 9.747L16.499 10.369 17.156 10.369 16.625 10.754 16.828 11.376 16.296 10.991 15.765 11.376 15.968 10.754 15.436 10.369 16.093 10.369zM16.296 12.802L16.499 13.424 17.156 13.424 16.625 13.808 16.828 14.43 16.296 14.046 15.765 14.43 15.968 13.808 15.436 13.424 16.093 13.424zM19.97.583L20.173 1.205 20.83 1.205 20.298 1.59 20.501 2.212 19.97 1.827 19.438 2.212 19.641 1.59 19.109 1.205 19.766 1.205zM19.97 3.638L20.173 4.26 20.83 4.26 20.298 4.644 20.501 5.266 19.97 4.882 19.438 5.266 19.641 4.644 19.109 4.26 19.766 4.26zM19.97 6.693L20.173 7.315 20.83 7.315 20.298 7.699 20.501 8.321 19.97 7.937 19.438 8.321 19.641 7.699 19.109 7.315 19.766 7.315zM19.97 9.747L20.173 10.369 20.83 10.369 20.298 10.754 20.501 11.376 19.97 10.991 19.438 11.376 19.641 10.754 19.109 10.369 19.766 10.369zM19.97 12.802L20.173 13.424 20.83 13.424 20.298 13.808 20.501 14.43 19.97 14.046 19.438 14.43 19.641 13.808 19.109 13.424 19.766 13.424z" transform="translate(-6.8)"/>
                    </g>
                </g>
            </g>
        </g>
        <path fill="#A3B5CA" fill-opacity=".8" d="M10.212 6c-.05.13-.725 1.957.235 3.439l.109.157.13.17c1.194 1.496 3.92 3.666 5.439 6.94l.176.399.024-.241c.113-.88.505-1.697 1.115-2.328l.172-.168.163-.143c1.108-.957 1.6-1.029 1.645-1.033h.004c-.074.139-1.002 1.954-.613 3.54l.05.182.086.284c.487 1.668 1.082 4.435 1.052 6.338l-.013.346-.004.278c-.13 5.348-4.02 9.69-9.724 9.836L9.961 34l-.326-.004C3.487 33.848.117 29.51.003 24.165L0 23.882l.014-.4c.078-1.463.447-2.895 1.085-4.208l.181-.355.096-.198c1.03-2.268.04-5.233-.602-5.6l-.056-.025c.18.045 2.951.77 3.399 3.283l.036.25c.112-.07 1.768-1.133 2.179-3.821l.038-.284C6.715 9.532 7.902 7.019 10.212 6zM3.567 24.594H2.5l.006.248c.168 4.033 3.46 7.245 7.493 7.249 4.034-.003 7.327-3.215 7.495-7.249l.006-.248h-1.067l-.008.236c-.183 3.44-2.983 6.172-6.426 6.217C6.48 31 3.63 28.144 3.567 24.594zm58.088-7.246c.994.243 1.892.805 2.57 1.609.581.953.805 2.1.628 3.217-.14 1.234-.486 2.478-.694 3.722-.063.606-.089 1.217-.076 1.827.12.558.055 1.142-.184 1.656-.296.392-.746.62-1.222.621-.342 0-.674-.117-.945-.335-.13-.07-.206-.22-.271-.286-.206-.368-.423-.733-.628-1.142-1.072.571-2.273.824-3.472.73-.883-.165-1.716-.551-2.428-1.126-.798-.668-1.239-1.702-1.182-2.773.02-1.028.478-1.992 1.247-2.627.876-.616 1.935-.875 2.98-.73h.63c.75-.003 1.196-.016 2.082-.08l.835-.07v-.069c.012-.223-.014-.447-.076-.66-.066-.514-1.085-1.245-2.287-1.142-.493.143-.961.367-1.389.662-2.007 1.14-2.7-1.142-2.083-1.976.66-.868 1.656-1.38 2.713-1.393 1.096-.097 2.2.027 3.252.365zm8.037 8.66c.615.776.646 1.894.077 2.707-.33.38-.768.636-1.248.73-.193.104-.406.16-.623.16-.05 0-.099-.004-.148-.011-.916-.107-1.668-.812-1.874-1.758h-.045c-.12-.958.304-1.9 1.085-2.409.934-.557 2.115-.31 2.776.581zm-43.397-12.58c.48.194.842.62.974 1.142.229 1.28.389 2.572.479 3.87.221-.281.48-.527.768-.73 1.504-1.142 3.537-1.124 5.022.045.706.73 1.17 1.678 1.322 2.707.206 1.244.553 5.112.63 5.71.103.569.027 1.158-.217 1.676-.43.802-1.356 1.148-2.17.812-.965-.445-1.085-1.757-1.085-2.637-.139-1.313-.205-2.556-.347-3.791-.141-1.026-.346-2.339-1.528-2.282-.83.065-1.55.623-1.856 1.437-.095.53-.12 1.072-.077 1.609.077.663.284 2.992.35 3.575.061.46.087.926.076 1.39-.147.873-.832 1.533-1.67 1.61h-.018c-.397 0-.778-.16-1.066-.447-.348-.375-.569-.86-.63-1.38-.206-1.244-.976-10.376-1.181-11.622-.116-.58-.09-1.18.076-1.746.158-.393.453-.708.825-.879.415-.204.89-.228 1.323-.07zm23.777-.571c.847-.002 1.588.6 1.802 1.462.076.445.076 1.142.14 1.758 0 0 .835 10.514.835 10.958.115 1.04-.552 1.997-1.528 2.193h-.12c-1.423.003-1.682-1.162-1.82-1.906h-.002l-.769-10.947c-.053-.584-.075-1.17-.066-1.757.022-.906.674-1.657 1.528-1.761zm-5.881 4.78c1.963.785 3.258 2.768 3.252 4.979-.043.458-.064.919-.063 1.38l.063-.035c-.197 1.895-1.223 3.584-2.775 4.566-.83.43-1.743.652-2.668.652-.983.002-1.952-.248-2.823-.727v-.004c-.854-.477-1.572-1.181-2.084-2.043-.572-.984-.817-2.14-.695-3.288.012-1.953.887-3.788 2.368-4.965 1.633-1.054 3.64-1.245 5.425-.514zm16.89 6.328c-.836.07-2.165.07-2.559.07-.389 0-1.298.295-1.365 1.094-.02.657.462 1.21 1.085 1.244.707.17 1.45-.02 2.004-.514.486-.505.783-1.177.836-1.894zm-18.97-3.976c-.216 0-.43.036-.637.104-.86.435-1.457 1.29-1.595 2.282-.267 1.054-.142 2.176.349 3.137.71.945 2.013 1.108 2.915.365.017 0 .034-.007.047-.02.012-.013.019-.03.019-.05.644-.745 1.027-1.7 1.085-2.706-.088.098-.114.24-.066.366l-.043-.023c.129-.87.008-1.76-.346-2.557-.412-.566-1.05-.898-1.727-.898zm-28.565.647c-.78 0-1.412.88-1.412 1.962 0 1.083.633 1.962 1.412 1.962.779 0 1.412-.878 1.412-1.962 0-1.083-.632-1.962-1.412-1.962zm-7.124 0c-.779 0-1.412.88-1.412 1.962 0 1.083.633 1.962 1.412 1.962.78 0 1.412-.878 1.412-1.962 0-1.083-.632-1.962-1.412-1.962zm65.067-9.015c.333.373.509.87.489 1.38.055.614.007 1.233-.143 1.828-.205 1.314-1.31 6.358-1.657 7.602-.116.533-.385 1.016-.771 1.38-.228.194-.51.299-.803.299-.202.001-.402-.048-.583-.145v-.004c-.693-.285-.835-1.016-.902-1.745-.063-.316-.063-.643 0-.959h.034c.065-.653.346-5.914.63-7.89.05-.94.58-1.778 1.385-2.19.79-.348 1.7-.174 2.321.444z"/>
    </g>
</svg>
