<svg width="24" height="24" viewBox="0 0 24 24" fill="none" xmlns="http://www.w3.org/2000/svg">
<rect width="24" height="24" rx="5" fill="#F9F9F9"/>
<path d="M6 8H7.33333H18" stroke="#9EA8AE" stroke-width="1.33333" stroke-linecap="round" stroke-linejoin="round"/>
<path d="M9.33334 8.00001V6.66668C9.33334 6.31305 9.47382 5.97392 9.72387 5.72387C9.97392 5.47382 10.3131 5.33334 10.6667 5.33334H13.3333C13.687 5.33334 14.0261 5.47382 14.2762 5.72387C14.5262 5.97392 14.6667 6.31305 14.6667 6.66668V8.00001M16.6667 8.00001V17.3333C16.6667 17.687 16.5262 18.0261 16.2762 18.2762C16.0261 18.5262 15.687 18.6667 15.3333 18.6667H8.66668C8.31305 18.6667 7.97392 18.5262 7.72387 18.2762C7.47382 18.0261 7.33334 17.687 7.33334 17.3333V8.00001H16.6667Z" stroke="#9EA8AE" stroke-width="1.33333" stroke-linecap="round" stroke-linejoin="round"/>
<path d="M10.6667 11.3333V15.3333" stroke="#9EA8AE" stroke-width="1.33333" stroke-linecap="round" stroke-linejoin="round"/>
<path d="M13.3333 11.3333V15.3333" stroke="#9EA8AE" stroke-width="1.33333" stroke-linecap="round" stroke-linejoin="round"/>
</svg>
