<svg width="440" height="99" viewBox="0 0 440 99" fill="none" xmlns="http://www.w3.org/2000/svg">
<path d="M136.275 70.1242L137.596 64.2659H147.877L149.141 70.1242H162.58L151.381 29.3455H134.725L123.18 70.1242H136.275ZM142.765 41.2345H142.88L145.809 54.9614H139.721L142.765 41.2345Z" fill="black"/>
<path d="M136.275 70.1242L137.596 64.2659H147.877L149.141 70.1242H162.58L151.381 29.3455H134.725L123.18 70.1242H136.275ZM142.765 41.2345H142.88L145.809 54.9614H139.721L142.765 41.2345Z" fill="url(#paint0_linear_243_18)"/>
<path d="M178.073 70.1242V54.6168H187.262V70.1242H199.898V29.3455H187.262V43.7042H178.073V29.3455H165.437V70.1242H178.073Z" fill="black"/>
<path d="M178.073 70.1242V54.6168H187.262V70.1242H199.898V29.3455H187.262V43.7042H178.073V29.3455H165.437V70.1242H178.073Z" fill="url(#paint1_linear_243_18)"/>
<path d="M215.865 70.1242L217.186 64.2659H227.467L228.731 70.1242H242.17L230.971 29.3455H214.314L202.77 70.1242H215.865ZM222.355 41.2345H222.47L225.399 54.9614H219.311L222.355 41.2345Z" fill="black"/>
<path d="M215.865 70.1242L217.186 64.2659H227.467L228.731 70.1242H242.17L230.971 29.3455H214.314L202.77 70.1242H215.865ZM222.355 41.2345H222.47L225.399 54.9614H219.311L222.355 41.2345Z" fill="url(#paint2_linear_243_18)"/>
<path d="M269.722 70.1242V48.4138H269.836L278.681 61.3941H278.911L287.756 48.4138H287.871V70.1242H300.507V29.3455H287.871L278.796 42.6704L269.722 29.3455H257.086V70.1242H269.722Z" fill="black"/>
<path d="M269.722 70.1242V48.4138H269.836L278.681 61.3941H278.911L287.756 48.4138H287.871V70.1242H300.507V29.3455H287.871L278.796 42.6704L269.722 29.3455H257.086V70.1242H269.722Z" fill="url(#paint3_linear_243_18)"/>
<path d="M328.665 29.3455V53.985C328.665 57.8906 326.999 60.0157 323.955 60.0157C320.911 60.0157 319.245 57.8906 319.245 53.985V29.3455H306.61V53.7553C306.61 64.553 313.1 70.9283 324.012 70.9283C334.867 70.9283 341.3 64.553 341.3 53.7553V29.3455H328.665Z" fill="black"/>
<path d="M328.665 29.3455V53.985C328.665 57.8906 326.999 60.0157 323.955 60.0157C320.911 60.0157 319.245 57.8906 319.245 53.985V29.3455H306.61V53.7553C306.61 64.553 313.1 70.9283 324.012 70.9283C334.867 70.9283 341.3 64.553 341.3 53.7553V29.3455H328.665Z" fill="url(#paint4_linear_243_18)"/>
<path d="M345.781 64.4956C351.007 68.6309 357.382 70.9283 363.47 70.9283C373.005 70.9283 379.552 65.3571 379.552 57.1439C379.552 43.015 360.024 45.4847 360.024 41.0047C360.024 39.9135 361.23 39.2243 363.011 39.2243C365.596 39.2243 369.042 40.6601 373.234 43.5319L379.322 34.0551C374.268 30.4942 368.525 28.5414 363.011 28.5414C353.821 28.5414 347.389 34.1126 347.389 42.096C347.389 56.0527 366.917 53.6404 366.917 58.2352C366.917 59.4413 365.538 60.2454 363.47 60.2454C360.369 60.2454 356.521 58.5224 351.869 55.0188L345.781 64.4956Z" fill="black"/>
<path d="M345.781 64.4956C351.007 68.6309 357.382 70.9283 363.47 70.9283C373.005 70.9283 379.552 65.3571 379.552 57.1439C379.552 43.015 360.024 45.4847 360.024 41.0047C360.024 39.9135 361.23 39.2243 363.011 39.2243C365.596 39.2243 369.042 40.6601 373.234 43.5319L379.322 34.0551C374.268 30.4942 368.525 28.5414 363.011 28.5414C353.821 28.5414 347.389 34.1126 347.389 42.096C347.389 56.0527 366.917 53.6404 366.917 58.2352C366.917 59.4413 365.538 60.2454 363.47 60.2454C360.369 60.2454 356.521 58.5224 351.869 55.0188L345.781 64.4956Z" fill="url(#paint5_linear_243_18)"/>
<path d="M397.379 70.1242V29.3455H384.744V70.1242H397.379Z" fill="black"/>
<path d="M397.379 70.1242V29.3455H384.744V70.1242H397.379Z" fill="url(#paint6_linear_243_18)"/>
<path d="M439.429 39.9709C436.557 32.7341 430.239 28.5414 422.141 28.5414C410.482 28.5414 402.556 37.1566 402.556 49.9071C402.556 62.4854 410.252 70.9283 421.682 70.9283C429.78 70.9283 436.442 66.4484 439.429 59.0967L428.516 54.5019C427.195 58.0629 424.898 60.0157 422.026 60.0157C418.006 60.0157 415.651 56.225 415.651 49.6774C415.651 43.1298 418.006 39.454 422.256 39.454C425.185 39.454 427.195 41.2345 428.287 44.6806L439.429 39.9709Z" fill="black"/>
<path d="M439.429 39.9709C436.557 32.7341 430.239 28.5414 422.141 28.5414C410.482 28.5414 402.556 37.1566 402.556 49.9071C402.556 62.4854 410.252 70.9283 421.682 70.9283C429.78 70.9283 436.442 66.4484 439.429 59.0967L428.516 54.5019C427.195 58.0629 424.898 60.0157 422.026 60.0157C418.006 60.0157 415.651 56.225 415.651 49.6774C415.651 43.1298 418.006 39.454 422.256 39.454C425.185 39.454 427.195 41.2345 428.287 44.6806L439.429 39.9709Z" fill="url(#paint7_linear_243_18)"/>
<g opacity="0.5">
<rect x="15.4484" y="31.0345" width="9.93103" height="36.4138" rx="4.96552" fill="#60ACF9"/>
<rect x="44.1381" y="42.069" width="9.93103" height="14.3448" rx="4.96552" fill="#60ACF9"/>
<rect x="57.3794" y="35.4484" width="9.93103" height="27.5862" rx="4.96552" fill="#60ACF9"/>
<rect x="89.3794" y="31.0345" width="9.93103" height="36.4138" rx="4.96552" fill="#60ACF9"/>
<rect x="103.724" y="38.7587" width="9.93103" height="20.9655" rx="4.96552" fill="#60ACF9"/>
<rect x="0.00012207" y="38.7587" width="9.93103" height="20.9655" rx="4.96552" fill="#60ACF9"/>
</g>
<path d="M73.8512 68.6469L89.2044 84" stroke="#68A7F8" stroke-width="9.93103" stroke-linecap="round"/>
<g filter="url(#filter0_d_243_18)">
<circle cx="56.9046" cy="49.2085" r="24.243" stroke="#68A7F8" stroke-width="9.93103" stroke-linecap="round"/>
</g>
<defs>
<filter id="filter0_d_243_18" x="7.9936" y="0.297438" width="97.8221" height="97.8221" filterUnits="userSpaceOnUse" color-interpolation-filters="sRGB">
<feFlood flood-opacity="0" result="BackgroundImageFix"/>
<feColorMatrix in="SourceAlpha" type="matrix" values="0 0 0 0 0 0 0 0 0 0 0 0 0 0 0 0 0 0 127 0" result="hardAlpha"/>
<feOffset/>
<feGaussianBlur stdDeviation="9.85128"/>
<feColorMatrix type="matrix" values="0 0 0 0 0 0 0 0 0 0 0 0 0 0 0 0 0 0 0.03 0"/>
<feBlend mode="normal" in2="BackgroundImageFix" result="effect1_dropShadow_243_18"/>
<feBlend mode="normal" in="SourceGraphic" in2="effect1_dropShadow_243_18" result="shape"/>
</filter>
<linearGradient id="paint0_linear_243_18" x1="294.054" y1="65.7378" x2="152.442" y2="-60.4566" gradientUnits="userSpaceOnUse">
<stop stop-color="#44BEFD"/>
<stop offset="1" stop-color="#7F97F3"/>
</linearGradient>
<linearGradient id="paint1_linear_243_18" x1="294.054" y1="65.7378" x2="152.442" y2="-60.4566" gradientUnits="userSpaceOnUse">
<stop stop-color="#44BEFD"/>
<stop offset="1" stop-color="#7F97F3"/>
</linearGradient>
<linearGradient id="paint2_linear_243_18" x1="294.054" y1="65.7378" x2="152.442" y2="-60.4566" gradientUnits="userSpaceOnUse">
<stop stop-color="#44BEFD"/>
<stop offset="1" stop-color="#7F97F3"/>
</linearGradient>
<linearGradient id="paint3_linear_243_18" x1="294.054" y1="65.7378" x2="152.442" y2="-60.4566" gradientUnits="userSpaceOnUse">
<stop stop-color="#44BEFD"/>
<stop offset="1" stop-color="#7F97F3"/>
</linearGradient>
<linearGradient id="paint4_linear_243_18" x1="294.054" y1="65.7378" x2="152.442" y2="-60.4566" gradientUnits="userSpaceOnUse">
<stop stop-color="#44BEFD"/>
<stop offset="1" stop-color="#7F97F3"/>
</linearGradient>
<linearGradient id="paint5_linear_243_18" x1="294.054" y1="65.7378" x2="152.442" y2="-60.4566" gradientUnits="userSpaceOnUse">
<stop stop-color="#44BEFD"/>
<stop offset="1" stop-color="#7F97F3"/>
</linearGradient>
<linearGradient id="paint6_linear_243_18" x1="294.054" y1="65.7378" x2="152.442" y2="-60.4566" gradientUnits="userSpaceOnUse">
<stop stop-color="#44BEFD"/>
<stop offset="1" stop-color="#7F97F3"/>
</linearGradient>
<linearGradient id="paint7_linear_243_18" x1="294.054" y1="65.7378" x2="152.442" y2="-60.4566" gradientUnits="userSpaceOnUse">
<stop stop-color="#44BEFD"/>
<stop offset="1" stop-color="#7F97F3"/>
</linearGradient>
</defs>
</svg>
