<svg width="69" height="19" viewBox="0 0 69 19" fill="none" xmlns="http://www.w3.org/2000/svg">
<path d="M1.76634 5.23761H2.62695V3.78911H3.65727C4.53001 3.78911 5.01486 3.20122 5.01486 2.49818C5.01486 1.78908 4.53607 1.19514 3.65727 1.19514H1.76634V5.23761ZM4.13606 2.49212C4.13606 2.83152 3.88151 3.0497 3.54212 3.0497H2.62695V1.93454H3.54212C3.88151 1.93454 4.13606 2.15878 4.13606 2.49212ZM6.78714 5.31034C7.75685 5.31034 8.33867 4.6073 8.33867 3.77093C8.33867 2.94061 7.75685 2.23757 6.78714 2.23757C5.82349 2.23757 5.24166 2.94061 5.24166 3.77093C5.24166 4.6073 5.82349 5.31034 6.78714 5.31034ZM6.78714 4.62548C6.30834 4.62548 6.04167 4.23154 6.04167 3.77093C6.04167 3.31637 6.30834 2.92243 6.78714 2.92243C7.26593 2.92243 7.53866 3.31637 7.53866 3.77093C7.53866 4.23154 7.26593 4.62548 6.78714 4.62548ZM11.4794 5.23761H12.2976L13.1885 2.3103H12.3885L11.8431 4.28002L11.2006 2.3103H10.5158L9.87335 4.28002L9.32789 2.3103H8.52788L9.4188 5.23761H10.2431L10.8612 3.24365L11.4794 5.23761ZM13.3798 3.77093C13.3798 4.71033 14.0525 5.31034 14.9434 5.31034C15.398 5.31034 15.8586 5.17094 16.1495 4.90427L15.8101 4.4073C15.6222 4.58912 15.301 4.69821 15.0283 4.69821C14.5313 4.69821 14.2343 4.38911 14.1859 4.01941H16.3616V3.84971C16.3616 2.89213 15.7677 2.23757 14.895 2.23757C14.004 2.23757 13.3798 2.92243 13.3798 3.77093ZM14.895 2.8497C15.404 2.8497 15.598 3.2194 15.6162 3.49819H14.1737C14.2101 3.20728 14.4162 2.8497 14.895 2.8497ZM16.9176 5.23761H17.6873V3.30425C17.8146 3.11637 18.154 2.97092 18.4085 2.97092C18.4934 2.97092 18.5661 2.98304 18.6207 2.99516V2.24363C18.257 2.24363 17.8934 2.4497 17.6873 2.71031V2.3103H16.9176V5.23761ZM18.9137 3.77093C18.9137 4.71033 19.5864 5.31034 20.4774 5.31034C20.9319 5.31034 21.3925 5.17094 21.6834 4.90427L21.344 4.4073C21.1562 4.58912 20.8349 4.69821 20.5622 4.69821C20.0652 4.69821 19.7683 4.38911 19.7198 4.01941H21.8956V3.84971C21.8956 2.89213 21.3016 2.23757 20.4289 2.23757C19.538 2.23757 18.9137 2.92243 18.9137 3.77093ZM20.4289 2.8497C20.938 2.8497 21.1319 3.2194 21.1501 3.49819H19.7077C19.744 3.20728 19.9501 2.8497 20.4289 2.8497ZM24.4637 5.23761H25.2394V1.19514H24.4637V2.68606C24.2334 2.38909 23.9061 2.23757 23.5606 2.23757C22.8152 2.23757 22.2636 2.8194 22.2636 3.77699C22.2636 4.75276 22.8212 5.31034 23.5606 5.31034C23.9122 5.31034 24.2334 5.15276 24.4637 4.86185V5.23761ZM24.4637 4.29214C24.3364 4.48609 24.0576 4.62548 23.797 4.62548C23.3606 4.62548 23.0576 4.28002 23.0576 3.77699C23.0576 3.26789 23.3606 2.92243 23.797 2.92243C24.0576 2.92243 24.3364 3.06183 24.4637 3.25577V4.29214ZM27.5534 5.23761H28.3231V4.86185C28.5534 5.15276 28.8746 5.31034 29.2261 5.31034C29.9655 5.31034 30.5231 4.75276 30.5231 3.77699C30.5231 2.8194 29.9716 2.23757 29.2261 2.23757C28.8807 2.23757 28.5534 2.38909 28.3231 2.68606V1.19514H27.5534V5.23761ZM28.3231 4.2982V3.26183C28.4504 3.06789 28.7352 2.92243 28.9837 2.92243C29.4322 2.92243 29.7292 3.26789 29.7292 3.77699C29.7292 4.28608 29.4322 4.62548 28.9837 4.62548C28.7352 4.62548 28.4504 4.48609 28.3231 4.2982ZM31.1167 5.69216L31.0015 6.38308C31.0985 6.40732 31.2925 6.4255 31.3834 6.4255C31.8864 6.41338 32.2743 6.26793 32.4925 5.7164L33.8682 2.3103H33.0379L32.2743 4.34669L31.5106 2.3103H30.6864L31.8743 5.28003L31.7652 5.52852C31.6925 5.6861 31.5591 5.74065 31.3591 5.74065C31.2864 5.74065 31.1834 5.72246 31.1167 5.69216Z" fill="#CFCFCF"/>
<g clip-path="url(#clip0_1064_83)">
<path d="M7.71104 18.8201H10.9155L9.07223 8.91559H5.35732L0 18.8201H3.20447L3.8118 17.5439H7.55744L7.71104 18.8201ZM6.74687 11.559L7.23841 15.0492H5.01466L6.74687 11.559ZM15.734 19C18.3666 19 19.9499 17.4264 20.7534 16.1047L18.4186 14.9173C18.0334 15.6897 17.1543 16.359 16.2019 16.359C14.8549 16.359 14.1011 15.2603 14.3445 13.8786C14.5902 12.4969 15.7364 11.3983 17.081 11.3983C18.031 11.3983 18.6738 12.0676 18.7849 12.84L21.5451 11.6382C21.2048 10.2661 20.1862 8.75247 17.5537 8.75247C14.569 8.75247 11.8915 10.8178 11.348 13.8762C10.8068 16.9203 12.7493 19 15.734 19ZM26.5668 18.8201H29.932L28.7835 15.3155C29.6271 14.9293 30.7685 14.0226 31.071 12.3146C31.3995 10.458 30.4448 8.91319 28.1643 8.91319H22.9559L21.1977 18.8201H24.154L24.7188 15.6417H25.787L26.5668 18.8201ZM28.0816 12.2715C27.9847 12.8208 27.4577 13.147 26.9615 13.147H25.1631L25.4727 11.4103H27.271C27.7649 11.4103 28.1761 11.7365 28.0816 12.2715ZM36.0124 19C37.7824 19 39.1011 18.1676 40.1196 17.0402L39.1838 16.4621C38.4772 17.3089 37.3618 17.9038 36.2062 17.9038C34.1148 17.9038 32.7891 16.2246 33.205 13.8786C33.6233 11.5182 35.5422 9.85351 37.6359 9.85351C38.7915 9.85351 39.6919 10.4628 40.1007 11.2952L41.228 10.7171C40.6513 9.59924 39.6021 8.75247 37.8297 8.75247C35.0648 8.75247 32.4866 10.8322 31.9454 13.8762C31.4066 16.9203 33.2475 19 36.0124 19ZM41.3059 18.8201H42.4025L44.1607 8.91559H43.0641L41.3059 18.8201ZM47.6487 19C49.7992 19 51.4463 17.3065 51.815 15.2291C52.1836 13.1518 51.1368 11.4727 48.9863 11.4727C46.8358 11.4727 45.191 13.1518 44.8223 15.2291C44.4513 17.3065 45.4982 19 47.6487 19ZM47.8259 18.0045C46.3182 18.0045 45.7015 16.6972 45.9638 15.2267C46.2213 13.7707 47.3037 12.4658 48.809 12.4658C50.3167 12.4658 50.917 13.7731 50.6594 15.2267C50.3971 16.6972 49.3313 18.0045 47.8259 18.0045ZM57.7347 18.8201H58.8313L60.105 11.6478H59.0085L58.0727 16.9203C57.5599 17.4984 56.6524 18.0045 55.7875 18.0045C54.8375 18.0045 54.2727 17.6327 54.4972 16.371L55.3361 11.6478H54.2396L53.3416 16.7116C53.0651 18.2708 53.7103 18.9976 55.1896 18.9976C56.2436 18.9976 57.2645 18.4339 57.9167 17.8102L57.7347 18.8201ZM66.1429 18.8201H67.2394L68.9976 8.91559H67.9011L67.2229 12.732C66.7928 11.9452 66.0129 11.4703 65.063 11.4703C63.2055 11.4703 61.6529 12.9551 61.2488 15.2411C60.8352 17.5727 61.8845 18.9976 63.7278 18.9976C64.7227 18.9976 65.6774 18.4771 66.3343 17.7502L66.1429 18.8201ZM66.4879 16.8747C65.9822 17.4984 65.044 18.0021 64.1673 18.0021C62.747 18.0021 62.109 16.8291 62.3902 15.2411C62.6714 13.6531 63.7325 12.4634 65.1504 12.4634C66.0271 12.4634 66.781 12.9983 67.0669 13.622L66.4879 16.8747Z" fill="url(#paint0_linear_1064_83)"/>
</g>
<defs>
<linearGradient id="paint0_linear_1064_83" x1="34.4988" y1="8.75247" x2="34.4988" y2="19" gradientUnits="userSpaceOnUse">
<stop stop-color="#60BEF4"/>
<stop offset="1" stop-color="#49B2EF"/>
</linearGradient>
<clipPath id="clip0_1064_83">
<rect width="69" height="10.2475" fill="white" transform="translate(0 8.75247)"/>
</clipPath>
</defs>
</svg>
