<svg xmlns="http://www.w3.org/2000/svg" width="24" height="24" viewBox="0 0 24 24">
    <path fill="#FF6400" fill-rule="evenodd" d="M12 0c6.627 0 12 5.373 12 12s-5.373 12-12 12S0 18.627 0 12 5.373 0 12 0zm0 2C6.477 2 2 6.477 2 12s4.477 10 10 10 10-4.477 10-10S17.523 2 12 2zm0 14c.31 0 .553.096.732.287.179.192.268.433.268.724 0 .281-.087.516-.26.705-.175.19-.421.284-.74.284s-.565-.095-.74-.284c-.173-.189-.26-.424-.26-.705 0-.29.09-.532.268-.724.179-.191.423-.287.732-.287zm1-10l-.188 8H11.18L11 6h2z"/>
</svg>
