<svg xmlns="http://www.w3.org/2000/svg" width="40" height="40" viewBox="0 0 40 40">
    <g fill="none" fill-rule="evenodd">
        <rect width="40" height="40" fill="#231F20" rx=".97"/>
        <path fill="#FFF" d="M26.717 26H37V14H26.717v12zm8.185-9.692v1.594s-1.256-.956-2.644-.975c0 0-2.59-.063-2.706 3.073 0 0-.093 2.885 2.675 3.05 0 0 1.162.173 2.738-1.072v1.65s-2.114 1.556-4.563.358c0 0-2.059-.931-2.137-3.986 0 0-.086-3.141 2.66-4.184 0 0 .733-.348 2.05-.193 0 0 .788.096 1.927.685zM3 26h10.283V14H3v12zm6.321-6.273s.897-.473.89-1.729c0 0 .135-2.057-2.066-2.308H5.703v8.625h2.8s2.339.008 2.339-2.434c0 0 .055-1.662-1.52-2.154zm-2.378-2.695h.998c1.037.068.998 1.024.998 1.024 0 1.188-1.147 1.208-1.147 1.208h-.85v-2.232zm2.62 4.723c0 1.304-1.31 1.227-1.31 1.227h-1.31v-2.356h1.31c1.349-.011 1.31 1.13 1.31 1.13zM14.858 26h10.284V14H14.858v12zm6.321-6.273s.897-.473.89-1.729c0 0 .136-2.057-2.065-2.308H17.56v8.625h2.8s2.339.008 2.339-2.434c0 0 .055-1.662-1.52-2.154zm-2.378-2.695h.999c1.036.068.997 1.024.997 1.024 0 1.188-1.146 1.208-1.146 1.208h-.85v-2.232zm2.62 4.723c0 1.304-1.31 1.227-1.31 1.227h-1.31v-2.356h1.31c1.349-.011 1.31 1.13 1.31 1.13z"/>
    </g>
</svg>
