<svg xmlns="http://www.w3.org/2000/svg" xmlns:xlink="http://www.w3.org/1999/xlink" width="220" height="54" viewBox="0 0 220 54">
    <defs>
        <radialGradient id="prefix__c" cx="63.909%" cy="75.25%" r="95.017%" fx="63.909%" fy="75.25%" gradientTransform="matrix(1 0 0 .74316 0 .193)">
            <stop offset="0%" stop-color="#E1E8F0"/>
            <stop offset="17.4%" stop-color="#C3D1E1"/>
            <stop offset="41.654%" stop-color="#C4D2E2"/>
            <stop offset="60.668%" stop-color="#A3B5CA"/>
            <stop offset="79.7%" stop-color="#677C93"/>
            <stop offset="100%" stop-color="#65707C"/>
        </radialGradient>
        <filter id="prefix__a" width="113.4%" height="175%" x="-6.7%" y="-37.5%" filterUnits="objectBoundingBox">
            <feMorphology in="SourceAlpha" operator="dilate" radius=".5" result="shadowSpreadOuter1"/>
            <feOffset in="shadowSpreadOuter1" result="shadowOffsetOuter1"/>
            <feGaussianBlur in="shadowOffsetOuter1" result="shadowBlurOuter1" stdDeviation="4"/>
            <feColorMatrix in="shadowBlurOuter1" values="0 0 0 0 0.637700248 0 0 0 0 0.710821927 0 0 0 0 0.790591033 0 0 0 0.550699301 0"/>
        </filter>
        <rect id="prefix__b" width="202" height="36" x="0" y="0" rx="4"/>
    </defs>
    <g fill="none" fill-rule="evenodd" transform="translate(9 9)">
        <use fill="#000" filter="url(#prefix__a)" xlink:href="#prefix__b"/>
        <use fill="#FFF" xlink:href="#prefix__b"/>
        <path fill="#F2F3F4" d="M0 6h106.5c6.904 0 12.5 5.596 12.5 12.5S113.404 31 106.5 31H0V6z"/>
        <g>
            <path fill="url(#prefix__c)" fill-rule="nonzero" d="M16.624 9.2c-.462-1.411.52-3.16.52-3.16s-.462 0-1.617 1.015c-.688.586-1.104 1.42-1.152 2.311-1.327-3.048-4.04-5.023-5.079-6.377C8.312 1.749 9.004 0 9.004 0 6.984.847 5.946 2.991 5.6 5.53c-.082 1.397-.803 2.682-1.963 3.5-.288-2.37-3-2.991-3-2.991.576.17 1.557 2.934.519 4.91C.445 12.235.049 13.665 0 15.126c0 4.74 3.06 8.578 8.774 8.578 2.353.071 4.633-.808 6.303-2.43 1.671-1.623 2.585-3.847 2.528-6.148.115-1.693-.52-4.46-.981-5.926z" transform="translate(169 6)"/>
            <path fill="#231F20" d="M3.174 15.69c.032 3.032 2.555 5.474 5.657 5.474 3.101 0 5.625-2.442 5.657-5.474h.923c-.049 3.52-2.98 6.347-6.58 6.347S2.3 19.209 2.251 15.69zm8.775-3.386c.67 0 1.212.758 1.212 1.693s-.543 1.693-1.212 1.693c-.67 0-1.212-.758-1.212-1.693s.542-1.693 1.212-1.693zm-6.234 0c.67 0 1.212.758 1.212 1.693s-.543 1.693-1.212 1.693c-.67 0-1.212-.758-1.212-1.693s.542-1.693 1.212-1.693z" transform="translate(169 6)"/>
            <g transform="translate(169 6) translate(5 13)">
                <rect width="18" height="10" x=".5" y=".5" fill="#FF6400" stroke="#FFF" rx="3"/>
                <text fill="#FFF" font-family="Montserrat-SemiBold, Montserrat" font-size="7" font-weight="500">
                    <tspan x="2" y="9">OFF</tspan>
                </text>
            </g>
        </g>
        <path stroke="#626365" d="M107 13.728l-1.454 3.264-3.465.454 2.55 2.51-.652 3.567L107 21.77l3.021 1.753-.653-3.567 2.55-2.51-3.464-.454L107 13.728z"/>
        <g transform="translate(129 11)">
            <rect width="28" height="12" x=".5" y="2.5" stroke="#FF6400" rx="4"/>
            <path fill="#FF6400" fill-rule="nonzero" d="M7.33 12l3.07-7h-1l-2.54 5.75L4.34 5H3.26l3.08 7h.99zm5.11 0V9.88h1.73c.907 0 1.62-.217 2.14-.65.52-.433.78-1.03.78-1.79s-.26-1.357-.78-1.79c-.52-.433-1.233-.65-2.14-.65h-2.73v7h1zm1.7-2.99h-1.7V5.87h1.7c.633 0 1.117.135 1.45.405.333.27.5.658.5 1.165s-.167.895-.5 1.165c-.333.27-.817.405-1.45.405zM19.66 12V6.78l4.2 5.22h.82V5h-1v5.22L19.48 5h-.82v7h1z"/>
        </g>
    </g>
</svg>
