<svg xmlns="http://www.w3.org/2000/svg" width="32" height="33" viewBox="0 0 32 33">
    <path fill="#A3B5CA" fill-rule="evenodd" d="M11.086 8.205c.19-1.339 1.04-2.492 2.265-3.067-1.721-.377-3.501.305-4.53 1.735-1.093-.267-2.235-.267-3.33 0-1.081-.826-1.72-2.106-1.732-3.468-1.299 1.24-1.94 3.017-1.732 4.8-5.994 10.668 2.132 23.468 13.588 23.468C26.005 31.673 32 23.806 32 15.806c0-5.467-2.531-10.133-5.062-11.2 1.206 1.618 1.86 3.582 1.865 5.6-2-5.333-7.194-7.333-8.792-7.2 5.595 2.133 6.927 9.6 6.527 11.867-.533-2.533-2-4.8-2.931-5.333 5.463 12.665-7.725 16.533-11.722 12.133 1.616.3 3.285-.035 4.662-.933 1.465-.933 1.6-1.067 2.53-1.067 1.067-.133 0-2.267-2.4-1.867-.931.133-2.663 1.333-4.661.533-2.4-.933-2.4-4.133.133-3.2.12-.667.075-1.354-.133-2 .668-.548 1.38-1.038 2.13-1.467.775-.375 1.286-1.14 1.333-2-.331-.282-.78-.382-1.2-.267-2.793.268-2.927-.8-3.193-1.2z"/>
</svg>
