<svg width="65" height="88" xmlns="http://www.w3.org/2000/svg"><defs><radialGradient cx="58.665%" cy="75.25%" fx="58.665%" fy="75.25%" r="104.876%" gradientTransform="matrix(1 0 0 .7319 0 .202)" id="a"><stop stop-color="#FBAE17" offset="5%"/><stop stop-color="#F6921E" offset="17.4%"/><stop stop-color="#F16522" offset="40%"/><stop stop-color="#D71921" offset="63%"/><stop stop-color="#C3161C" offset="79.7%"/><stop stop-color="#B01117" offset="95.6%"/></radialGradient></defs><g fill="none" fill-rule="evenodd"><path d="M60.031 33.732c-1.668-5.174 1.876-11.588 1.876-11.588s-1.668 0-5.837 3.724a12.032 12.032 0 00-4.159 8.475c-4.793-11.176-14.59-18.418-18.342-23.385C30.015 6.414 32.516 0 32.516 0 25.221 3.105 21.47 10.969 20.218 20.28a17 17 0 01-7.086 12.83C12.09 24.42 2.294 22.143 2.294 22.143c2.083.621 5.627 10.76 1.875 18.004A34.472 34.472 0 000 55.461c0 17.383 11.048 31.455 31.682 31.455a31.07 31.07 0 0022.764-8.914 30.612 30.612 0 009.129-22.541c.415-6.208-1.876-16.349-3.544-21.73z" fill="url(#a)" fill-rule="nonzero"/><path d="M11.462 57.53C11.578 68.647 20.689 77.6 31.889 77.6S52.2 68.648 52.316 57.53h3.336c-.177 12.905-10.763 23.273-23.762 23.273-12.998 0-23.585-10.368-23.762-23.273zm31.686-12.416c2.418 0 4.378 2.779 4.378 6.207 0 3.429-1.96 6.208-4.378 6.208-2.417 0-4.377-2.779-4.377-6.208 0-3.428 1.96-6.207 4.377-6.207zm-22.512 0c2.418 0 4.378 2.779 4.378 6.207 0 3.429-1.96 6.208-4.378 6.208-2.417 0-4.377-2.779-4.377-6.208 0-3.428 1.96-6.207 4.377-6.207z" fill="#231F20"/></g></svg>

