<svg xmlns="http://www.w3.org/2000/svg" width="28" height="38" viewBox="0 0 28 38">
    <path fill="#A3B5CA" fill-opacity=".8" fill-rule="evenodd" d="M14.297 0c-.06.153-1.092 2.824.48 4.88l.16.202c1.725 2.113 5.81 5.22 7.885 9.989l.025-.267c.16-1.324.802-2.55 1.81-3.447l.188-.16c1.657-1.397 2.348-1.438 2.348-1.438-.09.168-1.507 2.834-.787 5.053l.094.302c.73 2.394 1.647 6.548 1.48 9.155l-.003.31C27.824 31.993 22.182 38 13.946 38l-.37-.003C4.762 37.83 0 31.722 0 24.269l.014-.441c.106-2.202.712-4.354 1.778-6.295l.107-.21c1.53-3.175.004-7.397-.894-7.693.201.048 4.382 1.082 4.81 4.794l.02-.012c.242-.15 2.626-1.708 3.083-5.558.484-4.06 2.145-7.472 5.38-8.854zM4.993 25.235H3.5l.007.28c.205 5.5 4.827 9.888 10.492 9.894 5.762-.004 10.446-4.543 10.501-10.174h-1.493l-.01.262c-.225 4.695-4.158 8.434-8.998 8.495-4.93-.063-8.916-3.94-9.006-8.757zm13.97-5.371c-1.09 0-1.976 1.192-1.976 2.662s.886 2.663 1.977 2.663c1.09 0 1.977-1.192 1.977-2.663 0-1.47-.885-2.662-1.977-2.662zm-9.972 0c-1.09 0-1.977 1.192-1.977 2.662S7.9 25.19 8.991 25.19c1.09 0 1.977-1.192 1.977-2.663 0-1.47-.886-2.662-1.977-2.662z"/>
</svg>
