<svg xmlns="http://www.w3.org/2000/svg" width="100" height="30" viewBox="0 0 100 30">
    <defs>
        <radialGradient id="muwd9dcfla" cx="58.665%" cy="75.25%" r="104.876%" fx="58.665%" fy="75.25%" gradientTransform="matrix(1 0 0 .72664 0 .206)">
            <stop offset="5%" stop-color="#FBAE17"/>
            <stop offset="17.4%" stop-color="#F6921E"/>
            <stop offset="40%" stop-color="#F16522"/>
            <stop offset="63%" stop-color="#D71921"/>
            <stop offset="79.7%" stop-color="#C3161C"/>
            <stop offset="95.6%" stop-color="#B01117"/>
        </radialGradient>
    </defs>
    <g fill="none" fill-rule="evenodd">
        <path fill="url(#muwd9dcfla)" fill-rule="nonzero" d="M20.318 11.5c-.564-1.764.635-3.95.635-3.95s-.564 0-1.976 1.269c-.841.732-1.349 1.775-1.407 2.889-1.622-3.81-4.939-6.279-6.208-7.972C10.159 2.186 11.005 0 11.005 0 8.536 1.059 7.267 3.74 6.843 6.913c-.1 1.745-.981 3.352-2.398 4.375C4.092 8.325.776 7.548.776 7.548c.706.212 1.905 3.669.635 6.138C.544 15.294.061 17.081 0 18.907 0 24.833 3.74 29.63 10.723 29.63c2.877.089 5.663-1.01 7.705-3.038 2.042-2.029 3.16-4.808 3.09-7.685.14-2.116-.635-5.573-1.2-7.407z"/>
        <path fill="#231F20" d="M3.88 19.612c.039 3.79 3.123 6.843 6.913 6.843s6.875-3.052 6.914-6.843h1.129c-.06 4.4-3.643 7.934-8.042 7.934-4.4 0-7.983-3.535-8.043-7.934zm10.724-4.232c.818 0 1.482.947 1.482 2.116s-.664 2.116-1.482 2.116-1.481-.947-1.481-2.116.663-2.116 1.481-2.116zm-7.62 0c.819 0 1.482.947 1.482 2.116s-.663 2.116-1.481 2.116c-.819 0-1.482-.947-1.482-2.116s.663-2.116 1.482-2.116z"/>
        <path fill="#FFF" d="M28.155 24.785c.658 0 .987-.327.987-.983v-2.968h2.191c.623 0 1.191-.11 1.706-.331.515-.22.955-.528 1.32-.921.365-.394.65-.861.853-1.404.203-.542.305-1.135.305-1.78 0-.643-.102-1.233-.305-1.77-.204-.536-.488-1-.853-1.394-.365-.394-.805-.698-1.32-.912-.515-.215-1.083-.322-1.706-.322h-4.345c-.659 0-.988.328-.988.983v10.819c0 .656.33.983.988.983h1.167zm2.532-6.634h-1.545v-3.469h1.599c.526 0 .921.158 1.185.474.263.316.395.73.395 1.243 0 .513-.135.933-.404 1.26-.27.328-.68.492-1.23.492zm8.17 6.634c.658 0 .988-.327.988-.983v-2.593c0-.37.045-.721.134-1.055.09-.334.225-.626.404-.876.18-.25.407-.45.683-.6.275-.148.598-.223.97-.223.658 0 .987-.328.987-.983V16.47c0-.321-.063-.566-.188-.733-.126-.167-.345-.25-.656-.25-.287 0-.566.071-.835.215-.27.143-.512.321-.727.536-.216.215-.401.453-.557.715-.155.262-.27.513-.341.751h-.036c0-.06.006-.119.018-.179 0-.06.003-.119.009-.178.006-.06.009-.132.009-.215v-.572c0-.656-.33-.984-.988-.984h-1.005c-.659 0-.988.328-.988.984v7.242c0 .656.33.983.988.983h1.131zm9.715.215c.718 0 1.343-.09 1.876-.268.533-.179.967-.364 1.302-.555.275-.155.437-.348.485-.58.048-.233 0-.487-.144-.76l-.251-.466c-.156-.286-.341-.453-.557-.5-.215-.048-.473-.006-.772.125-.24.12-.503.22-.79.304-.287.083-.587.125-.898.125-.503 0-.958-.131-1.365-.393-.407-.263-.67-.68-.79-1.252h4.867c.31 0 .562-.11.754-.33.191-.221.287-.45.287-.69 0-.62-.093-1.197-.278-1.734-.186-.536-.461-1.001-.826-1.395-.365-.393-.814-.703-1.347-.93-.533-.226-1.14-.34-1.823-.34-.742 0-1.412.126-2.01.376-.6.25-1.105.59-1.518 1.02-.413.429-.73.935-.952 1.52-.221.584-.332 1.215-.332 1.895 0 .608.11 1.204.332 1.788.222.584.545 1.1.97 1.547.425.447.955.808 1.589 1.082s1.365.411 2.19.411zm.933-5.99H46.74c.084-.37.24-.692.467-.966.227-.274.569-.411 1.024-.411.395 0 .706.134.933.402.228.268.341.593.341.975zm6.465 5.775c.658 0 .988-.327.988-.983v-2.915c0-.322.026-.644.08-.965.054-.322.147-.611.279-.868.131-.256.31-.468.538-.634.228-.167.521-.25.88-.25.3 0 .494.106.584.321.09.215.135.495.135.84v4.47c0 .657.329.984.987.984h1.131c.659 0 .988-.327.988-.983v-2.915c0-.346.03-.682.09-1.01.06-.328.158-.617.296-.867.138-.25.32-.453.548-.608.227-.155.509-.233.844-.233.3 0 .494.107.583.322.09.215.135.495.135.84v4.47c0 .657.33.984.988.984h1.131c.658 0 .988-.327.988-.983v-4.99c0-.63-.078-1.167-.234-1.608-.155-.442-.368-.8-.637-1.073-.27-.275-.587-.471-.952-.59-.365-.12-.757-.18-1.176-.18-.347 0-.674.045-.979.135-.305.09-.583.208-.835.358-.251.149-.476.315-.673.5-.198.185-.356.373-.476.563h-.036c-.24-.524-.584-.914-1.033-1.17-.448-.257-.966-.385-1.553-.385-.359 0-.685.053-.978.16-.294.108-.554.24-.782.394-.227.155-.422.328-.583.519-.162.19-.296.363-.404.518h-.036v-.09c0-.023.003-.047.009-.07.006-.025.009-.048.009-.072v-.161c0-.656-.323-.984-.97-.984H54.84c-.659 0-.988.328-.988.984v7.242c0 .656.33.983.988.983h1.13zM71.95 14.414c.659 0 .988-.328.988-.983v-.448c0-.655-.33-.983-.988-.983h-1.059c-.658 0-.988.328-.988.983v.448c0 .655.33.983.988.983h1.06zm.036 10.371c.659 0 .988-.327.988-.983V16.56c0-.656-.33-.984-.988-.984h-1.13c-.66 0-.989.328-.989.984v7.242c0 .656.33.983.988.983h1.131zm5.998.215c.622 0 1.197-.14 1.724-.42.527-.28.916-.67 1.167-1.171h.036c-.012.023-.018.053-.018.089v.304c0 .656.323.983.97.983h1.005c.659 0 .988-.327.988-.983V16.56c0-.656-.33-.984-.988-.984h-1.131c-.658 0-.988.328-.988.984v3.093c0 .346-.039.67-.116.975-.078.304-.198.572-.36.805-.161.232-.365.417-.61.554-.245.137-.536.206-.871.206-.323 0-.569-.096-.736-.287-.168-.19-.252-.5-.252-.93V16.56c0-.656-.329-.984-.987-.984h-1.132c-.658 0-.987.328-.987.984v4.989c0 .644.084 1.186.251 1.627.168.441.401.796.7 1.064.3.268.65.462 1.051.581.401.12.829.179 1.284.179zm9.822-.215c.659 0 .988-.327.988-.983v-2.915c0-.322.027-.644.08-.965.055-.322.147-.611.28-.868.13-.256.31-.468.538-.634.227-.167.52-.25.88-.25.299 0 .493.106.583.321.09.215.135.495.135.84v4.47c0 .657.33.984.988.984h1.13c.66 0 .988-.327.988-.983v-2.915c0-.346.03-.682.09-1.01.06-.328.159-.617.297-.867.137-.25.32-.453.547-.608.228-.155.509-.233.844-.233.3 0 .494.107.584.322.09.215.134.495.134.84v4.47c0 .657.33.984.988.984h1.131c.659 0 .988-.327.988-.983v-4.99c0-.63-.078-1.167-.233-1.608-.156-.442-.369-.8-.638-1.073-.27-.275-.586-.471-.952-.59-.365-.12-.757-.18-1.176-.18-.347 0-.673.045-.978.135-.306.09-.584.208-.835.358-.252.149-.476.315-.674.5-.197.185-.356.373-.476.563h-.036c-.239-.524-.583-.914-1.032-1.17-.449-.257-.967-.385-1.553-.385-.36 0-.686.053-.979.16-.293.108-.554.24-.781.394-.228.155-.422.328-.584.519-.161.19-.296.363-.404.518h-.036v-.09c0-.023.003-.047.01-.07.005-.025.008-.048.008-.072v-.161c0-.656-.323-.984-.97-.984h-1.005c-.658 0-.988.328-.988.984v7.242c0 .656.33.983.988.983h1.131z"/>
    </g>
</svg>
