<svg xmlns="http://www.w3.org/2000/svg" width="60" height="24" viewBox="0 0 60 24">
    <defs>
        <radialGradient id="prefix__a" cx="58.665%" cy="75.25%" r="104.876%" fx="58.665%" fy="75.25%" gradientTransform="matrix(1 0 0 .72664 0 .206)">
            <stop offset="5%" stop-color="#FBAE17"/>
            <stop offset="17.4%" stop-color="#F6921E"/>
            <stop offset="40%" stop-color="#F16522"/>
            <stop offset="63%" stop-color="#D71921"/>
            <stop offset="79.7%" stop-color="#C3161C"/>
            <stop offset="95.6%" stop-color="#B01117"/>
        </radialGradient>
    </defs>
    <g fill="none" fill-rule="evenodd">
        <path fill="url(#prefix__a)" fill-rule="nonzero" d="M16.255 9.2c-.452-1.411.507-3.16.507-3.16s-.451 0-1.58 1.015c-.673.586-1.08 1.42-1.126 2.311-1.298-3.048-3.95-5.023-4.967-6.377C8.127 1.749 8.804 0 8.804 0c-1.975.847-2.99 2.991-3.33 5.53-.08 1.397-.785 2.682-1.918 3.5C3.274 6.66.62 6.04.62 6.04c.564.17 1.524 2.934.508 4.91C.435 12.235.049 13.665 0 15.126c0 4.74 2.991 8.578 8.579 8.578 2.3.071 4.53-.808 6.163-2.43 1.634-1.623 2.528-3.847 2.472-6.148.113-1.693-.508-4.46-.96-5.926z"/>
        <path fill="#231F20" d="M3.103 15.69c.032 3.032 2.499 5.474 5.532 5.474 3.032 0 5.5-2.442 5.53-5.474h.904c-.048 3.52-2.915 6.347-6.434 6.347-3.52 0-6.386-2.828-6.434-6.347zm8.58-3.386c.655 0 1.185.758 1.185 1.693s-.53 1.693-1.185 1.693c-.654 0-1.185-.758-1.185-1.693s.53-1.693 1.185-1.693zm-6.095 0c.654 0 1.185.758 1.185 1.693s-.53 1.693-1.185 1.693-1.186-.758-1.186-1.693.531-1.693 1.186-1.693z"/>
        <g fill="#40474F">
            <path d="M31.382 5.106c.837.204 1.587.642 2.135 1.283.49.759.663 1.692.519 2.566-.116.992-.404 1.983-.577 2.975-.056.482-.092.97-.052 1.456.039.46.062.885-.15 1.314-.433.554-1.24.67-1.817.233-.115-.058-.173-.175-.23-.233-.174-.292-.347-.583-.52-.904-.894.467-1.904.67-2.884.583-.75-.116-1.442-.437-2.019-.904-.664-.525-1.039-1.37-.98-2.216.028-.816.403-1.604 1.038-2.1.413-.322.978-.504 1.488-.578.584-.084 1.185-.002 1.773-.006.49-.005.98-.026 1.469-.057l.692-.058V8.4c0-.175 0-.35-.058-.524-.25-.76-1.405-1.05-2.09-.847-.35.104-.65.296-.967.467-.402.218-.91.362-1.336.128-.313-.172-.503-.51-.56-.857-.178-1.075 1.098-1.753 1.977-1.92 1.062-.2 2.118.007 3.15.258zM1.905 1.928c.404.146.692.496.808.904.201 1.02.317 2.07.403 3.09.173-.233.404-.407.635-.582 1.269-.875 2.942-.846 4.182.087.577.583.98 1.342 1.096 2.158.173.991.462 4.082.52 4.578.086.467.028.933-.174 1.341-.346.642-1.125.904-1.817.642-.807-.35-.894-1.4-.894-2.1-.115-1.05-.173-2.04-.288-3.032-.116-.817-.289-1.867-1.27-1.837-.692.058-1.297.495-1.557 1.137-.086.437-.086.846-.058 1.283.058.525.231 2.391.289 2.858.057.379.086.729.057 1.108-.115.7-.692 1.225-1.384 1.283-.346 0-.663-.117-.894-.35-.289-.291-.462-.7-.52-1.108-.172-.992-.807-8.31-.98-9.302-.086-.467-.086-.933.058-1.4.144-.32.375-.554.692-.7.346-.175.75-.175 1.096-.058zm36.169 10.09c.384.49.522 1.124.3 1.72-.228.608-.827.968-1.442 1.07-.437.072-.896.01-1.264-.251-.368-.262-.64-.661-.736-1.107-.075-.343-.046-.711.116-1.063.156-.34.407-.635.719-.836.778-.438 1.759-.233 2.307.466zM21.72 1.52c.692 0 1.327.466 1.5 1.166.058.35.058.904.115 1.4 0 0 .692 8.427.692 8.777.087.846-.461 1.604-1.269 1.75-1.269.058-1.5-.904-1.615-1.517L20.51 4.32c-.058-.467-.058-.933-.058-1.4.029-.729.548-1.312 1.269-1.4zm-4.903 3.82c1.08.42 1.96 1.285 2.397 2.369.274.678.352 1.422.33 2.15-.004.178-.015.352-.033.524-.05.486-.159.954-.357 1.417-.197.457-.463.884-.787 1.26-.315.365-.713.75-1.147.97-1.442.728-3.143.7-4.586-.06-.72-.378-1.297-.932-1.73-1.632-.49-.787-.692-1.72-.577-2.624 0-1.575.75-3.033 1.961-3.966 1.356-.846 3.029-.991 4.529-.408zm14.075 5.044c-.42.036-.843.045-1.265.053-.67.01-1.907-.09-1.994.88-.027.303.127.61.36.793.577.449 1.706.297 2.207-.21.404-.408.663-.932.692-1.516zm-16.325-3.09c-.412.133-.796.563-1.01.926-.287.485-.412 1.103-.432 1.664-.01.304.018.608.086.905.136.587.392 1.093.958 1.353.582.268 1.277.182 1.782-.212.03 0 .058-.03.058-.058.25-.267.454-.578.603-.913.224-.503.326-1.018.31-1.572-.009-.339-.056-.68-.175-.998-.06-.16-.14-.31-.238-.442-.435-.599-1.2-.894-1.942-.654zM39.574.498c.288.291.432.7.403 1.108.058.496 0 .992-.115 1.458-.173 1.05-1.096 5.103-1.384 6.094-.087.438-.318.817-.635 1.109-.317.262-.778.32-1.153.116-.825-.333-.782-1.371-.72-2.157l.022-.277c.064-.857.116-1.715.178-2.572.072-1.014.144-2.03.261-3.04.017-.144.05-.294.057-.44.028-.757.49-1.428 1.153-1.749.663-.291 1.414-.146 1.933.35z" transform="translate(20 6.4)"/>
        </g>
    </g>
</svg>
