<?xml version="1.0" encoding="UTF-8"?>
<svg width="100px" height="30px" viewBox="0 0 100 30" version="1.1" xmlns="http://www.w3.org/2000/svg" xmlns:xlink="http://www.w3.org/1999/xlink">
    <title>logo / plus</title>
    <defs>
        <radialGradient cx="58.6650628%" cy="75.2497662%" fx="58.6650628%" fy="75.2497662%" r="104.875714%" gradientTransform="translate(0.586651,0.752498),scale(1.000000,0.726644),translate(-0.586651,-0.752498)" id="radialGradient-1">
            <stop stop-color="#FBAE17" offset="5%"></stop>
            <stop stop-color="#F6921E" offset="17.4%"></stop>
            <stop stop-color="#F16522" offset="40%"></stop>
            <stop stop-color="#D71921" offset="63%"></stop>
            <stop stop-color="#C3161C" offset="79.7%"></stop>
            <stop stop-color="#B01117" offset="95.6%"></stop>
        </radialGradient>
    </defs>
    <g id="logo-/-plus" stroke="none" stroke-width="1" fill="none" fill-rule="evenodd">
        <g id="Group">
            <path d="M20.318252,11.4995277 C19.7537944,9.7357828 20.9530817,7.54906509 20.9530817,7.54906509 C20.9530817,7.54906509 20.388624,7.54906509 18.97748,8.81872436 C18.1359514,9.55098338 17.6279753,10.5936712 17.5700397,11.7076807 C15.9477796,7.89796213 12.6314059,5.42901561 11.3617467,3.73564275 C10.1587556,2.18671771 11.0054421,1.77635684e-15 11.0054421,1.77635684e-15 C8.53649555,1.05854323 7.26683628,3.73934654 6.84312269,6.9134947 C6.74265884,8.65823211 5.86164126,10.2649056 4.44454819,11.2876709 C4.09194736,8.32463875 0.776314416,7.54832433 0.776314416,7.54832433 C1.48151606,7.76018113 2.68080331,11.2165581 1.41114405,13.6862454 C0.543510331,15.2940529 0.0604807506,17.0811356 5.32907052e-14,18.907108 C5.32907052e-14,24.8331722 3.73934654,29.6303212 10.7232133,29.6303212 C13.5998612,29.7188797 16.3862291,28.6199705 18.4280045,26.5916462 C20.4697799,24.563322 21.5870821,21.7842784 21.5175393,18.907108 C21.6582833,16.7907623 20.8827096,13.3336446 20.318252,11.4995277 Z" id="Body_1_" fill="url(#radialGradient-1)" fill-rule="nonzero"></path>
            <path d="M3.87934981,19.6123096 C3.91858544,23.4028146 7.00250684,26.4549795 10.7932149,26.4549795 C14.5839229,26.4549795 17.6678443,23.4028146 17.70708,19.6123096 L17.70708,19.6123096 L18.8359952,19.6123096 C18.7762866,24.0114433 15.1931242,27.5463021 10.7935853,27.5463021 C6.39404636,27.5463021 2.81088398,24.0114433 2.75117533,19.6123096 L2.75117533,19.6123096 Z M14.6040446,15.3796182 C15.4222633,15.3796182 16.0855606,16.3271385 16.0855606,17.4959639 C16.0855606,18.6647894 15.4222633,19.6123096 14.6040446,19.6123096 C13.7858259,19.6123096 13.1225285,18.6647894 13.1225285,17.4959639 C13.1225285,16.3271385 13.7858259,15.3796182 14.6040446,15.3796182 Z M6.98460747,15.3796182 C7.8028262,15.3796182 8.46612353,16.3271385 8.46612353,17.4959639 C8.46612353,18.6647894 7.8028262,19.6123096 6.98460747,19.6123096 C6.16638875,19.6123096 5.50309141,18.6647894 5.50309141,17.4959639 C5.50309141,16.3271385 6.16638875,15.3796182 6.98460747,15.3796182 Z" id="Combined-Shape" fill="#231F20"></path>
        </g>
        <path d="M28.1548168,24.7854195 C28.813233,24.7854195 29.1424412,24.4575883 29.1424412,23.8019257 L29.1424412,23.8019257 L29.1424412,20.8335626 L31.3331716,20.8335626 C31.9556742,20.8335626 32.5243064,20.7232921 33.0390682,20.502751 C33.55383,20.28221 33.9937717,19.9752407 34.3588935,19.5818432 C34.7240152,19.1884457 35.0083313,18.720541 35.2118418,18.1781293 C35.4153523,17.6357176 35.5171075,17.042641 35.5171075,16.3988996 C35.5171075,15.7551582 35.4153523,15.1650619 35.2118418,14.6286107 C35.0083313,14.0921596 34.7240152,13.6272352 34.3588935,13.2338377 C33.9937717,12.8404402 33.55383,12.5364512 33.0390682,12.3218707 C32.5243064,12.1072902 31.9556742,12 31.3331716,12 L31.3331716,12 L26.9876244,12 C26.3292081,12 26,12.3278313 26,12.9834938 L26,12.9834938 L26,23.8019257 C26,24.4575883 26.3292081,24.7854195 26.9876244,24.7854195 L26.9876244,24.7854195 L28.1548168,24.7854195 Z M30.6867265,18.1513067 L29.1424412,18.1513067 L29.1424412,14.6822558 L30.7405969,14.6822558 C31.2673299,14.6822558 31.6623797,14.8402109 31.9257462,15.156121 C32.1891127,15.4720312 32.3207959,15.8862907 32.3207959,16.3988996 C32.3207959,16.9115085 32.1861199,17.3317286 31.9167678,17.6595598 C31.6474157,17.9873911 31.2374019,18.1513067 30.6867265,18.1513067 L30.6867265,18.1513067 Z M38.8570735,24.7854195 C39.5154898,24.7854195 39.8446979,24.4575883 39.8446979,23.8019257 L39.8446979,23.8019257 L39.8446979,21.2090784 C39.8446979,20.8395232 39.8895899,20.4878496 39.9793739,20.1540578 C40.069158,19.8202659 40.203834,19.5281981 40.3834021,19.2778542 C40.5629702,19.0275103 40.790423,18.8278313 41.0657607,18.6788171 C41.3410984,18.5298028 41.664321,18.4552957 42.0354283,18.4552957 C42.6938445,18.4552957 43.0230527,18.1274645 43.0230527,17.4718019 L43.0230527,17.4718019 L43.0230527,16.4704264 C43.0230527,16.1485557 42.9602038,15.9041724 42.8345062,15.7372765 C42.7088085,15.5703806 42.4903341,15.4869326 42.1790827,15.4869326 C41.8917738,15.4869326 41.6134433,15.5584594 41.3440912,15.7015131 C41.0747391,15.8445667 40.8323223,16.0233838 40.6168406,16.2379642 C40.4013589,16.4525447 40.2158052,16.6909674 40.0601796,16.9532325 C39.9045539,17.2154975 39.7908275,17.4658414 39.7190002,17.7042641 L39.7190002,17.7042641 L39.6830866,17.7042641 C39.6830866,17.6446584 39.6890722,17.5850527 39.7010434,17.525447 C39.7010434,17.4658414 39.7040362,17.4062357 39.7100218,17.34663 C39.7160074,17.2870243 39.7190002,17.2154975 39.7190002,17.1320495 L39.7190002,17.1320495 L39.7190002,16.5598349 C39.7190002,15.9041724 39.3897921,15.5763411 38.7313759,15.5763411 L38.7313759,15.5763411 L37.7257947,15.5763411 C37.0673785,15.5763411 36.7381703,15.9041724 36.7381703,16.5598349 L36.7381703,16.5598349 L36.7381703,23.8019257 C36.7381703,24.4575883 37.0673785,24.7854195 37.7257947,24.7854195 L37.7257947,24.7854195 L38.8570735,24.7854195 Z M48.5717059,25 C49.2899782,25 49.9154736,24.9105915 50.4481922,24.7317744 C50.9809108,24.5529574 51.4148669,24.3681797 51.7500607,24.1774415 C52.0253984,24.0224668 52.1870096,23.8287483 52.2348944,23.5962861 C52.2827793,23.3638239 52.2348944,23.1104998 52.09124,22.8363136 L52.09124,22.8363136 L51.8398447,22.3713893 C51.684219,22.085282 51.4986654,21.9183861 51.2831837,21.8707015 C51.067702,21.823017 50.8103211,21.8647409 50.511041,21.9958735 C50.2716169,22.1150848 50.0082504,22.2164145 49.7209415,22.2998624 C49.4336326,22.3833104 49.1343525,22.4250344 48.8231012,22.4250344 C48.3203106,22.4250344 47.8654048,22.2939019 47.4583839,22.0316369 C47.0513629,21.7693718 46.7879964,21.352132 46.6682844,20.7799175 L46.6682844,20.7799175 L51.534579,20.7799175 C51.8458303,20.7799175 52.0972256,20.669647 52.2887649,20.4491059 C52.4803041,20.2285649 52.5760738,19.999083 52.5760738,19.7606602 C52.5760738,19.1407611 52.4832969,18.562586 52.2977433,18.0261348 C52.1121896,17.4896836 51.8368519,17.0247593 51.4717302,16.6313618 C51.1066084,16.2379642 50.6576883,15.9280147 50.1249697,15.7015131 C49.5922511,15.4750115 48.9847124,15.3617607 48.3023538,15.3617607 C47.5601391,15.3617607 46.8897517,15.4869326 46.2911915,15.7372765 C45.6926312,15.9876204 45.1868479,16.3273728 44.7738413,16.7565337 C44.3608347,17.1856946 44.0435978,17.692343 43.8221306,18.2764787 C43.6006633,18.8606144 43.4899296,19.4924347 43.4899296,20.1719395 C43.4899296,20.7799175 43.6006633,21.3759743 43.8221306,21.96011 C44.0435978,22.5442458 44.3668204,23.0598349 44.7917981,23.5068776 C45.2167759,23.9539202 45.7465017,24.3145346 46.3809755,24.5887208 C47.0154493,24.8629069 47.7456928,25 48.5717059,25 Z M49.5054598,19.0096286 L46.7401116,19.0096286 C46.8239101,18.6400734 46.9795357,18.3182027 47.2069886,18.0440165 C47.4344415,17.7698304 47.7756208,17.6327373 48.2305266,17.6327373 C48.6255763,17.6327373 48.9368276,17.7668501 49.1642805,18.0350757 C49.3917334,18.3033012 49.5054598,18.6281522 49.5054598,19.0096286 L49.5054598,19.0096286 Z M55.9699102,24.7854195 C56.6283265,24.7854195 56.9575346,24.4575883 56.9575346,23.8019257 L56.9575346,23.8019257 L56.9575346,20.8872077 C56.9575346,20.565337 56.9844698,20.2434663 57.0383402,19.9215956 C57.0922106,19.5997249 57.1849875,19.3106373 57.3166707,19.0543329 C57.448354,18.7980284 57.627922,18.5864282 57.8553749,18.4195323 C58.0828278,18.2526364 58.3761223,18.1691884 58.7352584,18.1691884 C59.0345385,18.1691884 59.2290706,18.2764787 59.3188546,18.4910591 C59.4086387,18.7056396 59.4535307,18.9857863 59.4535307,19.3314993 L59.4535307,19.3314993 L59.4535307,23.8019257 C59.4535307,24.4575883 59.7827388,24.7854195 60.4411551,24.7854195 L60.4411551,24.7854195 L61.5724339,24.7854195 C62.2308501,24.7854195 62.5600582,24.4575883 62.5600582,23.8019257 L62.5600582,23.8019257 L62.5600582,20.8872077 C62.5600582,20.5414947 62.5899862,20.2047226 62.6498423,19.8768913 C62.7096983,19.5490601 62.8084607,19.2599725 62.9461296,19.0096286 C63.0837984,18.7592847 63.2663593,18.5566254 63.4938122,18.4016506 C63.7212651,18.2466758 64.0025884,18.1691884 64.3377821,18.1691884 C64.6370622,18.1691884 64.8315943,18.2764787 64.9213783,18.4910591 C65.0111623,18.7056396 65.0560544,18.9857863 65.0560544,19.3314993 L65.0560544,19.3314993 L65.0560544,23.8019257 C65.0560544,24.4575883 65.3852625,24.7854195 66.0436787,24.7854195 L66.0436787,24.7854195 L67.1749575,24.7854195 C67.8333738,24.7854195 68.1625819,24.4575883 68.1625819,23.8019257 L68.1625819,23.8019257 L68.1625819,18.8129298 C68.1625819,18.1811096 68.0847691,17.6446584 67.9291434,17.2035763 C67.7735178,16.7624943 67.5610289,16.4048602 67.2916768,16.130674 C67.0223247,15.8564878 66.7050878,15.6597891 66.339966,15.5405777 C65.9748443,15.4213663 65.5827873,15.3617607 65.1637952,15.3617607 C64.8166303,15.3617607 64.4904149,15.4064649 64.1851492,15.4958735 C63.8798835,15.585282 63.601553,15.7044934 63.3501577,15.8535076 C63.0987624,16.0025218 62.8743024,16.1694177 62.6767775,16.3541953 C62.4792526,16.5389729 62.3206342,16.7267309 62.2009221,16.9174691 L62.2009221,16.9174691 L62.1650085,16.9174691 C61.9255844,16.392939 61.5814123,16.0025218 61.1324921,15.7462173 C60.6835719,15.4899129 60.1658174,15.3617607 59.5792283,15.3617607 C59.2200922,15.3617607 58.8938769,15.4154058 58.6005824,15.522696 C58.3072879,15.6299862 58.0469142,15.7611188 57.8194613,15.9160935 C57.5920084,16.0710683 57.3974763,16.2439248 57.2358651,16.434663 C57.0742538,16.6254012 56.9395778,16.7982577 56.8318369,16.9532325 L56.8318369,16.9532325 L56.7959233,16.9532325 L56.7959233,16.8638239 C56.7959233,16.8399817 56.7989161,16.8161394 56.8049017,16.7922971 C56.8108873,16.7684548 56.8138801,16.7446126 56.8138801,16.7207703 L56.8138801,16.7207703 L56.8138801,16.5598349 C56.8138801,15.9041724 56.4906576,15.5763411 55.8442126,15.5763411 L55.8442126,15.5763411 L54.8386314,15.5763411 C54.1802152,15.5763411 53.851007,15.9041724 53.851007,16.5598349 L53.851007,16.5598349 L53.851007,23.8019257 C53.851007,24.4575883 54.1802152,24.7854195 54.8386314,24.7854195 L54.8386314,24.7854195 L55.9699102,24.7854195 Z M71.9514681,14.4140303 C72.6098843,14.4140303 72.9390925,14.086199 72.9390925,13.4305365 L72.9390925,13.4305365 L72.9390925,12.9834938 C72.9390925,12.3278313 72.6098843,12 71.9514681,12 L71.9514681,12 L70.8920165,12 C70.2336003,12 69.9043921,12.3278313 69.9043921,12.9834938 L69.9043921,12.9834938 L69.9043921,13.4305365 C69.9043921,14.086199 70.2336003,14.4140303 70.8920165,14.4140303 L70.8920165,14.4140303 L71.9514681,14.4140303 Z M71.9873817,24.7854195 C72.6457979,24.7854195 72.9750061,24.4575883 72.9750061,23.8019257 L72.9750061,23.8019257 L72.9750061,16.5598349 C72.9750061,15.9041724 72.6457979,15.5763411 71.9873817,15.5763411 L71.9873817,15.5763411 L70.8561029,15.5763411 C70.1976866,15.5763411 69.8684785,15.9041724 69.8684785,16.5598349 L69.8684785,16.5598349 L69.8684785,23.8019257 C69.8684785,24.4575883 70.1976866,24.7854195 70.8561029,24.7854195 L70.8561029,24.7854195 L71.9873817,24.7854195 Z M77.9849551,25 C78.6074577,25 79.1820755,24.8599266 79.7088085,24.5797799 C80.2355415,24.2996332 80.6246057,23.909216 80.876001,23.4085282 L80.876001,23.4085282 L80.9119146,23.4085282 C80.8999434,23.4323705 80.8939578,23.4621733 80.8939578,23.4979367 L80.8939578,23.4979367 L80.8939578,23.8019257 C80.8939578,24.4575883 81.2171803,24.7854195 81.8636253,24.7854195 L81.8636253,24.7854195 L82.8692065,24.7854195 C83.5276227,24.7854195 83.8568309,24.4575883 83.8568309,23.8019257 L83.8568309,23.8019257 L83.8568309,16.5598349 C83.8568309,15.9041724 83.5276227,15.5763411 82.8692065,15.5763411 L82.8692065,15.5763411 L81.7379277,15.5763411 C81.0795114,15.5763411 80.7503033,15.9041724 80.7503033,16.5598349 L80.7503033,16.5598349 L80.7503033,19.65337 C80.7503033,19.999083 80.7113969,20.323934 80.6335841,20.627923 C80.5557713,20.931912 80.4360592,21.2001376 80.2744479,21.4325997 C80.1128367,21.6650619 79.9093262,21.8498395 79.6639165,21.9869326 C79.4185068,22.1240257 79.1282051,22.1925722 78.7930114,22.1925722 C78.4697889,22.1925722 78.2243792,22.0972031 78.0567823,21.9064649 C77.8891855,21.7157267 77.805387,21.4057772 77.805387,20.9766162 L77.805387,20.9766162 L77.805387,16.5598349 C77.805387,15.9041724 77.4761789,15.5763411 76.8177627,15.5763411 L76.8177627,15.5763411 L75.6864839,15.5763411 C75.0280676,15.5763411 74.6988595,15.9041724 74.6988595,16.5598349 L74.6988595,16.5598349 L74.6988595,21.5488308 C74.6988595,22.1925722 74.7826579,22.734984 74.9502548,23.176066 C75.1178517,23.6171481 75.3512901,23.9718019 75.6505702,24.2400275 C75.9498504,24.5082531 76.3000081,24.7019716 76.7010434,24.8211829 C77.1020788,24.9403943 77.5300493,25 77.9849551,25 Z M87.8073283,24.7854195 C88.4657446,24.7854195 88.7949527,24.4575883 88.7949527,23.8019257 L88.7949527,23.8019257 L88.7949527,20.8872077 C88.7949527,20.565337 88.8218879,20.2434663 88.8757583,19.9215956 C88.9296287,19.5997249 89.0224056,19.3106373 89.1540888,19.0543329 C89.2857721,18.7980284 89.4653401,18.5864282 89.692793,18.4195323 C89.9202459,18.2526364 90.2135404,18.1691884 90.5726765,18.1691884 C90.8719566,18.1691884 91.0664887,18.2764787 91.1562727,18.4910591 C91.2460568,18.7056396 91.2909488,18.9857863 91.2909488,19.3314993 L91.2909488,19.3314993 L91.2909488,23.8019257 C91.2909488,24.4575883 91.6201569,24.7854195 92.2785732,24.7854195 L92.2785732,24.7854195 L93.409852,24.7854195 C94.0682682,24.7854195 94.3974763,24.4575883 94.3974763,23.8019257 L94.3974763,23.8019257 L94.3974763,20.8872077 C94.3974763,20.5414947 94.4274044,20.2047226 94.4872604,19.8768913 C94.5471164,19.5490601 94.6458788,19.2599725 94.7835477,19.0096286 C94.9212165,18.7592847 95.1037774,18.5566254 95.3312303,18.4016506 C95.5586832,18.2466758 95.8400065,18.1691884 96.1752002,18.1691884 C96.4744803,18.1691884 96.6690124,18.2764787 96.7587964,18.4910591 C96.8485804,18.7056396 96.8934725,18.9857863 96.8934725,19.3314993 L96.8934725,19.3314993 L96.8934725,23.8019257 C96.8934725,24.4575883 97.2226806,24.7854195 97.8810968,24.7854195 L97.8810968,24.7854195 L99.0123756,24.7854195 C99.6707919,24.7854195 100,24.4575883 100,23.8019257 L100,23.8019257 L100,18.8129298 C100,18.1811096 99.9221872,17.6446584 99.7665615,17.2035763 C99.6109359,16.7624943 99.398447,16.4048602 99.1290949,16.130674 C98.8597428,15.8564878 98.5425059,15.6597891 98.1773841,15.5405777 C97.8122624,15.4213663 97.4202055,15.3617607 97.0012133,15.3617607 C96.6540484,15.3617607 96.3278331,15.4064649 96.0225673,15.4958735 C95.7173016,15.585282 95.4389711,15.7044934 95.1875758,15.8535076 C94.9361805,16.0025218 94.7117205,16.1694177 94.5141956,16.3541953 C94.3166707,16.5389729 94.1580523,16.7267309 94.0383402,16.9174691 L94.0383402,16.9174691 L94.0024266,16.9174691 C93.7630025,16.392939 93.4188304,16.0025218 92.9699102,15.7462173 C92.5209901,15.4899129 92.0032355,15.3617607 91.4166464,15.3617607 C91.0575103,15.3617607 90.731295,15.4154058 90.4380005,15.522696 C90.144706,15.6299862 89.8843323,15.7611188 89.6568794,15.9160935 C89.4294265,16.0710683 89.2348944,16.2439248 89.0732832,16.434663 C88.9116719,16.6254012 88.7769959,16.7982577 88.669255,16.9532325 L88.669255,16.9532325 L88.6333414,16.9532325 L88.6333414,16.8638239 C88.6333414,16.8399817 88.6363342,16.8161394 88.6423198,16.7922971 C88.6483054,16.7684548 88.6512982,16.7446126 88.6512982,16.7207703 L88.6512982,16.7207703 L88.6512982,16.5598349 C88.6512982,15.9041724 88.3280757,15.5763411 87.6816307,15.5763411 L87.6816307,15.5763411 L86.6760495,15.5763411 C86.0176333,15.5763411 85.6884251,15.9041724 85.6884251,16.5598349 L85.6884251,16.5598349 L85.6884251,23.8019257 C85.6884251,24.4575883 86.0176333,24.7854195 86.6760495,24.7854195 L86.6760495,24.7854195 L87.8073283,24.7854195 Z" id="Premium" fill="#40474F" fill-rule="nonzero"></path>
    </g>
</svg>

