<svg width="117" height="24" viewBox="0 0 117 24" fill="none" xmlns="http://www.w3.org/2000/svg">
<path d="M16.2546 9.19962C15.803 7.78863 16.7625 6.03925 16.7625 6.03925C16.7625 6.03925 16.3109 6.03925 15.182 7.05498C14.5088 7.64079 14.1024 8.47494 14.056 9.36614C12.7582 6.31837 10.1051 4.34321 9.0894 2.98851C8.127 1.74937 8.80435 0 8.80435 0C6.8292 0.846835 5.81347 2.99148 5.4745 5.5308C5.39413 6.92659 4.68931 8.21192 3.55564 9.03014C3.27356 6.65971 0.621052 6.03866 0.621052 6.03866C1.18521 6.20814 2.14464 8.97325 1.12892 10.949C0.434808 12.2352 0.0483846 13.6649 0 15.1257C0 19.8665 2.99148 23.7043 8.57857 23.7043C10.8799 23.7751 13.109 22.896 14.7424 21.2733C16.3758 19.6507 17.2697 17.4274 17.214 15.1257C17.3266 13.4326 16.7062 10.6669 16.2546 9.19962Z" fill="url(#paint0_radial)"/>
<path fill-rule="evenodd" clip-rule="evenodd" d="M12.8685 13.9968C12.8685 14.9318 12.3378 15.6899 11.6832 15.6899C11.0287 15.6899 10.498 14.9318 10.498 13.9968C10.498 13.0617 11.0287 12.3037 11.6832 12.3037C12.3378 12.3037 12.8685 13.0617 12.8685 13.9968ZM14.1657 15.6899C14.1343 18.7223 11.6672 21.164 8.63462 21.164C5.60205 21.164 3.13492 18.7223 3.10353 15.6899H2.20099C2.24876 19.2092 5.11529 22.0371 8.63492 22.0371C12.1545 22.0371 15.0211 19.2092 15.0688 15.6899H14.1657ZM5.58773 15.6899C6.2423 15.6899 6.77294 14.9318 6.77294 13.9968C6.77294 13.0617 6.2423 12.3037 5.58773 12.3037C4.93315 12.3037 4.40251 13.0617 4.40251 13.9968C4.40251 14.9318 4.93315 15.6899 5.58773 15.6899Z" fill="#231F20"/>
<path fill-rule="evenodd" clip-rule="evenodd" d="M22.5355 19.8284C23.0658 19.8284 23.331 19.5662 23.331 19.0416V16.0375H25.6884C26.2187 16.0375 26.4839 15.7752 26.4839 15.2507V14.6785C26.4839 14.154 26.2187 13.8917 25.6884 13.8917H23.331V11.7459H26.3392C26.8695 11.7459 27.1347 11.4836 27.1347 10.9591V10.3869C27.1347 9.86236 26.8695 9.6001 26.3392 9.6001H21.5954C21.0651 9.6001 20.8 9.86236 20.8 10.3869V19.0416C20.8 19.5662 21.0651 19.8284 21.5954 19.8284H22.5355ZM29.8247 19.8284C30.355 19.8284 30.6202 19.5662 30.6202 19.0416V16.9674C30.6202 16.6717 30.6564 16.3904 30.7287 16.1233C30.801 15.8563 30.9095 15.6227 31.0541 15.4224C31.1987 15.2221 31.3819 15.0624 31.6037 14.9432C31.8254 14.8239 32.0858 14.7643 32.3847 14.7643C32.915 14.7643 33.1801 14.5021 33.1801 13.9775V13.1764C33.1801 12.9189 33.1295 12.7234 33.0283 12.5899C32.927 12.4564 32.751 12.3896 32.5004 12.3896C32.269 12.3896 32.0448 12.4469 31.8278 12.5613C31.6109 12.6758 31.4156 12.8188 31.2421 12.9905C31.0685 13.1621 30.9191 13.3529 30.7937 13.5627C30.6684 13.7725 30.5768 13.9728 30.519 14.1635H30.49C30.49 14.1158 30.4948 14.0681 30.5045 14.0205C30.5045 13.9728 30.5069 13.9251 30.5117 13.8774C30.5165 13.8297 30.519 13.7725 30.519 13.7057V13.248C30.519 12.7234 30.2538 12.4612 29.7235 12.4612H28.9136C28.3833 12.4612 28.1181 12.7234 28.1181 13.248V19.0416C28.1181 19.5662 28.3833 19.8284 28.9136 19.8284H29.8247ZM37.6491 20.0001C38.2277 20.0001 38.7315 19.9286 39.1605 19.7855C39.5896 19.6425 39.9391 19.4946 40.2091 19.342C40.4308 19.2181 40.561 19.0631 40.5996 18.8771C40.6381 18.6912 40.5996 18.4885 40.4839 18.2691L40.2814 17.8972C40.156 17.6683 40.0066 17.5348 39.833 17.4967C39.6595 17.4585 39.4522 17.4919 39.2111 17.5968C39.0183 17.6922 38.8062 17.7732 38.5748 17.84C38.3434 17.9067 38.1023 17.9401 37.8516 17.9401C37.4467 17.9401 37.0803 17.8352 36.7525 17.6254C36.4246 17.4156 36.2125 17.0818 36.1161 16.624H40.0355C40.2862 16.624 40.4887 16.5358 40.643 16.3594C40.7972 16.1829 40.8744 15.9994 40.8744 15.8086C40.8744 15.3127 40.7996 14.8502 40.6502 14.421C40.5007 13.9918 40.279 13.6199 39.9849 13.3052C39.6908 12.9905 39.3292 12.7425 38.9002 12.5613C38.4711 12.3801 37.9818 12.2895 37.4322 12.2895C36.8344 12.2895 36.2945 12.3896 35.8124 12.5899C35.3303 12.7902 34.9229 13.062 34.5903 13.4053C34.2576 13.7487 34.0021 14.154 33.8237 14.6213C33.6454 15.0886 33.5562 15.594 33.5562 16.1376C33.5562 16.624 33.6454 17.1009 33.8237 17.5682C34.0021 18.0355 34.2624 18.448 34.6047 18.8056C34.947 19.1632 35.3737 19.4517 35.8847 19.6711C36.3957 19.8904 36.9839 20.0001 37.6491 20.0001ZM38.4013 15.2078H36.174C36.2415 14.9122 36.3668 14.6547 36.55 14.4353C36.7332 14.216 37.008 14.1063 37.3744 14.1063C37.6926 14.1063 37.9433 14.2136 38.1265 14.4282C38.3097 14.6427 38.4013 14.9026 38.4013 15.2078ZM45.5748 20.0001C46.1533 20.0001 46.6571 19.9286 47.0862 19.7855C47.5153 19.6425 47.8648 19.4946 48.1347 19.342C48.3565 19.2181 48.4867 19.0631 48.5252 18.8771C48.5638 18.6912 48.5252 18.4885 48.4095 18.2691L48.2071 17.8972C48.0817 17.6683 47.9323 17.5348 47.7587 17.4967C47.5852 17.4585 47.3779 17.4919 47.1368 17.5968C46.944 17.6922 46.7319 17.7732 46.5004 17.84C46.269 17.9067 46.028 17.9401 45.7773 17.9401C45.3723 17.9401 45.006 17.8352 44.6781 17.6254C44.3503 17.4156 44.1382 17.0818 44.0418 16.624H47.9612C48.2119 16.624 48.4144 16.5358 48.5686 16.3594C48.7229 16.1829 48.8 15.9994 48.8 15.8086C48.8 15.3127 48.7253 14.8502 48.5759 14.421C48.4264 13.9918 48.2046 13.6199 47.9106 13.3052C47.6165 12.9905 47.2549 12.7425 46.8259 12.5613C46.3968 12.3801 45.9075 12.2895 45.3579 12.2895C44.7601 12.2895 44.2201 12.3896 43.738 12.5899C43.256 12.7902 42.8486 13.062 42.5159 13.4053C42.1833 13.7487 41.9278 14.154 41.7494 14.6213C41.571 15.0886 41.4818 15.594 41.4818 16.1376C41.4818 16.624 41.571 17.1009 41.7494 17.5682C41.9278 18.0355 42.1881 18.448 42.5304 18.8056C42.8727 19.1632 43.2993 19.4517 43.8104 19.6711C44.3214 19.8904 44.9095 20.0001 45.5748 20.0001ZM46.3268 15.2078H44.0996C44.1671 14.9122 44.2924 14.6547 44.4756 14.4353C44.6588 14.216 44.9336 14.1063 45.3 14.1063C45.6182 14.1063 45.8689 14.2136 46.052 14.4282C46.2352 14.6427 46.3268 14.9026 46.3268 15.2078Z" fill="#40474F"/>
<path d="M52 10.3921C52 9.8641 52.264 9.6001 52.792 9.6001H53.728C54.256 9.6001 54.52 9.8641 54.52 10.3921V16.1089C54.52 16.6561 54.6784 17.0689 54.9952 17.3473C55.3216 17.6257 55.7584 17.7649 56.3056 17.7649C56.8528 17.7649 57.2848 17.6257 57.6016 17.3473C57.928 17.0689 58.0912 16.6561 58.0912 16.1089V10.3921C58.0912 9.8641 58.3552 9.6001 58.8832 9.6001H59.8192C60.3472 9.6001 60.6112 9.8641 60.6112 10.3921V16.1089C60.6112 16.6849 60.5056 17.2177 60.2944 17.7073C60.0928 18.1873 59.8048 18.6049 59.4304 18.9601C59.056 19.3057 58.6048 19.5793 58.0768 19.7809C57.5488 19.9729 56.9632 20.0689 56.32 20.0689C55.6672 20.0689 55.072 19.9729 54.5344 19.7809C54.0064 19.5793 53.5552 19.3057 53.1808 18.9601C52.8064 18.6049 52.5136 18.1873 52.3024 17.7073C52.1008 17.2177 52 16.6849 52 16.1089V10.3921Z" fill="#40474F"/>
<path d="M62.0088 13.2721C62.0088 12.7441 62.2728 12.4801 62.8008 12.4801H63.6072C64.1256 12.4801 64.3848 12.7441 64.3848 13.2721V13.4017C64.3848 13.4209 64.38 13.4401 64.3704 13.4593C64.3704 13.4785 64.3704 13.4977 64.3704 13.5169V13.5889H64.3992C64.4856 13.4449 64.596 13.2961 64.7304 13.1425C64.8648 12.9889 65.028 12.8545 65.22 12.7393C65.412 12.6145 65.6328 12.5137 65.8824 12.4369C66.1416 12.3505 66.4344 12.3073 66.7608 12.3073C67.1352 12.3073 67.4856 12.3553 67.812 12.4513C68.1384 12.5473 68.4168 12.7057 68.6472 12.9265C68.8872 13.1377 69.0744 13.4209 69.2088 13.7761C69.3528 14.1313 69.4248 14.5681 69.4248 15.0865V19.1041C69.4248 19.6321 69.1608 19.8961 68.6328 19.8961H67.7256C67.1976 19.8961 66.9336 19.6321 66.9336 19.1041V15.5473C66.9336 15.2017 66.8664 14.9521 66.732 14.7985C66.5976 14.6449 66.3912 14.5681 66.1128 14.5681C65.8344 14.5681 65.5944 14.6209 65.3928 14.7265C65.1912 14.8321 65.0232 14.9761 64.8888 15.1585C64.7544 15.3409 64.6536 15.5521 64.5864 15.7921C64.5288 16.0321 64.5 16.2817 64.5 16.5409V19.1041C64.5 19.6321 64.236 19.8961 63.708 19.8961H62.8008C62.2728 19.8961 62.0088 19.6321 62.0088 19.1041V13.2721Z" fill="#40474F"/>
<path d="M70.7691 10.3921C70.7691 9.8641 71.0331 9.6001 71.5611 9.6001H72.4683C72.9963 9.6001 73.2603 9.8641 73.2603 10.3921V17.0449C73.2603 17.3233 73.2987 17.5105 73.3755 17.6065C73.4619 17.7025 73.5627 17.7601 73.6779 17.7793C73.8507 17.7985 73.9899 17.8609 74.0954 17.9665C74.201 18.0721 74.2539 18.2353 74.2539 18.4561V19.1617C74.2539 19.4113 74.1915 19.6081 74.0667 19.7521C73.9419 19.8961 73.7355 19.9681 73.4475 19.9681C73.1306 19.9681 72.8091 19.9393 72.4827 19.8817C72.1659 19.8241 71.8778 19.6993 71.6187 19.5073C71.369 19.3057 71.1627 19.0225 70.9995 18.6577C70.8458 18.2833 70.7691 17.7841 70.7691 17.1601V10.3921Z" fill="#40474F"/>
<path d="M76.0343 11.5441C75.5063 11.5441 75.2423 11.2801 75.2423 10.7521V10.3921C75.2423 9.8641 75.5063 9.6001 76.0343 9.6001H76.8839C77.4119 9.6001 77.6759 9.8641 77.6759 10.3921V10.7521C77.6759 11.2801 77.4119 11.5441 76.8839 11.5441H76.0343ZM75.2135 13.2721C75.2135 12.7441 75.4775 12.4801 76.0055 12.4801H76.9127C77.4407 12.4801 77.7047 12.7441 77.7047 13.2721V19.1041C77.7047 19.6321 77.4407 19.8961 76.9127 19.8961H76.0055C75.4775 19.8961 75.2135 19.6321 75.2135 19.1041V13.2721Z" fill="#40474F"/>
<path d="M79.1791 13.2721C79.1791 12.7441 79.4431 12.4801 79.9711 12.4801H80.7775C81.2959 12.4801 81.5551 12.7441 81.5551 13.2721V13.4017C81.5551 13.4209 81.5503 13.4401 81.5407 13.4593C81.5407 13.4785 81.5407 13.4977 81.5407 13.5169V13.5889H81.5695C81.6559 13.4641 81.7615 13.3249 81.8863 13.1713C82.0207 13.0177 82.1791 12.8785 82.3615 12.7537C82.5439 12.6289 82.7503 12.5233 82.9807 12.4369C83.2207 12.3505 83.4847 12.3073 83.7727 12.3073C84.2431 12.3073 84.6559 12.4129 85.0111 12.6241C85.3759 12.8257 85.6543 13.1377 85.8463 13.5601H85.8751C85.9711 13.4065 86.0959 13.2577 86.2495 13.1137C86.4127 12.9601 86.5951 12.8257 86.7967 12.7105C86.9983 12.5857 87.2191 12.4897 87.4591 12.4225C87.7087 12.3457 87.9727 12.3073 88.2511 12.3073C88.5871 12.3073 88.8991 12.3553 89.1871 12.4513C89.4847 12.5473 89.7391 12.7057 89.9503 12.9265C90.1711 13.1473 90.3439 13.4353 90.4687 13.7905C90.5935 14.1457 90.6559 14.5777 90.6559 15.0865V19.1041C90.6559 19.6321 90.3919 19.8961 89.8639 19.8961H88.9567C88.4287 19.8961 88.1647 19.6321 88.1647 19.1041V15.5041C88.1647 15.2257 88.1263 15.0001 88.0495 14.8273C87.9823 14.6545 87.8287 14.5681 87.5887 14.5681C87.3199 14.5681 87.0943 14.6305 86.9119 14.7553C86.7295 14.8801 86.5807 15.0433 86.4655 15.2449C86.3599 15.4465 86.2831 15.6817 86.2351 15.9505C86.1871 16.2097 86.1631 16.4785 86.1631 16.7569V19.1041C86.1631 19.6321 85.8991 19.8961 85.3711 19.8961H84.4639C83.9359 19.8961 83.6719 19.6321 83.6719 19.1041V15.5041C83.6719 15.2257 83.6335 15.0001 83.5567 14.8273C83.4895 14.6545 83.3359 14.5681 83.0959 14.5681C82.8079 14.5681 82.5727 14.6353 82.3903 14.7697C82.2079 14.9041 82.0639 15.0769 81.9583 15.2881C81.8527 15.4897 81.7759 15.7201 81.7279 15.9793C81.6895 16.2385 81.6703 16.4977 81.6703 16.7569V19.1041C81.6703 19.6321 81.4063 19.8961 80.8783 19.8961H79.9711C79.4431 19.8961 79.1791 19.6321 79.1791 19.1041V13.2721Z" fill="#40474F"/>
<path d="M92.839 11.5441C92.311 11.5441 92.047 11.2801 92.047 10.7521V10.3921C92.047 9.8641 92.311 9.6001 92.839 9.6001H93.6886C94.2166 9.6001 94.4806 9.8641 94.4806 10.3921V10.7521C94.4806 11.2801 94.2166 11.5441 93.6886 11.5441H92.839ZM92.0182 13.2721C92.0182 12.7441 92.2822 12.4801 92.8102 12.4801H93.7174C94.2454 12.4801 94.5094 12.7441 94.5094 13.2721V19.1041C94.5094 19.6321 94.2454 19.8961 93.7174 19.8961H92.8102C92.2822 19.8961 92.0182 19.6321 92.0182 19.1041V13.2721Z" fill="#40474F"/>
<path d="M96.4878 14.5537H96.2718C95.7534 14.5537 95.4942 14.2897 95.4942 13.7617V13.4017C95.4942 12.8737 95.7582 12.6097 96.2862 12.6097H96.5598V11.2705C96.5598 10.7425 96.8238 10.4785 97.3518 10.4785H98.187C98.715 10.4785 98.979 10.7425 98.979 11.2705V12.6097H99.7422C100.27 12.6097 100.534 12.8737 100.534 13.4017V13.7617C100.534 14.2897 100.275 14.5537 99.7566 14.5537H98.979V16.8001C98.979 17.1169 99.0654 17.3473 99.2382 17.4913C99.4206 17.6257 99.6222 17.7073 99.843 17.7361C100.131 17.7745 100.333 17.8465 100.448 17.9521C100.573 18.0577 100.635 18.2497 100.635 18.5281V19.1761C100.635 19.4737 100.549 19.6801 100.376 19.7953C100.203 19.9105 99.9486 19.9681 99.6126 19.9681C99.3342 19.9681 99.0174 19.9297 98.6622 19.8529C98.307 19.7761 97.9662 19.6369 97.6398 19.4353C97.3134 19.2337 97.0398 18.9601 96.819 18.6145C96.5982 18.2593 96.4878 17.8081 96.4878 17.2609V14.5537Z" fill="#40474F"/>
<path d="M101.233 16.1809C101.233 15.6337 101.32 15.1249 101.493 14.6545C101.675 14.1841 101.929 13.7761 102.256 13.4305C102.592 13.0849 103 12.8113 103.48 12.6097C103.96 12.4081 104.497 12.3073 105.093 12.3073C105.64 12.3073 106.125 12.3985 106.547 12.5809C106.979 12.7633 107.339 13.0129 107.627 13.3297C107.925 13.6465 108.145 14.0209 108.289 14.4529C108.443 14.8849 108.52 15.3505 108.52 15.8497C108.52 16.0417 108.443 16.2289 108.289 16.4113C108.136 16.5841 107.934 16.6705 107.685 16.6705H103.782C103.878 17.1313 104.089 17.4673 104.416 17.6785C104.742 17.8897 105.107 17.9953 105.51 17.9953C105.76 17.9953 106 17.9617 106.23 17.8945C106.461 17.8273 106.672 17.7457 106.864 17.6497C107.104 17.5441 107.31 17.5105 107.483 17.5489C107.656 17.5873 107.805 17.7217 107.929 17.9521L108.131 18.3265C108.246 18.5473 108.285 18.7537 108.246 18.9457C108.208 19.1281 108.078 19.2817 107.857 19.4065C107.589 19.5601 107.238 19.7089 106.806 19.8529C106.384 19.9969 105.885 20.0689 105.309 20.0689C104.646 20.0689 104.061 19.9585 103.552 19.7377C103.043 19.5169 102.616 19.2289 102.27 18.8737C101.934 18.5089 101.675 18.0913 101.493 17.6209C101.32 17.1505 101.233 16.6705 101.233 16.1809ZM106.057 15.2449C106.057 14.9377 105.966 14.6785 105.784 14.4673C105.601 14.2465 105.352 14.1361 105.035 14.1361C104.67 14.1361 104.397 14.2465 104.214 14.4673C104.032 14.6881 103.907 14.9473 103.84 15.2449H106.057Z" fill="#40474F"/>
<path d="M109.151 16.1809C109.151 15.5953 109.233 15.0673 109.396 14.5969C109.569 14.1169 109.804 13.7089 110.102 13.3729C110.399 13.0273 110.754 12.7633 111.167 12.5809C111.59 12.3985 112.046 12.3073 112.535 12.3073C112.91 12.3073 113.217 12.3457 113.457 12.4225C113.706 12.4993 113.908 12.5857 114.062 12.6817C114.234 12.7873 114.374 12.9073 114.479 13.0417H114.508C114.498 13.0129 114.494 12.9793 114.494 12.9409V10.3921C114.494 9.8641 114.758 9.6001 115.286 9.6001H116.193C116.721 9.6001 116.985 9.8641 116.985 10.3921V19.1041C116.985 19.6321 116.721 19.8961 116.193 19.8961H115.444C114.916 19.8961 114.652 19.6561 114.652 19.1761V19.0321C114.652 19.0225 114.657 19.0081 114.666 18.9889H114.638C114.503 19.1905 114.335 19.3729 114.134 19.5361C113.961 19.6705 113.74 19.7905 113.471 19.8961C113.202 20.0113 112.876 20.0689 112.492 20.0689C111.983 20.0689 111.522 19.9777 111.11 19.7953C110.706 19.6033 110.356 19.3345 110.058 18.9889C109.77 18.6433 109.545 18.2353 109.382 17.7649C109.228 17.2849 109.151 16.7569 109.151 16.1809ZM111.657 16.1809C111.657 16.7377 111.791 17.1841 112.06 17.5201C112.329 17.8465 112.679 18.0097 113.111 18.0097C113.294 18.0097 113.471 17.9761 113.644 17.9089C113.826 17.8321 113.985 17.7217 114.119 17.5777C114.254 17.4241 114.359 17.2321 114.436 17.0017C114.522 16.7713 114.566 16.4977 114.566 16.1809C114.566 15.9601 114.537 15.7441 114.479 15.5329C114.422 15.3217 114.33 15.1345 114.206 14.9713C114.081 14.7985 113.927 14.6641 113.745 14.5681C113.562 14.4625 113.351 14.4097 113.111 14.4097C112.718 14.4097 112.377 14.5633 112.089 14.8705C111.801 15.1681 111.657 15.6049 111.657 16.1809Z" fill="#40474F"/>
<defs>
<radialGradient id="paint0_radial" cx="0" cy="0" r="1" gradientUnits="userSpaceOnUse" gradientTransform="translate(10.1065 17.8404) scale(18.0674 24.8642)">
<stop offset="0.05" stop-color="#FBAE17"/>
<stop offset="0.174" stop-color="#F6921E"/>
<stop offset="0.4" stop-color="#F16522"/>
<stop offset="0.63" stop-color="#D71921"/>
<stop offset="0.797" stop-color="#C3161C"/>
<stop offset="0.956" stop-color="#B01117"/>
</radialGradient>
</defs>
</svg>
