<?xml version="1.0" encoding="UTF-8"?>
<svg width="67px" height="30px" viewBox="0 0 67 30" version="1.1" xmlns="http://www.w3.org/2000/svg" xmlns:xlink="http://www.w3.org/1999/xlink">
    <title>logo / ultra</title>
    <defs>
        <radialGradient cx="58.6650628%" cy="75.2497662%" fx="58.6650628%" fy="75.2497662%" r="104.875714%" gradientTransform="translate(0.586651,0.752498),scale(1.000000,0.726644),translate(-0.586651,-0.752498)" id="radialGradient-1">
            <stop stop-color="#FBAE17" offset="5%"></stop>
            <stop stop-color="#F6921E" offset="17.4%"></stop>
            <stop stop-color="#F16522" offset="40%"></stop>
            <stop stop-color="#D71921" offset="63%"></stop>
            <stop stop-color="#C3161C" offset="79.7%"></stop>
            <stop stop-color="#B01117" offset="95.6%"></stop>
        </radialGradient>
    </defs>
    <g id="logo-/-ultra" stroke="none" stroke-width="1" fill="none" fill-rule="evenodd">
        <g id="Group">
            <path d="M20.318252,11.4995277 C19.7537944,9.7357828 20.9530817,7.54906509 20.9530817,7.54906509 C20.9530817,7.54906509 20.388624,7.54906509 18.97748,8.81872436 C18.1359514,9.55098338 17.6279753,10.5936712 17.5700397,11.7076807 C15.9477796,7.89796213 12.6314059,5.42901561 11.3617467,3.73564275 C10.1587556,2.18671771 11.0054421,1.77635684e-15 11.0054421,1.77635684e-15 C8.53649555,1.05854323 7.26683628,3.73934654 6.84312269,6.9134947 C6.74265884,8.65823211 5.86164126,10.2649056 4.44454819,11.2876709 C4.09194736,8.32463875 0.776314416,7.54832433 0.776314416,7.54832433 C1.48151606,7.76018113 2.68080331,11.2165581 1.41114405,13.6862454 C0.543510331,15.2940529 0.0604807506,17.0811356 5.32907052e-14,18.907108 C5.32907052e-14,24.8331722 3.73934654,29.6303212 10.7232133,29.6303212 C13.5998612,29.7188797 16.3862291,28.6199705 18.4280045,26.5916462 C20.4697799,24.563322 21.5870821,21.7842784 21.5175393,18.907108 C21.6582833,16.7907623 20.8827096,13.3336446 20.318252,11.4995277 Z" id="Body_1_" fill="url(#radialGradient-1)" fill-rule="nonzero"></path>
            <path d="M3.87934981,19.6123096 C3.91858544,23.4028146 7.00250684,26.4549795 10.7932149,26.4549795 C14.5839229,26.4549795 17.6678443,23.4028146 17.70708,19.6123096 L17.70708,19.6123096 L18.8359952,19.6123096 C18.7762866,24.0114433 15.1931242,27.5463021 10.7935853,27.5463021 C6.39404636,27.5463021 2.81088398,24.0114433 2.75117533,19.6123096 L2.75117533,19.6123096 Z M14.6040446,15.3796182 C15.4222633,15.3796182 16.0855606,16.3271385 16.0855606,17.4959639 C16.0855606,18.6647894 15.4222633,19.6123096 14.6040446,19.6123096 C13.7858259,19.6123096 13.1225285,18.6647894 13.1225285,17.4959639 C13.1225285,16.3271385 13.7858259,15.3796182 14.6040446,15.3796182 Z M6.98460747,15.3796182 C7.8028262,15.3796182 8.46612353,16.3271385 8.46612353,17.4959639 C8.46612353,18.6647894 7.8028262,19.6123096 6.98460747,19.6123096 C6.16638875,19.6123096 5.50309141,18.6647894 5.50309141,17.4959639 C5.50309141,16.3271385 6.16638875,15.3796182 6.98460747,15.3796182 Z" id="Combined-Shape" fill="#231F20"></path>
        </g>
        <path d="M31.4280671,25 C32.236246,25 32.9720506,24.8778083 33.635481,24.633425 C34.2989114,24.3890417 34.8658429,24.0492893 35.3362754,23.6141678 C35.8067079,23.1790463 36.1715946,22.6604768 36.4309356,22.0584594 C36.6902766,21.456442 36.819947,20.7977992 36.819947,20.0825309 L36.819947,20.0825309 L36.819947,12.9834938 C36.819947,12.3278313 36.4882318,12 35.8248014,12 L35.8248014,12 L34.6487202,12 C33.9852898,12 33.6535746,12.3278313 33.6535746,12.9834938 L33.6535746,12.9834938 L33.6535746,20.0825309 C33.6535746,20.7620358 33.4515299,21.2746447 33.0474404,21.6203576 C32.643351,21.9660706 32.0975287,22.1389271 31.4099735,22.1389271 C30.7224184,22.1389271 30.1765961,21.9660706 29.7725066,21.6203576 C29.3684172,21.2746447 29.1663725,20.7620358 29.1663725,20.0825309 L29.1663725,20.0825309 L29.1663725,12.9834938 C29.1663725,12.3278313 28.8346573,12 28.1712268,12 L28.1712268,12 L26.9951456,12 C26.3317152,12 26,12.3278313 26,12.9834938 L26,12.9834938 L26,20.0825309 C26,20.7977992 26.1296705,21.456442 26.3890115,22.0584594 C26.6483525,22.6604768 27.0132392,23.1790463 27.4836717,23.6141678 C27.9541041,24.0492893 28.5240512,24.3890417 29.1935128,24.633425 C29.8629744,24.8778083 30.6078258,25 31.4280671,25 Z M42.1937335,24.8748281 C42.5556046,24.8748281 42.8149456,24.7854195 42.9717564,24.6066025 C43.1285672,24.4277854 43.2069726,24.1834021 43.2069726,23.8734525 L43.2069726,23.8734525 L43.2069726,22.997249 C43.2069726,22.7230628 43.1406296,22.5204035 43.0079435,22.389271 C42.8752574,22.2581385 42.700353,22.1806511 42.4832304,22.1568088 C42.3384819,22.1329665 42.2148426,22.0614397 42.1123124,21.9422283 C42.0097823,21.823017 41.9585172,21.5905548 41.9585172,21.2448418 L41.9585172,21.2448418 L41.9585172,12.9834938 C41.9585172,12.3278313 41.626802,12 40.9633716,12 L40.9633716,12 L39.8234775,12 C39.1600471,12 38.8283319,12.3278313 38.8283319,12.9834938 L38.8283319,12.9834938 L38.8283319,21.3878955 C38.8283319,22.1627694 38.9278464,22.7796882 39.1268756,23.238652 C39.3259047,23.6976158 39.5852457,24.0492893 39.9048985,24.2936726 C40.2245513,24.5380559 40.5864225,24.696011 40.9905119,24.7675378 C41.3946014,24.8390646 41.7956752,24.8748281 42.1937335,24.8748281 Z M48.9788173,24.8748281 C49.4010003,24.8748281 49.7206531,24.8033012 49.9377758,24.6602476 C50.1548985,24.5171939 50.2634598,24.2608895 50.2634598,23.8913343 L50.2634598,23.8913343 L50.2634598,23.0866575 C50.2634598,22.7409445 50.18807,22.5025218 50.0372904,22.3713893 C49.8865107,22.2402568 49.6301853,22.1508482 49.2683142,22.1031637 C48.9908797,22.0674003 48.7405855,21.9630903 48.5174316,21.7902338 C48.2942777,21.6173773 48.1827008,21.3342503 48.1827008,20.9408528 L48.1827008,20.9408528 L48.1827008,18.1513067 L49.1597529,18.1513067 C49.8111209,18.1513067 50.1368049,17.8234755 50.1368049,17.1678129 L50.1368049,17.1678129 L50.1368049,16.7207703 C50.1368049,16.0651077 49.8050897,15.7372765 49.1416593,15.7372765 L49.1416593,15.7372765 L48.1827008,15.7372765 L48.1827008,14.0742779 C48.1827008,13.4186153 47.8509856,13.090784 47.1875552,13.090784 L47.1875552,13.090784 L46.1381289,13.090784 C45.4746984,13.090784 45.1429832,13.4186153 45.1429832,14.0742779 L45.1429832,14.0742779 L45.1429832,15.7372765 L44.7992056,15.7372765 C44.1357752,15.7372765 43.80406,16.0651077 43.80406,16.7207703 L43.80406,16.7207703 L43.80406,17.1678129 C43.80406,17.8234755 44.129744,18.1513067 44.7811121,18.1513067 L44.7811121,18.1513067 L45.0525154,18.1513067 L45.0525154,21.5130674 C45.0525154,22.1925722 45.1912327,22.7498854 45.4686673,23.1850069 C45.7461018,23.6201284 46.0898794,23.9628611 46.5,24.213205 C46.9101206,24.4635488 47.3383348,24.6364053 47.7846425,24.7317744 C48.2309503,24.8271435 48.6290085,24.8748281 48.9788173,24.8748281 Z M53.7736099,24.7854195 C54.4370403,24.7854195 54.7687555,24.4575883 54.7687555,23.8019257 L54.7687555,23.8019257 L54.7687555,21.2090784 C54.7687555,20.8395232 54.8139894,20.4878496 54.9044572,20.1540578 C54.994925,19.8202659 55.1306267,19.5281981 55.3115622,19.2778542 C55.4924978,19.0275103 55.7216828,18.8278313 55.9991174,18.6788171 C56.2765519,18.5298028 56.602236,18.4552957 56.9761695,18.4552957 C57.6395999,18.4552957 57.9713151,18.1274645 57.9713151,17.4718019 L57.9713151,17.4718019 L57.9713151,16.4704264 C57.9713151,16.1485557 57.9079876,15.9041724 57.7813327,15.7372765 C57.6546778,15.5703806 57.4345396,15.4869326 57.1209179,15.4869326 C56.831421,15.4869326 56.5509709,15.5584594 56.2795675,15.7015131 C56.0081642,15.8445667 55.7639011,16.0233838 55.5467785,16.2379642 C55.3296558,16.4525447 55.142689,16.6909674 54.9858782,16.9532325 C54.8290674,17.2154975 54.7144748,17.4658414 54.6421006,17.7042641 L54.6421006,17.7042641 L54.6059135,17.7042641 C54.6059135,17.6446584 54.6119447,17.5850527 54.6240071,17.525447 C54.6240071,17.4658414 54.6270227,17.4062357 54.6330538,17.34663 C54.639085,17.2870243 54.6421006,17.2154975 54.6421006,17.1320495 L54.6421006,17.1320495 L54.6421006,16.5598349 C54.6421006,15.9041724 54.3103854,15.5763411 53.646955,15.5763411 L53.646955,15.5763411 L52.6337158,15.5763411 C51.9702854,15.5763411 51.6385702,15.9041724 51.6385702,16.5598349 L51.6385702,16.5598349 L51.6385702,23.8019257 C51.6385702,24.4575883 51.9702854,24.7854195 52.6337158,24.7854195 L52.6337158,24.7854195 L53.7736099,24.7854195 Z M61.3729038,25 C61.8312739,25 62.2353633,24.9254929 62.5851721,24.7764787 C62.9349809,24.6274645 63.2244778,24.4575883 63.4536628,24.2668501 C63.719035,24.0522696 63.9421889,23.8078863 64.1231244,23.5337001 L64.1231244,23.5337001 L64.1593116,23.5337001 C64.1472492,23.5456213 64.141218,23.563503 64.141218,23.5873453 L64.141218,23.5873453 L64.141218,23.784044 C64.141218,24.4516277 64.4729332,24.7854195 65.1363636,24.7854195 L65.1363636,24.7854195 L66.0048544,24.7854195 C66.6682848,24.7854195 67,24.4575883 67,23.8019257 L67,23.8019257 L67,19.1169188 C67,17.9367263 66.6290821,17.0158184 65.8872462,16.3541953 C65.1454104,15.6925722 64.1291556,15.3617607 62.8384819,15.3617607 C62.1629891,15.3617607 61.5598706,15.4392481 61.0291262,15.5942228 C60.4983819,15.7491976 60.0581053,15.910133 59.7082966,16.0770289 C59.430862,16.2200825 59.2619888,16.4078404 59.201677,16.6403026 C59.1413651,16.8727648 59.1775522,17.126089 59.3102383,17.4002751 L59.3102383,17.4002751 L59.527361,17.8473177 C59.8047955,18.3956901 60.2511033,18.5387437 60.8662842,18.2764787 C61.1075316,18.1691884 61.3729038,18.0738193 61.6624007,17.9903714 C61.9518976,17.9069234 62.2474257,17.8651994 62.548985,17.8651994 C62.8987938,17.8651994 63.2063842,17.9397066 63.4717564,18.0887208 C63.7371286,18.237735 63.8698147,18.5029803 63.8698147,18.8844567 L63.8698147,18.8844567 L63.8698147,19.045392 L63.5984113,19.045392 C63.0194175,19.045392 62.4223301,19.0930766 61.8071492,19.1884457 C61.1919682,19.2838148 60.6250368,19.4507107 60.1063548,19.6891334 C59.5876728,19.9275562 59.1624743,20.2494269 58.830759,20.6547455 C58.4990438,21.0600642 58.3331862,21.5726731 58.3331862,22.1925722 C58.3331862,22.5859697 58.4085761,22.955525 58.5593557,23.301238 C58.7101353,23.6469509 58.9182112,23.9449794 59.1835834,24.1953232 C59.4489556,24.4456671 59.7686084,24.6423659 60.1425419,24.7854195 C60.5164754,24.9284732 60.9265961,25 61.3729038,25 Z M62.3137688,22.69326 C62.0242718,22.69326 61.8041336,22.6157726 61.6533539,22.4607978 C61.5025743,22.305823 61.4271845,22.1210454 61.4271845,21.9064649 C61.4271845,21.6918845 61.4965431,21.5160477 61.6352604,21.3789546 C61.7739776,21.2418615 61.948882,21.131591 62.1599735,21.0481431 C62.371065,20.9646951 62.6062813,20.9050894 62.8656222,20.869326 C63.1249632,20.8335626 63.3752574,20.8156809 63.6165049,20.8156809 L63.6165049,20.8156809 L63.9060018,20.8156809 L63.9060018,21.0660248 C63.9060018,21.256763 63.8667991,21.4475011 63.7883936,21.6382393 C63.7099882,21.8289775 63.5984113,22.001834 63.4536628,22.1568088 C63.3089144,22.3117836 63.1400412,22.4399358 62.9470432,22.5412655 C62.7540453,22.6425951 62.5429538,22.69326 62.3137688,22.69326 Z" id="Ultra" fill="#40474F" fill-rule="nonzero"></path>
    </g>
</svg>

