<svg xmlns="http://www.w3.org/2000/svg" width="32" height="32" viewBox="0 0 32 32">
    <defs>
        <style>
            .cls-1{fill:none}.cls-2{fill:#f44336}
        </style>
    </defs>
    <g id="ic_stop" transform="translate(-160 -168.16)">
        <path id="Rectangle_1128" d="M0 0h32v32H0z" class="cls-1" data-name="Rectangle 1128" transform="translate(160 168.16)"/>
        <path id="Path_37497" d="M18.487 1.582A11.547 11.547 0 0 0 10-1.939a11.546 11.546 0 0 0-8.487 3.521A11.569 11.569 0 0 0-2 10.061a11.569 11.569 0 0 0 3.513 8.478A11.551 11.551 0 0 0 10 22.061a11.552 11.552 0 0 0 8.487-3.522A11.569 11.569 0 0 0 22 10.061a11.569 11.569 0 0 0-3.513-8.479zM17 12H3V8h14z" class="cls-2" data-name="Path 37497" transform="translate(166 174.099)"/>
    </g>
</svg>
