<svg width="20" height="20" viewBox="0 0 20 20" fill="none" xmlns="http://www.w3.org/2000/svg">
<path fill-rule="evenodd" clip-rule="evenodd" d="M9.99997 2.3C6.72351 2.3 3.92347 4.34669 2.81167 7.23361C2.68265 7.56861 2.30649 7.73559 1.97149 7.60658C1.63649 7.47756 1.46951 7.10141 1.59852 6.7664C2.89712 3.39443 6.16812 1 9.99997 1C13.2649 1 16.1227 2.73832 17.7002 5.33873V2.85001C17.7002 2.49103 17.9912 2.20001 18.3502 2.20001C18.7092 2.20001 19.0002 2.49103 19.0002 2.85001V7.35001C19.0002 7.709 18.7092 8.00001 18.3502 8.00001H13.8502C13.4912 8.00001 13.2002 7.709 13.2002 7.35001C13.2002 6.99103 13.4912 6.70001 13.8502 6.70001H16.9592C15.723 4.09786 13.0708 2.3 9.99997 2.3ZM3.04077 13.3H6.15C6.50899 13.3 6.8 13.009 6.8 12.65C6.8 12.291 6.50899 12 6.15 12H1.65C1.29101 12 1 12.291 1 12.65V17.15C1 17.509 1.29101 17.8 1.65 17.8C2.00899 17.8 2.3 17.509 2.3 17.15V14.6617C3.87753 17.2619 6.7352 19 9.99997 19C13.8318 19 17.1028 16.6056 18.4014 13.2336C18.5304 12.8986 18.3634 12.5224 18.0284 12.3934C17.6934 12.2644 17.3173 12.4314 17.1883 12.7664C16.0765 15.6533 13.2764 17.7 9.99997 17.7C6.92916 17.7 4.27687 15.9021 3.04077 13.3Z" fill="#FF6400"/>
</svg>
