<?xml version="1.0" encoding="UTF-8" standalone="no"?>
<svg id="icons-source" version="1.1" xmlns="http://www.w3.org/2000/svg"
  xmlns:xlink="http://www.w3.org/1999/xlink">
  <defs>
    <g id="win-logo-template">
      <path d="M1 11V4.7l7-1.5V11zm0 2h7v8.2l-7-1.3zM23 0v11H10V2.8zm0 13v11l-13-2.4V13z" transform="translate(-1)"/>
    </g>
    <g id="mac-logo-template">
      <path d="m 14.00045,8.1 -1,0.1 c -0.5,0 -0.7,0.2 -0.7,0.6 0.036,0.355 0.344,0.618 0.7,0.6 0.254,0.021 0.505,-0.063 0.695,-0.234 0.189,-0.17 0.3,-0.411 0.305,-0.666 z"/>
      <path d="m 12.00045,0 c -4.854,0 -9.229,2.924 -11.08699996,7.408 -1.857,4.484 -0.83,9.645 2.60199996,13.077 3.432,3.432 8.593,4.459 13.077,2.602 4.484,-1.858 7.408,-6.233 7.408,-11.087 -0.019,-6.619 -5.381,-11.981 -12,-12 z m -7,5.9 0.9,0 0,0.7 c 0.179,-0.503 0.667,-0.828 1.2,-0.8 0.533,-0.028 1.021,0.297 1.2,0.8 0.224,-0.511 0.742,-0.83 1.3,-0.8 0.374,-0.009 0.735,0.135 1,0.4 0.264,0.265 0.409,0.626 0.4,1 l 0,2.8 -1,0 0,-2.6 c 0.025,-0.201 -0.038,-0.404 -0.171,-0.556 -0.134,-0.153 -0.326,-0.242 -0.529,-0.244 -0.218,-0.02 -0.433,0.058 -0.588,0.213 -0.154,0.154 -0.232,0.369 -0.212,0.587 l 0,2.6 -1,0 0,-2.7 c 0.022,-0.191 -0.045,-0.383 -0.181,-0.519 -0.137,-0.136 -0.328,-0.203 -0.519,-0.181 -0.229,0.004 -0.446,0.103 -0.598,0.274 -0.152,0.171 -0.225,0.398 -0.202,0.626 l 0,2.5 -1,0 z m 4,13.1 c -1.416,0 -2.692,-0.853 -3.234,-2.161 -0.542,-1.307 -0.242,-2.813 0.759,-3.814 1.001,-1.001 2.506,-1.3 3.814,-0.759 1.308,0.542 2.161,1.818 2.161,3.234 -0.023,1.923 -1.577,3.477 -3.5,3.5 z m 2.4,-10.2 c 0,-0.7 0.6,-1.2 1.6,-1.2 l 1,-0.1 0,-0.3 c -0.002,-0.203 -0.091,-0.395 -0.244,-0.529 -0.152,-0.134 -0.355,-0.196 -0.556,-0.171 -0.5,0 -0.8,0.2 -0.8,0.6 l -0.9,0 c 0,-0.8 0.7,-1.3 1.8,-1.3 1,0 1.7,0.5 1.7,1.4 l 0,2.8 -0.9,0 0,-0.7 c -0.289,0.437 -0.777,0.699 -1.3,0.7 -0.353,0.073 -0.72,-0.022 -0.994,-0.257 -0.274,-0.235 -0.424,-0.583 -0.406,-0.943 z m 4.1,10.3 c -0.599,0.08 -1.205,-0.089 -1.677,-0.466 -0.472,-0.378 -0.769,-0.932 -0.823,-1.534 l 1.1,0 c 0.16,0.63 0.752,1.053 1.4,1 0.8,0 1.3,-0.4 1.3,-1 0,-0.5 -0.3,-0.8 -1.1,-1 l -0.8,-0.2 c -1.2,-0.3 -1.7,-0.9 -1.7,-1.9 0,-1.2 1,-2 2.4,-2 0.585,-0.061 1.17,0.117 1.622,0.494 0.452,0.376 0.732,0.919 0.778,1.506 l -1.1,0 c -0.112,-0.618 -0.674,-1.051 -1.3,-1 -0.7,0 -1.2,0.4 -1.2,1 0,0.5 0.3,0.7 1.1,0.9 l 0.7,0.2 c 1.3,0.3 1.8,0.9 1.8,1.9 0,1.3 -1,2.1 -2.5,2.1 z m 2.1,-9 c -0.572,0.02 -1.124,-0.214 -1.509,-0.637 -0.385,-0.424 -0.565,-0.995 -0.491,-1.563 -0.057,-0.564 0.129,-1.126 0.51,-1.545 0.381,-0.42 0.923,-0.658 1.49,-0.655 0.455,-0.046 0.909,0.101 1.251,0.405 0.342,0.304 0.541,0.738 0.549,1.195 l -0.9,0 c -0.075,-0.445 -0.45,-0.778 -0.9,-0.8 -0.6,0 -1,0.5 -1,1.4 0,0.9 0.4,1.4 1,1.4 0.465,0.015 0.86,-0.337 0.9,-0.8 l 0.9,0 c -0.023,0.452 -0.227,0.876 -0.565,1.177 -0.338,0.301 -0.783,0.453 -1.235,0.423 z"/>
      <path d="m 11.30045,15.5 c 0,1.27 -1.03,2.3 -2.3,2.3 -1.271,0 -2.3,-1.03 -2.3,-2.3 0,-1.27 1.029,-2.3 2.3,-2.3 1.27,0 2.3,1.03 2.3,2.3 z"/>
    </g>
    <g id="chrome-logo-template">
      <circle cx="2.667" cy="2.667" r="2.667" data-name="Ellipse 438" transform="translate(5.333 5.333)"/>
      <path d="M4.4 7.8a4.018 4.018 0 0 1 4-3.8h6.933A8.039 8.039 0 0 0 8.4 0a7.956 7.956 0 0 0-7.2 4.533z"  transform="translate(-.4)"/>
      <path d="M16.5 8a3.9 3.9 0 0 1 1 2.667V17.6a7.957 7.957 0 0 0 4-6.933A8.962 8.962 0 0 0 21.033 8z" transform="translate(-5.5 -2.667)"/>
      <path d="M10.667 13.967a3.9 3.9 0 0 1-2.667 1 3.763 3.763 0 0 1-2.8-1.2L.267 8.9A10.305 10.305 0 0 0 0 10.967a8.024 8.024 0 0 0 8 8 8.962 8.962 0 0 0 2.667-.467z" transform="translate(0 -2.967)"/>     
    </g>
    <g id="firefox-logo-template">
        <path d="M11.192.667A7.87 7.87 0 0 0 8 0a8 8 0 0 0-5.78 2.486 2.679 2.679 0 0 1-.22-.82.333.333 0 0 0-.573-.233 2.427 2.427 0 0 0-.5 2.833A8 8 0 1 0 11.735.928q-.267-.141-.543-.261zM8 .667a7.219 7.219 0 0 1 2.893.6c1.279.9 2.059 3.333 2.106 5.226a4.34 4.34 0 0 0-1.253-1.466.333.333 0 0 0-.467.466 3.666 3.666 0 0 1-2.946 5.839 2.737 2.737 0 0 1-1.093-.174 5.812 5.812 0 0 0 1.08-.586A2.661 2.661 0 0 1 9.652 10a.333.333 0 0 0 .336-.33.343.343 0 0 0-.009-.084 1.333 1.333 0 0 0-1.313-.919 1.131 1.131 0 0 0-.86.34c-.18.16-.367.326-1.14.326-1.333 0-2-.793-2-1.333a.667.667 0 0 1 .294-.493 2.65 2.65 0 0 1 .473-.267.332.332 0 0 0 .471 0 .787.787 0 0 0 .16-.773l1.788-1.188a.333.333 0 0 0-.186-.613H7c-.74 0-1.226-.147-1.333-.394-.153-.373.333-1.153.9-1.706A.333.333 0 0 0 6.333 2a2.838 2.838 0 0 0-2.14 1.333 7.343 7.343 0 0 0-1.526 0 1.348 1.348 0 0 1-.154-.2A7.33 7.33 0 0 1 8 .667z"/>
    </g>
    <g id="opera-logo-template">
        <path d="M5.367 12.508a6.965 6.965 0 0 1-1.5-4.319v-.377a6.966 6.966 0 0 1 1.5-4.32 6.012 6.012 0 0 1 4.759-2.435 5.779 5.779 0 0 1 3.206.979A7.976 7.976 0 0 0 8.03 0H8a8 8 0 0 0-.381 15.991Q7.808 16 8 16a7.973 7.973 0 0 0 5.332-2.036 5.775 5.775 0 0 1-3.206.98 6.01 6.01 0 0 1-4.759-2.436z"/>
        <path d="M14.275 3.052l-1.162-.566A4.445 4.445 0 0 0 9.374 2.4c1.688.766 2.9 2.976 2.9 5.6s-1.211 4.835-2.9 5.6a4.449 4.449 0 0 0 3.739-.088l1.162-.567a7.957 7.957 0 0 0 0-9.895z"/>
    </g>
    <g id="unblock-template">
      <path d="M-5497 619a2 2 0 0 1-2-2v-4a2 2 0 0 1 2-2h5v-1a2 2 0 0 0-2-2 1.984 1.984 0 0 0-1.608.811l-.8-.595A3.01 3.01 0 0 1-5494 607a3 3 0 0 1 3 3v1a2 2 0 0 1 2 2v4a2 2 0 0 1-2 2zm2-4a1 1 0 0 0 1 1 1 1 0 0 0 1-1 1 1 0 0 0-1-1 1 1 0 0 0-1 1z" transform="translate(5501 -606)"/>
    </g>
    <g id="protect-template">
      <path d="M7 0L1 2v3c0 4.667 2 7.833 6 9 4-1.167 6-4.333 6-9V2zM6 10l1-3H4.667L6 3h2L7 6h2l-2 4z"/>
    </g>
    <g id="x-template">
      <path d="M13 4L9 8l4 4-1 1-4-4-4 4-1-1 4-4-4-4 1-1 4 4 4-4z"/>
    </g>
    <g id="v-template">
      <path d="M7 10l6-6 1 1-7 7-4-4 1-1z"/>
    </g>
    <g id="check-template">
      <path d="M 10.792017,1.5 4.2668062,8.0381919 1.2079832,4.9709185 0,6.1818494 4.2668062,10.5 12,2.7508765 Z" />
    </g>
    <path id="android-logo-template" d="M2.32 7a1.637 1.637 0 0 1 .88-.333A1.175 1.175 0 0 1 4.08 7a1.284 1.284 0 0 1 .32.917v5.833a1.284 1.284 0 0 1-.32.917A1.175 1.175 0 0 1 3.2 15a1.175 1.175 0 0 1-.88-.333 1.284 1.284 0 0 1-.32-.916V7.918A1.284 1.284 0 0 1 2.32 7zM12.8 1.835a4.685 4.685 0 0 1 2 4H5.2a4.685 4.685 0 0 1 2-4L6.16.752a.357.357 0 0 1 0-.583c.24-.25.4-.167.56 0l1.2 1.25A3.583 3.583 0 0 1 10 .835a4.219 4.219 0 0 1 2.16.583l1.2-1.25a.376.376 0 0 1 .56 0 .414.414 0 0 1 0 .583zM5.2 15V6.668h9.6V15a.771.771 0 0 1-.24.583.713.713 0 0 1-.56.25h-.8v2.917a1.284 1.284 0 0 1-.32.917 1.2 1.2 0 0 1-2.08-.917v-2.916H9.2v2.916a1.284 1.284 0 0 1-.32.917A1.175 1.175 0 0 1 8 20a1.175 1.175 0 0 1-.88-.333 1.284 1.284 0 0 1-.32-.917v-2.916H6a.713.713 0 0 1-.56-.25A.771.771 0 0 1 5.2 15zM8.4 4.168v-.833h-.8v.833zm4 0v-.833h-.8v.833zM15.92 7a1.637 1.637 0 0 1 .88-.333 1.175 1.175 0 0 1 .88.333 1.284 1.284 0 0 1 .32.917v5.833a1.284 1.284 0 0 1-.32.917 1.2 1.2 0 0 1-2.08-.917V7.918A1.284 1.284 0 0 1 15.92 7z"/>
    <g id="ios-logo-template" transform="translate(2.5 .833)">
      <path d="M16.75 6.583a2.171 2.171 0 0 0-1.333 1.25 4.576 4.576 0 0 0-.583 2 3.584 3.584 0 0 0 .667 2.25 3.151 3.151 0 0 0 1.667 1.333 9.887 9.887 0 0 1-1 2.167 4.949 4.949 0 0 1-1.5 1.667 2.964 2.964 0 0 1-1.583.417 3.175 3.175 0 0 1-1.417-.333A2.559 2.559 0 0 0 10.417 17a5.926 5.926 0 0 0-1.583.5 2.932 2.932 0 0 1-1 .167 3.107 3.107 0 0 1-1.917-.75A9.322 9.322 0 0 1 3.75 13.75 10.556 10.556 0 0 1 3 9.833 5.95 5.95 0 0 1 4.167 6.25a3.756 3.756 0 0 1 3-1.583A4.242 4.242 0 0 1 9 5.083a2.766 2.766 0 0 0 1.333.417 3.344 3.344 0 0 0 1.25-.25 7.478 7.478 0 0 1 2-.667A3.8 3.8 0 0 1 16 5.5a3.171 3.171 0 0 1 .75 1.083zM10 4.75a4 4 0 0 1 1-2.5A3.8 3.8 0 0 1 13.417 1a4.073 4.073 0 0 1-.917 2.583A3.516 3.516 0 0 1 10 4.75z" transform="translate(-3 -1)"/>
    </g>
    <g id="arrow-right">
      <path d="M9 16a.908.908 0 0 1-.7-.3.967.967 0 0 1 0-1.4L13.6 9 8.3 3.7a.967.967 0 0 1 0-1.4.967.967 0 0 1 1.4 0l6 6a.967.967 0 0 1 0 1.4l-6 6a.908.908 0 0 1-.7.3z"/>
    </g>
    <path id="i-template"
       d="M 9.0168077,4.9607295 H 11.010125 V 10.964719 H 9.0168077 Z m 0,8.0053195 h 1.9933173 v 2.00133 H 9.0168077 Z"/>
  </defs>
  <!-- 24px icons -->
  <view id="win-logo-active" viewBox="0 0 24 24"/>
    <use href="#win-logo-template" x="0" y ="0" style="fill: #00aef5"/>
  <view id="win-logo" viewBox="0 24 24 24"/>
    <use href="#win-logo-template" x="0" y ="24" style="fill: rgba(0,0,0,.2)"/>
  <view id="mac-logo-active" viewBox="0 48 24 24"/>
    <use href="#mac-logo-template" x="0" y ="48" style="fill: black"/>
  <view id="mac-logo" viewBox="0 72 24 24"/>
    <use href="#mac-logo-template" x="0" y ="72" style="fill: rgba(0,0,0,.2)"/>
  <view id="win-logo-gray" viewBox="0 96 24 24"/>
    <use href="#win-logo-template" x="0" y ="96" style="fill: rgba(0,0,0,.2)"/>
  <view id="mac-logo-gray" viewBox="0 120 24 24"/>
    <use href="#mac-logo-template" x="0" y ="120" style="fill: rgba(0,0,0,.2)"/>

  <!-- 14px icons -->
  <!-- unblock -->
  <view id="unblock-active" viewBox="24 0 14 14"/>
    <use href="#unblock-template" x="24" y ="0" style="fill: #25d366"/>
  <view id="unblock" viewBox="24 14 14 14"/>
    <use href="#unblock-template" x="24" y ="14" style="fill: #cccccc"/>
  <view id="unblock-white" viewBox="24 28 14 14"/>
    <use href="#unblock-template" x="24" y ="28" style="fill: white"/>
  <!-- protect -->
  <view id="protect-active" viewBox="24 42 14 14"/>
    <use href="#protect-template" x="24" y ="42" style="fill: #0288d1"/>
  <view id="protect" viewBox="24 56 14 14"/>
    <use href="#protect-template" x="24" y ="56" style="fill: #cccccc"/>
  <view id="protect-white" viewBox="24 70 14 14"/>
    <use href="#protect-template" x="24" y ="70" style="fill: white"/>

  <!-- 16px icons -->
  <!-- x -->
  <view id="x-gray" viewBox="38 0 16 16"/>
    <use href="#x-template" x="38" y ="0" style="fill: rgba(0, 0, 0, 0.2)"/>
  <!-- v -->
  <view id="v-unblock" viewBox="38 16 16 16"/>
    <use href="#v-template" x="38" y ="16" style="fill: #25d366"/>
  <view id="v-protect" viewBox="38 32 16 16"/>
    <use href="#v-template" x="38" y ="32" style="fill: #0288d1"/>
  <!-- chrome-logo -->
  <view id="chrome-logo" viewBox="38 48 16 16"/>
    <use href="#chrome-logo-template" x="38" y ="48" style="fill: rgba(0,0,0,.2)"/>
  <view id="firefox-logo" viewBox="38 64 16 16"/>
    <use href="#firefox-logo-template" x="38" y ="64" style="fill: rgba(0,0,0,.2)"/>
  <view id="opera-logo" viewBox="38 80 16 16"/>
    <use href="#opera-logo-template" x="38" y ="80" style="fill: rgba(0,0,0,.2)"/>
  
  <!-- 12px icons -->
  <!-- check --> 
  <view id="check-white" viewBox="54 0 12 12"/>
    <use href="#check-template" x="54" y="0" style="fill: #ffffff"/>

  <!-- 20px icons -->
  <view id="android-logo-active" viewBox="66 0 20 20"/>
    <use href="#android-logo-template" x="66" y="0" style="fill: #a3c829"/>
  <view id="android-logo" viewBox="66 20 20 20"/>
    <use href="#android-logo-template" x="66" y="20" style="fill: rgba(0,0,0,.2)"/>
  <view id="ios-logo-active" viewBox="66 40 20 20"/>
    <use href="#ios-logo-template" x="66" y="40" style="fill: rgba(0,0,0,.87)"/>
  <view id="ios-logo" viewBox="66 60 20 20"/>
    <use href="#ios-logo-template" x="66" y="60" style="fill: rgba(0,0,0,.2)"/>
  <view id="i-sign-white" viewBox="66 80 20 20"/>
    <use href="#i-template" x="66" y="80" style="fill: white;"/>

  <!-- 18px icons -->
  <view id="arrow-right-blue" viewBox="86 0 18 18"/>
    <use href="#arrow-right" x="86" y="0" style="fill: #0288d1"/>
</svg>
