<svg width="12" height="12" viewBox="0 0 12 12" fill="none" xmlns="http://www.w3.org/2000/svg">
<path fill-rule="evenodd" clip-rule="evenodd" d="M6 12C9.31371 12 12 9.31371 12 6C12 2.68629 9.31371 0 6 0C2.68629 0 0 2.68629 0 6C0 9.31371 2.68629 12 6 12ZM6.60938 6L6.75 3H5.25L5.38477 6H6.60938ZM6 8.5C6.23913 8.5 6.42391 8.42912 6.55435 8.28736C6.68478 8.14559 6.75 7.96935 6.75 7.75862C6.75 7.54023 6.68297 7.3592 6.54891 7.21552C6.41486 7.07184 6.23188 7 6 7C5.76812 7 5.58514 7.07184 5.45109 7.21552C5.31703 7.3592 5.25 7.54023 5.25 7.75862C5.25 7.96935 5.31522 8.14559 5.44565 8.28736C5.57609 8.42912 5.76087 8.5 6 8.5Z" fill="#F44831"/>
</svg>
