<svg xmlns="http://www.w3.org/2000/svg" width="27" height="27" viewBox="0 0 27 27">
    <defs>
        <linearGradient id="prefix__a" x1="31.107%" x2="93.234%" y1="41.362%" y2="55.302%">
            <stop offset="0%" stop-color="#FF6400" stop-opacity=".298"/>
            <stop offset="45.383%" stop-color="#FF6400" stop-opacity=".609"/>
            <stop offset="100%" stop-color="#FF6400"/>
        </linearGradient>
    </defs>
    <path fill="url(#prefix__a)" fill-rule="evenodd" d="M25.147 1.853C23.952.658 22.363 0 20.673 0c-1.69 0-3.28.658-4.474 1.853L13.5 4.552l-1.776 1.775-2.699 2.698c-.72.721-1.678 1.118-2.698 1.118-1.019 0-1.977-.397-2.698-1.118-.72-.72-1.117-1.678-1.117-2.698 0-1.019.397-1.977 1.117-2.698.72-.72 1.68-1.117 2.698-1.117 1.02 0 1.978.397 2.698 1.117l2.102 2.101 1.776-1.776-2.102-2.1C9.606.657 8.017 0 6.327 0c-1.69 0-3.279.658-4.474 1.853C.658 3.048 0 4.637 0 6.327c0 1.69.658 3.28 1.853 4.474 1.195 1.196 2.784 1.854 4.474 1.854 1.69 0 3.28-.658 4.474-1.854L13.5 8.103l1.776-1.776 2.699-2.698c.72-.72 1.678-1.117 2.698-1.117 1.019 0 1.977.397 2.698 1.117.72.72 1.117 1.68 1.117 2.698 0 1.02-.397 1.978-1.117 2.698-.72.721-1.68 1.118-2.698 1.118-1.02 0-1.978-.397-2.698-1.118l-1.933-1.932-1.776 1.776 1.933 1.932c1.195 1.196 2.784 1.854 4.474 1.854 1.69 0 3.279-.658 4.474-1.854C26.342 9.606 27 8.017 27 6.327c0-1.69-.658-3.279-1.853-4.474" transform="translate(0 7.594)"/>
</svg>
