<svg xmlns="http://www.w3.org/2000/svg" width="64" height="65" viewBox="0 0 64 65">
    <path fill="#D4E0EC" fill-rule="evenodd" d="M42.873 2.807l.14.046C58.725 8.59 67.397 25.575 62.754 41.766 57.876 58.778 40.153 68.62 23.168 63.75 6.184 58.88-3.63 41.14 1.248 24.13 4.104 14.167 11.49 6.36 21.024 2.859c1.169-.43 2.463.17 2.89 1.34.428 1.17-.172 2.466-1.34 2.896-8.197 3.011-14.54 9.714-16.995 18.276-4.191 14.616 4.24 29.857 18.833 34.04 14.593 4.185 29.82-4.271 34.01-18.887 3.99-13.91-3.461-28.504-16.956-33.43-1.168-.428-1.77-1.723-1.343-2.894.41-1.123 1.62-1.724 2.75-1.393zM32 0c1.195 0 2.172.931 2.248 2.108l.005.149v28.885c0 1.246-1.009 2.257-2.253 2.257-1.195 0-2.172-.932-2.248-2.109l-.005-.148V2.257C29.748 1.01 30.757 0 32.001 0z"/>
</svg>
