<?xml version="1.0" encoding="utf-8"?><svg width="106" height="76" viewBox="0 0 106 76" xmlns="http://www.w3.org/2000/svg" xmlns:xlink="http://www.w3.org/1999/xlink"><view id="adremover" viewBox="0 28 24 24"/><svg width="24" height="24" viewBox="0 0 24 24" y="28" xmlns="http://www.w3.org/2000/svg"><defs><linearGradient x1=".1%" y1="42.9%" x2="100.2%" y2="42.9%" id="aa"><stop stop-color="#D20000" offset="0%"/><stop stop-color="#D20814" stop-opacity="0" offset="100%"/></linearGradient><linearGradient x1="50%" y1="93.3%" x2="50%" y2="-7%" id="ab"><stop stop-color="#E6E6E6" offset="0%"/><stop stop-color="#FFF" offset="100%"/></linearGradient></defs><g fill="none" fill-rule="evenodd"><path d="M0 12C0 5.373 5.373 0 12 0s12 5.373 12 12-5.373 12-12 12C5.38 23.98.02 18.62 0 12"/><path d="M12.127.275L2.7 4.414v7.052a12.71 12.71 0 002.682 7.817c1.84 2.376 4.063 3.91 6.745 4.523 2.683-.613 4.906-2.147 6.745-4.523a12.405 12.405 0 002.683-7.817V4.414L12.127.275z" fill="#ED2A2F"/><path d="M9.427.275v23.607c2.683-.613 4.906-2.146 6.668-4.522 1.763-2.376 2.76-4.982 2.76-7.818V4.491L9.427.275z" fill="url(#aa)" fill-rule="nonzero" transform="translate(2.7)"/><path d="M11.153 6.588a1.503 1.503 0 00-1.456.996l-.766 1.61V2.372A1.085 1.085 0 007.935 1.3a1.033 1.033 0 00-1.073.996v4.752a.153.153 0 11-.306 0V1.222A1.085 1.085 0 005.558.15a1.033 1.033 0 00-1.073.996v5.901a.165.165 0 01-.153.154.165.165 0 01-.154-.154V2.372A1.085 1.085 0 003.182 1.3a1.033 1.033 0 00-1.073.996v4.752a.165.165 0 01-.153.154.165.165 0 01-.154-.154V4.288a.92.92 0 00-.843-.92.886.886 0 00-.92.92v7.358a4.979 4.979 0 004.752 4.982 5.039 5.039 0 004.523-2.836L11.69 7.89c.091-.191.144-.4.153-.612.076-.307-.154-.69-.69-.69zm-4.446 2.99a.944.944 0 01.768.995c0 .613-.306 1.073-.766 1.073a.944.944 0 01-.768-.996c0-.537.383-1.073.766-1.073v.001zm-2.76.996c0 .537-.306.996-.766.996a.944.944 0 01-.766-.996c0-.536.306-.996.766-.996s.767.459.767.995v.001zm.997 4.906a3.702 3.702 0 01-3.678-3.527h.613a3.098 3.098 0 003.065 2.911 3.046 3.046 0 003.066-2.911h.613a3.702 3.702 0 01-3.678 3.525l-.001.002z" transform="translate(7.028 3.423)" fill="url(#ab)" fill-rule="nonzero"/></g></svg><view id="adremover_gray" viewBox="24 28 24 24"/><svg width="24" height="24" viewBox="0 0 24 24" x="24" y="28" xmlns="http://www.w3.org/2000/svg"><defs><linearGradient x1=".927%" y1="42.9%" x2="100.2%" y2="42.9%" id="ba"><stop stop-color="#71859C" offset="0%"/><stop stop-color="#A3B5CA" stop-opacity="0" offset="100%"/></linearGradient><linearGradient x1="50%" y1="93.3%" x2="50%" y2="-7%" id="bb"><stop stop-color="#E6E6E6" offset="0%"/><stop stop-color="#FFF" offset="100%"/></linearGradient></defs><g fill="none" fill-rule="evenodd"><path d="M0 12C0 5.373 5.373 0 12 0s12 5.373 12 12-5.373 12-12 12C5.38 23.98.02 18.62 0 12"/><path d="M12.127.275L2.7 4.414v7.052a12.71 12.71 0 002.682 7.817c1.84 2.376 4.063 3.91 6.745 4.523 2.683-.613 4.906-2.147 6.745-4.523a12.405 12.405 0 002.683-7.817V4.414L12.127.275z" fill="#A3B5CA"/><path d="M9.427.275v23.607c2.683-.613 4.906-2.146 6.668-4.522 1.763-2.376 2.76-4.982 2.76-7.818V4.491L9.427.275z" fill="url(#ba)" fill-rule="nonzero" transform="translate(2.7)"/><path d="M11.153 6.588a1.503 1.503 0 00-1.456.996l-.766 1.61V2.372A1.085 1.085 0 007.935 1.3a1.033 1.033 0 00-1.073.996v4.752a.153.153 0 11-.306 0V1.222A1.085 1.085 0 005.558.15a1.033 1.033 0 00-1.073.996v5.901a.165.165 0 01-.153.154.165.165 0 01-.154-.154V2.372A1.085 1.085 0 003.182 1.3a1.033 1.033 0 00-1.073.996v4.752a.165.165 0 01-.153.154.165.165 0 01-.154-.154V4.288a.92.92 0 00-.843-.92.886.886 0 00-.92.92v7.358a4.979 4.979 0 004.752 4.982 5.039 5.039 0 004.523-2.836L11.69 7.89c.091-.191.144-.4.153-.612.076-.307-.154-.69-.69-.69zm-4.446 2.99a.944.944 0 01.768.995c0 .613-.306 1.073-.766 1.073a.944.944 0 01-.768-.996c0-.537.383-1.073.766-1.073v.001zm-2.76.996c0 .537-.306.996-.766.996a.944.944 0 01-.766-.996c0-.536.306-.996.766-.996s.767.459.767.995v.001zm.997 4.906a3.702 3.702 0 01-3.678-3.527h.613a3.098 3.098 0 003.065 2.911 3.046 3.046 0 003.066-2.911h.613a3.702 3.702 0 01-3.678 3.525l-.001.002z" transform="translate(7.028 3.423)" fill="url(#bb)" fill-rule="nonzero"/></g></svg><view id="android" viewBox="58 0 24 24"/><svg width="24" height="24" viewBox="0 0 24 24" x="58" xmlns="http://www.w3.org/2000/svg"><path d="M2.656 8.49c.289-.292.692-.438 1.1-.398.406-.021.803.123 1.1.4.292.288.439.691.4 1.1v6.997c.022.407-.122.804-.4 1.103-.288.29-.692.436-1.1.397a1.504 1.504 0 01-1.1-.397 1.666 1.666 0 01-.4-1.103V9.592c-.04-.41.108-.814.4-1.103zm13.1-6.3a5.55 5.55 0 012.5 4.8h-12a5.55 5.55 0 012.5-4.8L7.356.891c-.3-.203-.3-.403 0-.703a.418.418 0 01.7 0l1.5 1.5a5.19 5.19 0 012.7-.7 5.19 5.19 0 012.7.7l1.5-1.5a.483.483 0 01.7 0 .483.483 0 010 .7l-1.4 1.3zm-9.5 15.802V7.989h12v10.003a1.025 1.025 0 01-1 .997h-1v3.503a1.5 1.5 0 11-3 0v-3.503h-2v3.503a1.5 1.5 0 11-3 0v-3.503h-1a.907.907 0 01-.7-.3.907.907 0 01-.3-.697zm4-13.003v-1h-1v1h1zm5 0v-1h-1v1h1zm4.4 3.5a1.366 1.366 0 011.1-.4 1.384 1.384 0 011.5 1.5v7a1.5 1.5 0 11-3 0V9.592c-.039-.41.108-.814.4-1.103z" fill="#a3c829" fill-rule="evenodd"/></svg><view id="android_gray" viewBox="58 24 24 24"/><svg width="24" height="24" viewBox="0 0 24 24" x="58" y="24" xmlns="http://www.w3.org/2000/svg"><path d="M2.656 8.49c.289-.292.692-.438 1.1-.398.406-.021.803.123 1.1.4.292.288.439.691.4 1.1v6.997c.022.407-.122.804-.4 1.103-.288.29-.692.436-1.1.397a1.504 1.504 0 01-1.1-.397 1.666 1.666 0 01-.4-1.103V9.592c-.04-.41.108-.814.4-1.103zm13.1-6.3a5.55 5.55 0 012.5 4.8h-12a5.55 5.55 0 012.5-4.8L7.356.891c-.3-.203-.3-.403 0-.703a.418.418 0 01.7 0l1.5 1.5a5.19 5.19 0 012.7-.7 5.19 5.19 0 012.7.7l1.5-1.5a.483.483 0 01.7 0 .483.483 0 010 .7l-1.4 1.3zm-9.5 15.802V7.989h12v10.003a1.025 1.025 0 01-1 .997h-1v3.503a1.5 1.5 0 11-3 0v-3.503h-2v3.503a1.5 1.5 0 11-3 0v-3.503h-1a.907.907 0 01-.7-.3.907.907 0 01-.3-.697zm4-13.003v-1h-1v1h1zm5 0v-1h-1v1h1zm4.4 3.5a1.366 1.366 0 011.1-.4 1.384 1.384 0 011.5 1.5v7a1.5 1.5 0 11-3 0V9.592c-.039-.41.108-.814.4-1.103z" fill="#A3B5CA" fill-rule="evenodd"/></svg><view id="ios" viewBox="0 52 24 24"/><svg width="24" height="24" viewBox="0 0 24 24" y="52" xmlns="http://www.w3.org/2000/svg"><path d="M22.007 8.098a4.218 4.218 0 00-1.976 1.8 6.356 6.356 0 00-.79 2.799c-.01 1.13.298 2.24.888 3.2a4.023 4.023 0 002.371 1.899c-.33 1.105-.83 2.15-1.482 3.099a8.527 8.527 0 01-2.074 2.4 3.166 3.166 0 01-2.173.7 6.18 6.18 0 01-2.074-.5 4.82 4.82 0 00-1.778-.5c-.79.104-1.558.34-2.272.7-.444.165-.91.266-1.383.299a4.89 4.89 0 01-2.765-1.1 13.597 13.597 0 01-3.16-4.598 13.328 13.328 0 01-1.087-5.499 9.121 9.121 0 011.68-5.299 5.502 5.502 0 014.444-2.3 5.821 5.821 0 012.667.6 3.461 3.461 0 001.876.6 4.564 4.564 0 001.68-.3 10.085 10.085 0 012.864-.9 4.586 4.586 0 013.358 1.3c.48.464.88 1.004 1.186 1.6zm-9.68-2.7A5.615 5.615 0 0113.71 1.9 6.325 6.325 0 0117.068 0a5.985 5.985 0 01-1.383 3.8 4.321 4.321 0 01-3.358 1.599z" fill="#212121" fill-rule="evenodd"/></svg><view id="ios_gray" viewBox="24 52 24 24"/><svg width="24" height="24" viewBox="0 0 24 24" x="24" y="52" xmlns="http://www.w3.org/2000/svg"><path d="M22.007 8.098a4.218 4.218 0 00-1.976 1.8 6.356 6.356 0 00-.79 2.799c-.01 1.13.298 2.24.888 3.2a4.023 4.023 0 002.371 1.899c-.33 1.105-.83 2.15-1.482 3.099a8.527 8.527 0 01-2.074 2.4 3.166 3.166 0 01-2.173.7 6.18 6.18 0 01-2.074-.5 4.82 4.82 0 00-1.778-.5c-.79.104-1.558.34-2.272.7-.444.165-.91.266-1.383.299a4.89 4.89 0 01-2.765-1.1 13.597 13.597 0 01-3.16-4.598 13.328 13.328 0 01-1.087-5.499 9.121 9.121 0 011.68-5.299 5.502 5.502 0 014.444-2.3 5.821 5.821 0 012.667.6 3.461 3.461 0 001.876.6 4.564 4.564 0 001.68-.3 10.085 10.085 0 012.864-.9 4.586 4.586 0 013.358 1.3c.48.464.88 1.004 1.186 1.6zm-9.68-2.7A5.615 5.615 0 0113.71 1.9 6.325 6.325 0 0117.068 0a5.985 5.985 0 01-1.383 3.8 4.321 4.321 0 01-3.358 1.599z" fill="#A3B5CA" fill-rule="evenodd"/></svg><view id="mac" viewBox="48 52 24 24"/><svg width="24" height="24" viewBox="0 0 24 24" x="48" y="52" xmlns="http://www.w3.org/2000/svg"><path d="M12 0c6.62.02 11.98 5.38 12 12 0 6.627-5.373 12-12 12S0 18.627 0 12 5.373 0 12 0zm3.795 11.988L15.6 12c-1.4 0-2.4.8-2.4 2 0 1 .5 1.6 1.7 1.9l.8.2c.8.199 1.1.499 1.1 1 0 .6-.5.999-1.3.999a1.333 1.333 0 01-1.4-1H13c.1 1.2 1 2 2.5 2C17 19.1 18 18.3 18 17c0-1-.5-1.6-1.8-1.9l-.7-.2c-.8-.2-1.1-.4-1.1-.9 0-.6.5-1 1.2-1A1.222 1.222 0 0116.9 14H18a2.18 2.18 0 00-2.4-2zM9 12a3.5 3.5 0 100 7 3.543 3.543 0 003.5-3.5A3.5 3.5 0 009 12zM9 13.2a2.3 2.3 0 110 4.6 2.3 2.3 0 010-4.6zm8.77-7.508l-.17.008a2.001 2.001 0 00-2 2.2c0 1.4.8 2.2 2 2.2a1.685 1.685 0 001.8-1.6h-.9a.875.875 0 01-.9.8c-.6 0-1-.5-1-1.4 0-.9.4-1.4 1-1.4.45.022.825.355.9.8h.9a1.636 1.636 0 00-1.8-1.6zM13.3 5.8c-1.1 0-1.8.5-1.8 1.3h.9c0-.4.3-.6.8-.6a.713.713 0 01.8.7v.3l-1 .1c-1 0-1.6.5-1.6 1.2a1.167 1.167 0 001.4 1.2 1.56 1.56 0 001.3-.7v.7h.9V7.2c0-.9-.7-1.4-1.7-1.4zm-6.068 0h-.264c-.48.027-.904.339-1.068.8v-.7H5V10h1V7.5a.817.817 0 01.8-.9.632.632 0 01.7.7V10h1V7.4a.736.736 0 01.8-.8.713.713 0 01.7.8V10h1V7.2a1.367 1.367 0 00-1.4-1.4 1.34 1.34 0 00-1.3.8 1.206 1.206 0 00-1.2-.8zM14 8.1v.4a.923.923 0 01-1 .9.669.669 0 01-.7-.6c0-.4.2-.6.7-.6l1-.1z" fill="#000" fill-rule="evenodd"/></svg><view id="mac_gray" viewBox="82 0 24 24"/><svg width="24" height="24" viewBox="0 0 24 24" x="82" xmlns="http://www.w3.org/2000/svg"><path d="M12 0c6.62.02 11.98 5.38 12 12 0 6.627-5.373 12-12 12S0 18.627 0 12 5.373 0 12 0zm3.795 11.988L15.6 12c-1.4 0-2.4.8-2.4 2 0 1 .5 1.6 1.7 1.9l.8.2c.8.199 1.1.499 1.1 1 0 .6-.5.999-1.3.999a1.333 1.333 0 01-1.4-1H13c.1 1.2 1 2 2.5 2C17 19.1 18 18.3 18 17c0-1-.5-1.6-1.8-1.9l-.7-.2c-.8-.2-1.1-.4-1.1-.9 0-.6.5-1 1.2-1A1.222 1.222 0 0116.9 14H18a2.18 2.18 0 00-2.4-2zM9 12a3.5 3.5 0 100 7 3.543 3.543 0 003.5-3.5A3.5 3.5 0 009 12zM9 13.2a2.3 2.3 0 110 4.6 2.3 2.3 0 010-4.6zm8.77-7.508l-.17.008a2.001 2.001 0 00-2 2.2c0 1.4.8 2.2 2 2.2a1.685 1.685 0 001.8-1.6h-.9a.875.875 0 01-.9.8c-.6 0-1-.5-1-1.4 0-.9.4-1.4 1-1.4.45.022.825.355.9.8h.9a1.636 1.636 0 00-1.8-1.6zM13.3 5.8c-1.1 0-1.8.5-1.8 1.3h.9c0-.4.3-.6.8-.6a.713.713 0 01.8.7v.3l-1 .1c-1 0-1.6.5-1.6 1.2a1.167 1.167 0 001.4 1.2 1.56 1.56 0 001.3-.7v.7h.9V7.2c0-.9-.7-1.4-1.7-1.4zm-6.068 0h-.264c-.48.027-.904.339-1.068.8v-.7H5V10h1V7.5a.817.817 0 01.8-.9.632.632 0 01.7.7V10h1V7.4a.736.736 0 01.8-.8.713.713 0 01.7.8V10h1V7.2a1.367 1.367 0 00-1.4-1.4 1.34 1.34 0 00-1.3.8 1.206 1.206 0 00-1.2-.8zM14 8.1v.4a.923.923 0 01-1 .9.669.669 0 01-.7-.6c0-.4.2-.6.7-.6l1-.1z" fill="#A3B5CA" fill-rule="evenodd"/></svg><view id="premium" viewBox="0 0 58 14"/><svg width="58" height="14" viewBox="0 0 58 14" xmlns="http://www.w3.org/2000/svg"><g fill="none" fill-rule="evenodd"><rect width="58" height="14" fill="#FF6400" rx="7"/><path fill="#FFF" d="M7.34 10.868c.409 0 .613-.202.613-.605V8.436h1.362c.387 0 .74-.068 1.06-.204.32-.135.594-.324.821-.566.227-.242.404-.53.53-.864.127-.334.19-.699.19-1.095s-.063-.76-.19-1.09a2.59 2.59 0 00-.53-.858 2.307 2.307 0 00-.82-.56A2.738 2.738 0 009.316 3H6.613C6.204 3 6 3.202 6 3.605v6.658c0 .403.205.605.614.605h.725zm1.573-4.083h-.96V4.651h.994c.327 0 .573.097.737.291.163.195.245.45.245.765s-.084.574-.251.776c-.167.202-.422.302-.765.302zm5.08 4.083c.409 0 .613-.202.613-.605V8.667c0-.227.028-.444.084-.65.056-.205.14-.384.251-.538.112-.154.253-.277.424-.369.171-.092.372-.138.603-.138.41 0 .614-.201.614-.605v-.616c0-.198-.04-.348-.117-.451-.078-.103-.214-.154-.408-.154-.178 0-.351.044-.519.132-.167.088-.318.198-.452.33s-.25.279-.346.44a2.124 2.124 0 00-.212.462h-.022c0-.036.003-.073.01-.11 0-.036.003-.073.006-.11.004-.036.006-.08.006-.132v-.352c0-.403-.205-.605-.614-.605h-.625c-.41 0-.614.202-.614.605v4.457c0 .403.205.605.614.605h.703zM20.03 11c.447 0 .835-.055 1.167-.165.33-.11.6-.224.809-.341.171-.096.271-.215.301-.358.03-.143 0-.299-.09-.467l-.155-.287c-.097-.176-.212-.278-.346-.308-.134-.03-.294-.003-.48.077-.15.074-.313.136-.492.187a1.98 1.98 0 01-.558.077 1.54 1.54 0 01-.848-.242c-.253-.161-.417-.418-.491-.77h3.025c.193 0 .35-.068.469-.204a.634.634 0 00.178-.423c0-.382-.057-.737-.173-1.068a2.384 2.384 0 00-.513-.858 2.41 2.41 0 00-.837-.572c-.332-.14-.71-.21-1.133-.21-.462 0-.878.078-1.25.232a2.775 2.775 0 00-.944.627 2.708 2.708 0 00-.591.935c-.138.36-.207.749-.207 1.167 0 .374.069.74.207 1.1.137.36.338.677.602.952.265.275.594.497.988.666.395.169.849.253 1.362.253zm.58-3.686h-1.718c.052-.228.148-.426.29-.595.141-.168.353-.253.636-.253.246 0 .439.083.58.248a.888.888 0 01.213.6zm4.019 3.554c.41 0 .614-.202.614-.605V8.469c0-.198.017-.396.05-.594a1.82 1.82 0 01.173-.534 1.1 1.1 0 01.335-.39.906.906 0 01.547-.155c.186 0 .307.066.363.198.056.133.083.305.083.518v2.75c0 .404.205.606.614.606h.704c.409 0 .614-.202.614-.605V8.469c0-.213.018-.42.055-.622.038-.201.099-.38.185-.533.085-.154.199-.28.34-.375a.919.919 0 01.525-.143c.186 0 .307.066.362.198.056.133.084.305.084.518v2.75c0 .404.205.606.614.606h.703c.41 0 .614-.202.614-.605v-3.07c0-.39-.048-.72-.145-.99a1.768 1.768 0 00-.396-.661 1.448 1.448 0 00-.592-.363 2.34 2.34 0 00-.73-.11 2.183 2.183 0 00-1.128.302 2.39 2.39 0 00-.419.309 1.772 1.772 0 00-.296.346h-.022a1.533 1.533 0 00-.642-.72 1.923 1.923 0 00-.965-.237 1.78 1.78 0 00-.609.099 2.219 2.219 0 00-.485.242 1.766 1.766 0 00-.363.319c-.1.117-.184.224-.251.32h-.023v-.056c0-.015.002-.03.006-.044a.172.172 0 00.006-.044v-.099c0-.403-.201-.605-.603-.605h-.625c-.41 0-.614.202-.614.605v4.457c0 .403.204.605.614.605h.703zm9.934-6.382c.41 0 .614-.202.614-.606v-.275c0-.403-.204-.605-.614-.605h-.658c-.41 0-.614.202-.614.605v.275c0 .404.205.606.614.606h.658zm.023 6.382c.409 0 .614-.202.614-.605V5.806c0-.403-.205-.605-.614-.605h-.703c-.41 0-.614.202-.614.605v4.457c0 .403.204.605.614.605h.703zm3.728.132c.387 0 .744-.086 1.072-.259.327-.172.569-.412.725-.72h.022a.126.126 0 00-.01.055v.187c0 .403.2.605.602.605h.625c.41 0 .614-.202.614-.605V5.806c0-.403-.205-.605-.614-.605h-.703c-.41 0-.614.202-.614.605V7.71c0 .213-.024.412-.073.6a1.491 1.491 0 01-.223.495c-.1.143-.227.256-.38.34a1.089 1.089 0 01-.54.127c-.202 0-.354-.058-.458-.176-.105-.117-.157-.308-.157-.572V5.806c0-.403-.204-.605-.614-.605h-.703c-.41 0-.614.202-.614.605v3.07c0 .396.052.73.157 1.002.104.271.249.49.435.654.186.165.404.285.653.358.25.073.515.11.798.11zm6.106-.132c.41 0 .614-.202.614-.605V8.469c0-.198.016-.396.05-.594.033-.198.091-.376.173-.534a1.09 1.09 0 01.335-.39.906.906 0 01.547-.155c.186 0 .307.066.363.198.055.133.083.305.083.518v2.75c0 .404.205.606.614.606h.703c.41 0 .614-.202.614-.605V8.469c0-.213.019-.42.056-.622.037-.201.099-.38.184-.533.086-.154.2-.28.34-.375a.923.923 0 01.525-.143c.186 0 .307.066.363.198.056.133.084.305.084.518v2.75c0 .404.205.606.614.606h.703c.41 0 .614-.202.614-.605v-3.07c0-.39-.048-.72-.145-.99a1.768 1.768 0 00-.396-.661 1.448 1.448 0 00-.592-.363 2.342 2.342 0 00-.731-.11c-.216 0-.419.027-.608.082a2.317 2.317 0 00-.938.529 1.772 1.772 0 00-.296.346h-.022a1.538 1.538 0 00-.642-.72 1.929 1.929 0 00-.966-.237c-.223 0-.426.033-.608.099s-.344.147-.486.242c-.14.095-.262.202-.362.319-.1.117-.184.224-.251.32h-.023v-.056c0-.015.002-.03.006-.044a.17.17 0 00.005-.044v-.099c0-.403-.2-.605-.602-.605h-.625c-.41 0-.614.202-.614.605v4.457c0 .403.204.605.614.605h.703z"/></g></svg><view id="premium_gray" viewBox="0 14 58 14"/><svg width="58" height="14" viewBox="0 0 58 14" y="14" xmlns="http://www.w3.org/2000/svg"><g fill="none" fill-rule="evenodd"><rect width="58" height="14" fill="#A3B5CA" rx="7"/><path fill="#FFF" d="M7.34 10.868c.409 0 .613-.202.613-.605V8.436h1.362c.387 0 .74-.068 1.06-.204.32-.135.594-.324.821-.566.227-.242.404-.53.53-.864.127-.334.19-.699.19-1.095s-.063-.76-.19-1.09a2.59 2.59 0 00-.53-.858 2.307 2.307 0 00-.82-.56A2.738 2.738 0 009.316 3H6.613C6.204 3 6 3.202 6 3.605v6.658c0 .403.205.605.614.605h.725zm1.573-4.083h-.96V4.651h.994c.327 0 .573.097.737.291.163.195.245.45.245.765s-.084.574-.251.776c-.167.202-.422.302-.765.302zm5.08 4.083c.409 0 .613-.202.613-.605V8.667c0-.227.028-.444.084-.65.056-.205.14-.384.251-.538.112-.154.253-.277.424-.369.171-.092.372-.138.603-.138.41 0 .614-.201.614-.605v-.616c0-.198-.04-.348-.117-.451-.078-.103-.214-.154-.408-.154-.178 0-.351.044-.519.132-.167.088-.318.198-.452.33s-.25.279-.346.44a2.124 2.124 0 00-.212.462h-.022c0-.036.003-.073.01-.11 0-.036.003-.073.006-.11.004-.036.006-.08.006-.132v-.352c0-.403-.205-.605-.614-.605h-.625c-.41 0-.614.202-.614.605v4.457c0 .403.205.605.614.605h.703zM20.03 11c.447 0 .835-.055 1.167-.165.33-.11.6-.224.809-.341.171-.096.271-.215.301-.358.03-.143 0-.299-.09-.467l-.155-.287c-.097-.176-.212-.278-.346-.308-.134-.03-.294-.003-.48.077-.15.074-.313.136-.492.187a1.98 1.98 0 01-.558.077 1.54 1.54 0 01-.848-.242c-.253-.161-.417-.418-.491-.77h3.025c.193 0 .35-.068.469-.204a.634.634 0 00.178-.423c0-.382-.057-.737-.173-1.068a2.384 2.384 0 00-.513-.858 2.41 2.41 0 00-.837-.572c-.332-.14-.71-.21-1.133-.21-.462 0-.878.078-1.25.232a2.775 2.775 0 00-.944.627 2.708 2.708 0 00-.591.935c-.138.36-.207.749-.207 1.167 0 .374.069.74.207 1.1.137.36.338.677.602.952.265.275.594.497.988.666.395.169.849.253 1.362.253zm.58-3.686h-1.718c.052-.228.148-.426.29-.595.141-.168.353-.253.636-.253.246 0 .439.083.58.248a.888.888 0 01.213.6zm4.019 3.554c.41 0 .614-.202.614-.605V8.469c0-.198.017-.396.05-.594a1.82 1.82 0 01.173-.534 1.1 1.1 0 01.335-.39.906.906 0 01.547-.155c.186 0 .307.066.363.198.056.133.083.305.083.518v2.75c0 .404.205.606.614.606h.704c.409 0 .614-.202.614-.605V8.469c0-.213.018-.42.055-.622.038-.201.099-.38.185-.533.085-.154.199-.28.34-.375a.919.919 0 01.525-.143c.186 0 .307.066.362.198.056.133.084.305.084.518v2.75c0 .404.205.606.614.606h.703c.41 0 .614-.202.614-.605v-3.07c0-.39-.048-.72-.145-.99a1.768 1.768 0 00-.396-.661 1.448 1.448 0 00-.592-.363 2.34 2.34 0 00-.73-.11 2.183 2.183 0 00-1.128.302 2.39 2.39 0 00-.419.309 1.772 1.772 0 00-.296.346h-.022a1.533 1.533 0 00-.642-.72 1.923 1.923 0 00-.965-.237 1.78 1.78 0 00-.609.099 2.219 2.219 0 00-.485.242 1.766 1.766 0 00-.363.319c-.1.117-.184.224-.251.32h-.023v-.056c0-.015.002-.03.006-.044a.172.172 0 00.006-.044v-.099c0-.403-.201-.605-.603-.605h-.625c-.41 0-.614.202-.614.605v4.457c0 .403.204.605.614.605h.703zm9.934-6.382c.41 0 .614-.202.614-.606v-.275c0-.403-.204-.605-.614-.605h-.658c-.41 0-.614.202-.614.605v.275c0 .404.205.606.614.606h.658zm.023 6.382c.409 0 .614-.202.614-.605V5.806c0-.403-.205-.605-.614-.605h-.703c-.41 0-.614.202-.614.605v4.457c0 .403.204.605.614.605h.703zm3.728.132c.387 0 .744-.086 1.072-.259.327-.172.569-.412.725-.72h.022a.126.126 0 00-.01.055v.187c0 .403.2.605.602.605h.625c.41 0 .614-.202.614-.605V5.806c0-.403-.205-.605-.614-.605h-.703c-.41 0-.614.202-.614.605V7.71c0 .213-.024.412-.073.6a1.491 1.491 0 01-.223.495c-.1.143-.227.256-.38.34a1.089 1.089 0 01-.54.127c-.202 0-.354-.058-.458-.176-.105-.117-.157-.308-.157-.572V5.806c0-.403-.204-.605-.614-.605h-.703c-.41 0-.614.202-.614.605v3.07c0 .396.052.73.157 1.002.104.271.249.49.435.654.186.165.404.285.653.358.25.073.515.11.798.11zm6.106-.132c.41 0 .614-.202.614-.605V8.469c0-.198.016-.396.05-.594.033-.198.091-.376.173-.534a1.09 1.09 0 01.335-.39.906.906 0 01.547-.155c.186 0 .307.066.363.198.055.133.083.305.083.518v2.75c0 .404.205.606.614.606h.703c.41 0 .614-.202.614-.605V8.469c0-.213.019-.42.056-.622.037-.201.099-.38.184-.533.086-.154.2-.28.34-.375a.923.923 0 01.525-.143c.186 0 .307.066.363.198.056.133.084.305.084.518v2.75c0 .404.205.606.614.606h.703c.41 0 .614-.202.614-.605v-3.07c0-.39-.048-.72-.145-.99a1.768 1.768 0 00-.396-.661 1.448 1.448 0 00-.592-.363 2.342 2.342 0 00-.731-.11c-.216 0-.419.027-.608.082a2.317 2.317 0 00-.938.529 1.772 1.772 0 00-.296.346h-.022a1.538 1.538 0 00-.642-.72 1.929 1.929 0 00-.966-.237c-.223 0-.426.033-.608.099s-.344.147-.486.242c-.14.095-.262.202-.362.319-.1.117-.184.224-.251.32h-.023v-.056c0-.015.002-.03.006-.044a.17.17 0 00.005-.044v-.099c0-.403-.2-.605-.602-.605h-.625c-.41 0-.614.202-.614.605v4.457c0 .403.204.605.614.605h.703z"/></g></svg></svg>

